G04 #@! TF.FileFunction,Soldermask,Top*
%FSLAX46Y46*%
G04 Gerber Fmt 4.6, Leading zero omitted, Abs format (unit mm)*
G04 Created by KiCad (PCBNEW 4.0.7) date 11/03/17 12:30:38*
%MOMM*%
%LPD*%
G01*
G04 APERTURE LIST*
%ADD10C,0.100000*%
%ADD11C,0.150000*%
%ADD12C,0.300000*%
%ADD13C,0.400000*%
%ADD14C,2.076400*%
%ADD15R,1.900000X2.900000*%
%ADD16O,1.900000X2.900000*%
%ADD17C,1.702000*%
G04 APERTURE END LIST*
D10*
D11*
X83200000Y-83000000D02*
X83200000Y-115000000D01*
X191200000Y-115000000D01*
X191200000Y-83000000D01*
X83200000Y-83000000D01*
D10*
D11*
X10000000Y-10000000D02*
X10000000Y-117000000D01*
X193200000Y-117000000D01*
X193200000Y-10000000D01*
X10000000Y-10000000D01*
D10*
D11*
X12000000Y-12000000D02*
X12000000Y-115000000D01*
X191200000Y-115000000D01*
X191200000Y-12000000D01*
X12000000Y-12000000D01*
D10*
D11*
X60000000Y-12000000D02*
X60000000Y-10000000D01*
D10*
D11*
X110000000Y-12000000D02*
X110000000Y-10000000D01*
D10*
D11*
X160000000Y-12000000D02*
X160000000Y-10000000D01*
D10*
D11*
X35990476Y-11588095D02*
X35247619Y-11588095D01*
X35619048Y-11588095D02*
X35619048Y-10288095D01*
X35495238Y-10473810D01*
X35371429Y-10597619D01*
X35247619Y-10659524D01*
D10*
D11*
X85247619Y-10411905D02*
X85309524Y-10350000D01*
X85433333Y-10288095D01*
X85742857Y-10288095D01*
X85866667Y-10350000D01*
X85928571Y-10411905D01*
X85990476Y-10535714D01*
X85990476Y-10659524D01*
X85928571Y-10845238D01*
X85185714Y-11588095D01*
X85990476Y-11588095D01*
D10*
D11*
X135185714Y-10288095D02*
X135990476Y-10288095D01*
X135557143Y-10783333D01*
X135742857Y-10783333D01*
X135866667Y-10845238D01*
X135928571Y-10907143D01*
X135990476Y-11030952D01*
X135990476Y-11340476D01*
X135928571Y-11464286D01*
X135866667Y-11526190D01*
X135742857Y-11588095D01*
X135371429Y-11588095D01*
X135247619Y-11526190D01*
X135185714Y-11464286D01*
D10*
D11*
X185866667Y-10721429D02*
X185866667Y-11588095D01*
X185557143Y-10226190D02*
X185247619Y-11154762D01*
X186052381Y-11154762D01*
D10*
D11*
X60000000Y-115000000D02*
X60000000Y-117000000D01*
D10*
D11*
X110000000Y-115000000D02*
X110000000Y-117000000D01*
D10*
D11*
X160000000Y-115000000D02*
X160000000Y-117000000D01*
D10*
D11*
X35990476Y-116588095D02*
X35247619Y-116588095D01*
X35619048Y-116588095D02*
X35619048Y-115288095D01*
X35495238Y-115473810D01*
X35371429Y-115597619D01*
X35247619Y-115659524D01*
D10*
D11*
X85247619Y-115411905D02*
X85309524Y-115350000D01*
X85433333Y-115288095D01*
X85742857Y-115288095D01*
X85866667Y-115350000D01*
X85928571Y-115411905D01*
X85990476Y-115535714D01*
X85990476Y-115659524D01*
X85928571Y-115845238D01*
X85185714Y-116588095D01*
X85990476Y-116588095D01*
D10*
D11*
X135185714Y-115288095D02*
X135990476Y-115288095D01*
X135557143Y-115783333D01*
X135742857Y-115783333D01*
X135866667Y-115845238D01*
X135928571Y-115907143D01*
X135990476Y-116030952D01*
X135990476Y-116340476D01*
X135928571Y-116464286D01*
X135866667Y-116526190D01*
X135742857Y-116588095D01*
X135371429Y-116588095D01*
X135247619Y-116526190D01*
X135185714Y-116464286D01*
D10*
D11*
X185866667Y-115721429D02*
X185866667Y-116588095D01*
X185557143Y-115226190D02*
X185247619Y-116154762D01*
X186052381Y-116154762D01*
D10*
D11*
X10000000Y-60000000D02*
X12000000Y-60000000D01*
D10*
D11*
X10000000Y-110000000D02*
X12000000Y-110000000D01*
D10*
D11*
X10690476Y-35216667D02*
X11309524Y-35216667D01*
X10566667Y-35588095D02*
X11000000Y-34288095D01*
X11433333Y-35588095D01*
D10*
D11*
X11092857Y-84907143D02*
X11278571Y-84969048D01*
X11340476Y-85030952D01*
X11402381Y-85154762D01*
X11402381Y-85340476D01*
X11340476Y-85464286D01*
X11278571Y-85526190D01*
X11154762Y-85588095D01*
X10659524Y-85588095D01*
X10659524Y-84288095D01*
X11092857Y-84288095D01*
X11216667Y-84350000D01*
X11278571Y-84411905D01*
X11340476Y-84535714D01*
X11340476Y-84659524D01*
X11278571Y-84783333D01*
X11216667Y-84845238D01*
X11092857Y-84907143D01*
X10659524Y-84907143D01*
D10*
D11*
X193200000Y-60000000D02*
X191200000Y-60000000D01*
D10*
D11*
X193200000Y-110000000D02*
X191200000Y-110000000D01*
D10*
D11*
X191890476Y-35216667D02*
X192509524Y-35216667D01*
X191766667Y-35588095D02*
X192200000Y-34288095D01*
X192633333Y-35588095D01*
D10*
D11*
X192292857Y-84907143D02*
X192478571Y-84969048D01*
X192540476Y-85030952D01*
X192602381Y-85154762D01*
X192602381Y-85340476D01*
X192540476Y-85464286D01*
X192478571Y-85526190D01*
X192354762Y-85588095D01*
X191859524Y-85588095D01*
X191859524Y-84288095D01*
X192292857Y-84288095D01*
X192416667Y-84350000D01*
X192478571Y-84411905D01*
X192540476Y-84535714D01*
X192540476Y-84659524D01*
X192478571Y-84783333D01*
X192416667Y-84845238D01*
X192292857Y-84907143D01*
X191859524Y-84907143D01*
D10*
D11*
X106557143Y-110778571D02*
X106557143Y-109278571D01*
X106914286Y-109278571D01*
X107128571Y-109350000D01*
X107271429Y-109492857D01*
X107342857Y-109635714D01*
X107414286Y-109921429D01*
X107414286Y-110135714D01*
X107342857Y-110421429D01*
X107271429Y-110564286D01*
X107128571Y-110707143D01*
X106914286Y-110778571D01*
X106557143Y-110778571D01*
X108700000Y-110778571D02*
X108700000Y-109992857D01*
X108628571Y-109850000D01*
X108485714Y-109778571D01*
X108200000Y-109778571D01*
X108057143Y-109850000D01*
X108700000Y-110707143D02*
X108557143Y-110778571D01*
X108200000Y-110778571D01*
X108057143Y-110707143D01*
X107985714Y-110564286D01*
X107985714Y-110421429D01*
X108057143Y-110278571D01*
X108200000Y-110207143D01*
X108557143Y-110207143D01*
X108700000Y-110135714D01*
X109200000Y-109778571D02*
X109771429Y-109778571D01*
X109414286Y-109278571D02*
X109414286Y-110564286D01*
X109485714Y-110707143D01*
X109628572Y-110778571D01*
X109771429Y-110778571D01*
X110842857Y-110707143D02*
X110700000Y-110778571D01*
X110414286Y-110778571D01*
X110271429Y-110707143D01*
X110200000Y-110564286D01*
X110200000Y-109992857D01*
X110271429Y-109850000D01*
X110414286Y-109778571D01*
X110700000Y-109778571D01*
X110842857Y-109850000D01*
X110914286Y-109992857D01*
X110914286Y-110135714D01*
X110200000Y-110278571D01*
X111557143Y-110635714D02*
X111628571Y-110707143D01*
X111557143Y-110778571D01*
X111485714Y-110707143D01*
X111557143Y-110635714D01*
X111557143Y-110778571D01*
X111557143Y-109850000D02*
X111628571Y-109921429D01*
X111557143Y-109992857D01*
X111485714Y-109921429D01*
X111557143Y-109850000D01*
X111557143Y-109992857D01*
X113342857Y-109421429D02*
X113414286Y-109350000D01*
X113557143Y-109278571D01*
X113914286Y-109278571D01*
X114057143Y-109350000D01*
X114128572Y-109421429D01*
X114200000Y-109564286D01*
X114200000Y-109707143D01*
X114128572Y-109921429D01*
X113271429Y-110778571D01*
X114200000Y-110778571D01*
X115128571Y-109278571D02*
X115271428Y-109278571D01*
X115414285Y-109350000D01*
X115485714Y-109421429D01*
X115557143Y-109564286D01*
X115628571Y-109850000D01*
X115628571Y-110207143D01*
X115557143Y-110492857D01*
X115485714Y-110635714D01*
X115414285Y-110707143D01*
X115271428Y-110778571D01*
X115128571Y-110778571D01*
X114985714Y-110707143D01*
X114914285Y-110635714D01*
X114842857Y-110492857D01*
X114771428Y-110207143D01*
X114771428Y-109850000D01*
X114842857Y-109564286D01*
X114914285Y-109421429D01*
X114985714Y-109350000D01*
X115128571Y-109278571D01*
X117057142Y-110778571D02*
X116199999Y-110778571D01*
X116628571Y-110778571D02*
X116628571Y-109278571D01*
X116485714Y-109492857D01*
X116342856Y-109635714D01*
X116199999Y-109707143D01*
X117557142Y-109278571D02*
X118557142Y-109278571D01*
X117914285Y-110778571D01*
X119128570Y-110207143D02*
X120271427Y-110207143D01*
X121271427Y-109278571D02*
X121414284Y-109278571D01*
X121557141Y-109350000D01*
X121628570Y-109421429D01*
X121699999Y-109564286D01*
X121771427Y-109850000D01*
X121771427Y-110207143D01*
X121699999Y-110492857D01*
X121628570Y-110635714D01*
X121557141Y-110707143D01*
X121414284Y-110778571D01*
X121271427Y-110778571D01*
X121128570Y-110707143D01*
X121057141Y-110635714D01*
X120985713Y-110492857D01*
X120914284Y-110207143D01*
X120914284Y-109850000D01*
X120985713Y-109564286D01*
X121057141Y-109421429D01*
X121128570Y-109350000D01*
X121271427Y-109278571D01*
X122271427Y-109278571D02*
X123199998Y-109278571D01*
X122699998Y-109850000D01*
X122914284Y-109850000D01*
X123057141Y-109921429D01*
X123128570Y-109992857D01*
X123199998Y-110135714D01*
X123199998Y-110492857D01*
X123128570Y-110635714D01*
X123057141Y-110707143D01*
X122914284Y-110778571D01*
X122485712Y-110778571D01*
X122342855Y-110707143D01*
X122271427Y-110635714D01*
X123842855Y-110207143D02*
X124985712Y-110207143D01*
X125628569Y-109421429D02*
X125699998Y-109350000D01*
X125842855Y-109278571D01*
X126199998Y-109278571D01*
X126342855Y-109350000D01*
X126414284Y-109421429D01*
X126485712Y-109564286D01*
X126485712Y-109707143D01*
X126414284Y-109921429D01*
X125557141Y-110778571D01*
X126485712Y-110778571D01*
X126985712Y-109278571D02*
X127985712Y-109278571D01*
X127342855Y-110778571D01*
D10*
D11*
X83200000Y-111500000D02*
X191200000Y-111500000D01*
D10*
D11*
X84557143Y-113578571D02*
X84557143Y-112078571D01*
X85414286Y-113578571D02*
X84771429Y-112721429D01*
X85414286Y-112078571D02*
X84557143Y-112935714D01*
X86057143Y-113578571D02*
X86057143Y-112578571D01*
X86057143Y-112078571D02*
X85985714Y-112150000D01*
X86057143Y-112221429D01*
X86128571Y-112150000D01*
X86057143Y-112078571D01*
X86057143Y-112221429D01*
X87628572Y-113435714D02*
X87557143Y-113507143D01*
X87342857Y-113578571D01*
X87200000Y-113578571D01*
X86985715Y-113507143D01*
X86842857Y-113364286D01*
X86771429Y-113221429D01*
X86700000Y-112935714D01*
X86700000Y-112721429D01*
X86771429Y-112435714D01*
X86842857Y-112292857D01*
X86985715Y-112150000D01*
X87200000Y-112078571D01*
X87342857Y-112078571D01*
X87557143Y-112150000D01*
X87628572Y-112221429D01*
X88914286Y-113578571D02*
X88914286Y-112792857D01*
X88842857Y-112650000D01*
X88700000Y-112578571D01*
X88414286Y-112578571D01*
X88271429Y-112650000D01*
X88914286Y-113507143D02*
X88771429Y-113578571D01*
X88414286Y-113578571D01*
X88271429Y-113507143D01*
X88200000Y-113364286D01*
X88200000Y-113221429D01*
X88271429Y-113078571D01*
X88414286Y-113007143D01*
X88771429Y-113007143D01*
X88914286Y-112935714D01*
X90271429Y-113578571D02*
X90271429Y-112078571D01*
X90271429Y-113507143D02*
X90128572Y-113578571D01*
X89842858Y-113578571D01*
X89700000Y-113507143D01*
X89628572Y-113435714D01*
X89557143Y-113292857D01*
X89557143Y-112864286D01*
X89628572Y-112721429D01*
X89700000Y-112650000D01*
X89842858Y-112578571D01*
X90128572Y-112578571D01*
X90271429Y-112650000D01*
X92128572Y-112792857D02*
X92628572Y-112792857D01*
X92842858Y-113578571D02*
X92128572Y-113578571D01*
X92128572Y-112078571D01*
X92842858Y-112078571D01*
X93485715Y-113435714D02*
X93557143Y-113507143D01*
X93485715Y-113578571D01*
X93414286Y-113507143D01*
X93485715Y-113435714D01*
X93485715Y-113578571D01*
X94200001Y-113578571D02*
X94200001Y-112078571D01*
X94557144Y-112078571D01*
X94771429Y-112150000D01*
X94914287Y-112292857D01*
X94985715Y-112435714D01*
X95057144Y-112721429D01*
X95057144Y-112935714D01*
X94985715Y-113221429D01*
X94914287Y-113364286D01*
X94771429Y-113507143D01*
X94557144Y-113578571D01*
X94200001Y-113578571D01*
X95700001Y-113435714D02*
X95771429Y-113507143D01*
X95700001Y-113578571D01*
X95628572Y-113507143D01*
X95700001Y-113435714D01*
X95700001Y-113578571D01*
X96342858Y-113150000D02*
X97057144Y-113150000D01*
X96200001Y-113578571D02*
X96700001Y-112078571D01*
X97200001Y-113578571D01*
X97700001Y-113435714D02*
X97771429Y-113507143D01*
X97700001Y-113578571D01*
X97628572Y-113507143D01*
X97700001Y-113435714D01*
X97700001Y-113578571D01*
X100700001Y-112578571D02*
X100700001Y-114078571D01*
X100700001Y-112650000D02*
X100842858Y-112578571D01*
X101128572Y-112578571D01*
X101271429Y-112650000D01*
X101342858Y-112721429D01*
X101414287Y-112864286D01*
X101414287Y-113292857D01*
X101342858Y-113435714D01*
X101271429Y-113507143D01*
X101128572Y-113578571D01*
X100842858Y-113578571D01*
X100700001Y-113507143D01*
X102700001Y-113507143D02*
X102557144Y-113578571D01*
X102271430Y-113578571D01*
X102128572Y-113507143D01*
X102057144Y-113435714D01*
X101985715Y-113292857D01*
X101985715Y-112864286D01*
X102057144Y-112721429D01*
X102128572Y-112650000D01*
X102271430Y-112578571D01*
X102557144Y-112578571D01*
X102700001Y-112650000D01*
X103342858Y-113578571D02*
X103342858Y-112078571D01*
X103342858Y-112650000D02*
X103485715Y-112578571D01*
X103771429Y-112578571D01*
X103914286Y-112650000D01*
X103985715Y-112721429D01*
X104057144Y-112864286D01*
X104057144Y-113292857D01*
X103985715Y-113435714D01*
X103914286Y-113507143D01*
X103771429Y-113578571D01*
X103485715Y-113578571D01*
X103342858Y-113507143D01*
X104700001Y-112578571D02*
X104700001Y-113578571D01*
X104700001Y-112721429D02*
X104771429Y-112650000D01*
X104914287Y-112578571D01*
X105128572Y-112578571D01*
X105271429Y-112650000D01*
X105342858Y-112792857D01*
X105342858Y-113578571D01*
X106628572Y-113507143D02*
X106485715Y-113578571D01*
X106200001Y-113578571D01*
X106057144Y-113507143D01*
X105985715Y-113364286D01*
X105985715Y-112792857D01*
X106057144Y-112650000D01*
X106200001Y-112578571D01*
X106485715Y-112578571D01*
X106628572Y-112650000D01*
X106700001Y-112792857D01*
X106700001Y-112935714D01*
X105985715Y-113078571D01*
X107200001Y-112578571D02*
X107485715Y-113578571D01*
X107771429Y-112864286D01*
X108057144Y-113578571D01*
X108342858Y-112578571D01*
X110700001Y-112578571D02*
X110700001Y-113578571D01*
X110342858Y-112007143D02*
X109985715Y-113078571D01*
X110914287Y-113078571D01*
X111485715Y-113435714D02*
X111557143Y-113507143D01*
X111485715Y-113578571D01*
X111414286Y-113507143D01*
X111485715Y-113435714D01*
X111485715Y-113578571D01*
X112485715Y-112078571D02*
X112628572Y-112078571D01*
X112771429Y-112150000D01*
X112842858Y-112221429D01*
X112914287Y-112364286D01*
X112985715Y-112650000D01*
X112985715Y-113007143D01*
X112914287Y-113292857D01*
X112842858Y-113435714D01*
X112771429Y-113507143D01*
X112628572Y-113578571D01*
X112485715Y-113578571D01*
X112342858Y-113507143D01*
X112271429Y-113435714D01*
X112200001Y-113292857D01*
X112128572Y-113007143D01*
X112128572Y-112650000D01*
X112200001Y-112364286D01*
X112271429Y-112221429D01*
X112342858Y-112150000D01*
X112485715Y-112078571D01*
X113628572Y-113435714D02*
X113700000Y-113507143D01*
X113628572Y-113578571D01*
X113557143Y-113507143D01*
X113628572Y-113435714D01*
X113628572Y-113578571D01*
X114200001Y-112078571D02*
X115200001Y-112078571D01*
X114557144Y-113578571D01*
D10*
D11*
X83200000Y-108500000D02*
X191200000Y-108500000D01*
D10*
D12*
X170414286Y-110778571D02*
X169914286Y-110064286D01*
X169557143Y-110778571D02*
X169557143Y-109278571D01*
X170128571Y-109278571D01*
X170271429Y-109350000D01*
X170342857Y-109421429D01*
X170414286Y-109564286D01*
X170414286Y-109778571D01*
X170342857Y-109921429D01*
X170271429Y-109992857D01*
X170128571Y-110064286D01*
X169557143Y-110064286D01*
X171628571Y-110707143D02*
X171485714Y-110778571D01*
X171200000Y-110778571D01*
X171057143Y-110707143D01*
X170985714Y-110564286D01*
X170985714Y-109992857D01*
X171057143Y-109850000D01*
X171200000Y-109778571D01*
X171485714Y-109778571D01*
X171628571Y-109850000D01*
X171700000Y-109992857D01*
X171700000Y-110135714D01*
X170985714Y-110278571D01*
X172200000Y-109778571D02*
X172557143Y-110778571D01*
X172914285Y-109778571D01*
X173485714Y-110635714D02*
X173557142Y-110707143D01*
X173485714Y-110778571D01*
X173414285Y-110707143D01*
X173485714Y-110635714D01*
X173485714Y-110778571D01*
X173485714Y-109850000D02*
X173557142Y-109921429D01*
X173485714Y-109992857D01*
X173414285Y-109921429D01*
X173485714Y-109850000D01*
X173485714Y-109992857D01*
X176128571Y-110778571D02*
X175271428Y-110778571D01*
X175700000Y-110778571D02*
X175700000Y-109278571D01*
X175557143Y-109492857D01*
X175414285Y-109635714D01*
X175271428Y-109707143D01*
X176771428Y-110635714D02*
X176842856Y-110707143D01*
X176771428Y-110778571D01*
X176699999Y-110707143D01*
X176771428Y-110635714D01*
X176771428Y-110778571D01*
X177771428Y-109278571D02*
X177914285Y-109278571D01*
X178057142Y-109350000D01*
X178128571Y-109421429D01*
X178200000Y-109564286D01*
X178271428Y-109850000D01*
X178271428Y-110207143D01*
X178200000Y-110492857D01*
X178128571Y-110635714D01*
X178057142Y-110707143D01*
X177914285Y-110778571D01*
X177771428Y-110778571D01*
X177628571Y-110707143D01*
X177557142Y-110635714D01*
X177485714Y-110492857D01*
X177414285Y-110207143D01*
X177414285Y-109850000D01*
X177485714Y-109564286D01*
X177557142Y-109421429D01*
X177628571Y-109350000D01*
X177771428Y-109278571D01*
X178914285Y-110635714D02*
X178985713Y-110707143D01*
X178914285Y-110778571D01*
X178842856Y-110707143D01*
X178914285Y-110635714D01*
X178914285Y-110778571D01*
X179914285Y-109278571D02*
X180057142Y-109278571D01*
X180199999Y-109350000D01*
X180271428Y-109421429D01*
X180342857Y-109564286D01*
X180414285Y-109850000D01*
X180414285Y-110207143D01*
X180342857Y-110492857D01*
X180271428Y-110635714D01*
X180199999Y-110707143D01*
X180057142Y-110778571D01*
X179914285Y-110778571D01*
X179771428Y-110707143D01*
X179699999Y-110635714D01*
X179628571Y-110492857D01*
X179557142Y-110207143D01*
X179557142Y-109850000D01*
X179628571Y-109564286D01*
X179699999Y-109421429D01*
X179771428Y-109350000D01*
X179914285Y-109278571D01*
D10*
D11*
X84485714Y-110707143D02*
X84700000Y-110778571D01*
X85057143Y-110778571D01*
X85200000Y-110707143D01*
X85271429Y-110635714D01*
X85342857Y-110492857D01*
X85342857Y-110350000D01*
X85271429Y-110207143D01*
X85200000Y-110135714D01*
X85057143Y-110064286D01*
X84771429Y-109992857D01*
X84628571Y-109921429D01*
X84557143Y-109850000D01*
X84485714Y-109707143D01*
X84485714Y-109564286D01*
X84557143Y-109421429D01*
X84628571Y-109350000D01*
X84771429Y-109278571D01*
X85128571Y-109278571D01*
X85342857Y-109350000D01*
X85985714Y-110778571D02*
X85985714Y-109778571D01*
X85985714Y-109278571D02*
X85914285Y-109350000D01*
X85985714Y-109421429D01*
X86057142Y-109350000D01*
X85985714Y-109278571D01*
X85985714Y-109421429D01*
X86557143Y-109778571D02*
X87342857Y-109778571D01*
X86557143Y-110778571D01*
X87342857Y-110778571D01*
X88485714Y-110707143D02*
X88342857Y-110778571D01*
X88057143Y-110778571D01*
X87914286Y-110707143D01*
X87842857Y-110564286D01*
X87842857Y-109992857D01*
X87914286Y-109850000D01*
X88057143Y-109778571D01*
X88342857Y-109778571D01*
X88485714Y-109850000D01*
X88557143Y-109992857D01*
X88557143Y-110135714D01*
X87842857Y-110278571D01*
X89200000Y-110635714D02*
X89271428Y-110707143D01*
X89200000Y-110778571D01*
X89128571Y-110707143D01*
X89200000Y-110635714D01*
X89200000Y-110778571D01*
X89200000Y-109850000D02*
X89271428Y-109921429D01*
X89200000Y-109992857D01*
X89128571Y-109921429D01*
X89200000Y-109850000D01*
X89200000Y-109992857D01*
X91057143Y-109278571D02*
X91057143Y-110492857D01*
X91128571Y-110635714D01*
X91200000Y-110707143D01*
X91342857Y-110778571D01*
X91628571Y-110778571D01*
X91771429Y-110707143D01*
X91842857Y-110635714D01*
X91914286Y-110492857D01*
X91914286Y-109278571D01*
X92557143Y-110707143D02*
X92700000Y-110778571D01*
X92985715Y-110778571D01*
X93128572Y-110707143D01*
X93200000Y-110564286D01*
X93200000Y-110492857D01*
X93128572Y-110350000D01*
X92985715Y-110278571D01*
X92771429Y-110278571D01*
X92628572Y-110207143D01*
X92557143Y-110064286D01*
X92557143Y-109992857D01*
X92628572Y-109850000D01*
X92771429Y-109778571D01*
X92985715Y-109778571D01*
X93128572Y-109850000D01*
X94414286Y-110707143D02*
X94271429Y-110778571D01*
X93985715Y-110778571D01*
X93842858Y-110707143D01*
X93771429Y-110564286D01*
X93771429Y-109992857D01*
X93842858Y-109850000D01*
X93985715Y-109778571D01*
X94271429Y-109778571D01*
X94414286Y-109850000D01*
X94485715Y-109992857D01*
X94485715Y-110135714D01*
X93771429Y-110278571D01*
X95128572Y-110778571D02*
X95128572Y-109778571D01*
X95128572Y-110064286D02*
X95200000Y-109921429D01*
X95271429Y-109850000D01*
X95414286Y-109778571D01*
X95557143Y-109778571D01*
D10*
D11*
X169557143Y-113578571D02*
X169557143Y-112078571D01*
X170914286Y-113578571D02*
X170914286Y-112078571D01*
X170914286Y-113507143D02*
X170771429Y-113578571D01*
X170485715Y-113578571D01*
X170342857Y-113507143D01*
X170271429Y-113435714D01*
X170200000Y-113292857D01*
X170200000Y-112864286D01*
X170271429Y-112721429D01*
X170342857Y-112650000D01*
X170485715Y-112578571D01*
X170771429Y-112578571D01*
X170914286Y-112650000D01*
X171628572Y-113435714D02*
X171700000Y-113507143D01*
X171628572Y-113578571D01*
X171557143Y-113507143D01*
X171628572Y-113435714D01*
X171628572Y-113578571D01*
X171628572Y-112650000D02*
X171700000Y-112721429D01*
X171628572Y-112792857D01*
X171557143Y-112721429D01*
X171628572Y-112650000D01*
X171628572Y-112792857D01*
X174271429Y-113578571D02*
X173414286Y-113578571D01*
X173842858Y-113578571D02*
X173842858Y-112078571D01*
X173700001Y-112292857D01*
X173557143Y-112435714D01*
X173414286Y-112507143D01*
X175985714Y-112007143D02*
X174700000Y-113935714D01*
X177271429Y-113578571D02*
X176414286Y-113578571D01*
X176842858Y-113578571D02*
X176842858Y-112078571D01*
X176700001Y-112292857D01*
X176557143Y-112435714D01*
X176414286Y-112507143D01*
D10*
D11*
X83200000Y-104500000D02*
X191200000Y-104500000D01*
D10*
D13*
X84652381Y-105204762D02*
X85795238Y-105204762D01*
X84973810Y-107204762D02*
X85223810Y-105204762D01*
X86211905Y-107204762D02*
X86378571Y-105871429D01*
X86461905Y-105204762D02*
X86354762Y-105300000D01*
X86438095Y-105395238D01*
X86545239Y-105300000D01*
X86461905Y-105204762D01*
X86438095Y-105395238D01*
X87045238Y-105871429D02*
X87807143Y-105871429D01*
X87414286Y-105204762D02*
X87200000Y-106919048D01*
X87271430Y-107109524D01*
X87450001Y-107204762D01*
X87640477Y-107204762D01*
X88592858Y-107204762D02*
X88414287Y-107109524D01*
X88342857Y-106919048D01*
X88557143Y-105204762D01*
X90128572Y-107109524D02*
X89926191Y-107204762D01*
X89545239Y-107204762D01*
X89366667Y-107109524D01*
X89295238Y-106919048D01*
X89390476Y-106157143D01*
X89509524Y-105966667D01*
X89711905Y-105871429D01*
X90092857Y-105871429D01*
X90271429Y-105966667D01*
X90342857Y-106157143D01*
X90319048Y-106347619D01*
X89342857Y-106538095D01*
X91092857Y-107014286D02*
X91176192Y-107109524D01*
X91069048Y-107204762D01*
X90985715Y-107109524D01*
X91092857Y-107014286D01*
X91069048Y-107204762D01*
X91223810Y-105966667D02*
X91307144Y-106061905D01*
X91200000Y-106157143D01*
X91116667Y-106061905D01*
X91223810Y-105966667D01*
X91200000Y-106157143D01*
X93676191Y-106157143D02*
X94342858Y-106157143D01*
X94497620Y-107204762D02*
X93545239Y-107204762D01*
X93795239Y-105204762D01*
X94747620Y-105204762D01*
X95521429Y-105871429D02*
X95354763Y-107204762D01*
X95497620Y-106061905D02*
X95604764Y-105966667D01*
X95807144Y-105871429D01*
X96092858Y-105871429D01*
X96271430Y-105966667D01*
X96342858Y-106157143D01*
X96211906Y-107204762D01*
X98021430Y-107204762D02*
X98152382Y-106157143D01*
X98080954Y-105966667D01*
X97902382Y-105871429D01*
X97521430Y-105871429D01*
X97319049Y-105966667D01*
X98033335Y-107109524D02*
X97830954Y-107204762D01*
X97354764Y-107204762D01*
X97176192Y-107109524D01*
X97104763Y-106919048D01*
X97128573Y-106728571D01*
X97247620Y-106538095D01*
X97450002Y-106442857D01*
X97926192Y-106442857D01*
X98128573Y-106347619D01*
X98973811Y-107204762D02*
X99223811Y-105204762D01*
X99128573Y-105966667D02*
X99330954Y-105871429D01*
X99711906Y-105871429D01*
X99890478Y-105966667D01*
X99973811Y-106061905D01*
X100045239Y-106252381D01*
X99973811Y-106823810D01*
X99854763Y-107014286D01*
X99747621Y-107109524D01*
X99545240Y-107204762D01*
X99164288Y-107204762D01*
X98985716Y-107109524D01*
X101069050Y-107204762D02*
X100890479Y-107109524D01*
X100819049Y-106919048D01*
X101033335Y-105204762D01*
X102604764Y-107109524D02*
X102402383Y-107204762D01*
X102021431Y-107204762D01*
X101842859Y-107109524D01*
X101771430Y-106919048D01*
X101866668Y-106157143D01*
X101985716Y-105966667D01*
X102188097Y-105871429D01*
X102569049Y-105871429D01*
X102747621Y-105966667D01*
X102819049Y-106157143D01*
X102795240Y-106347619D01*
X101819049Y-106538095D01*
X105235717Y-105109524D02*
X103200002Y-107680952D01*
X105640478Y-107204762D02*
X105890478Y-105204762D01*
X106366669Y-105204762D01*
X106640478Y-105300000D01*
X106807145Y-105490476D01*
X106878574Y-105680952D01*
X106926193Y-106061905D01*
X106890479Y-106347619D01*
X106747622Y-106728571D01*
X106628573Y-106919048D01*
X106414288Y-107109524D01*
X106116669Y-107204762D01*
X105640478Y-107204762D01*
X107640478Y-107204762D02*
X107807144Y-105871429D01*
X107890478Y-105204762D02*
X107783335Y-105300000D01*
X107866668Y-105395238D01*
X107973812Y-105300000D01*
X107890478Y-105204762D01*
X107866668Y-105395238D01*
X109450002Y-107204762D02*
X109580954Y-106157143D01*
X109509526Y-105966667D01*
X109330954Y-105871429D01*
X108950002Y-105871429D01*
X108747621Y-105966667D01*
X109461907Y-107109524D02*
X109259526Y-107204762D01*
X108783336Y-107204762D01*
X108604764Y-107109524D01*
X108533335Y-106919048D01*
X108557145Y-106728571D01*
X108676192Y-106538095D01*
X108878574Y-106442857D01*
X109354764Y-106442857D01*
X109557145Y-106347619D01*
X110402383Y-107204762D02*
X110652383Y-105204762D01*
X110557145Y-105966667D02*
X110759526Y-105871429D01*
X111140478Y-105871429D01*
X111319050Y-105966667D01*
X111402383Y-106061905D01*
X111473811Y-106252381D01*
X111402383Y-106823810D01*
X111283335Y-107014286D01*
X111176193Y-107109524D01*
X110973812Y-107204762D01*
X110592860Y-107204762D01*
X110414288Y-107109524D01*
X112497622Y-107204762D02*
X112319051Y-107109524D01*
X112247621Y-106919048D01*
X112461907Y-105204762D01*
X114033336Y-107109524D02*
X113830955Y-107204762D01*
X113450003Y-107204762D01*
X113271431Y-107109524D01*
X113200002Y-106919048D01*
X113295240Y-106157143D01*
X113414288Y-105966667D01*
X113616669Y-105871429D01*
X113997621Y-105871429D01*
X114176193Y-105966667D01*
X114247621Y-106157143D01*
X114223812Y-106347619D01*
X113247621Y-106538095D01*
X116414289Y-107109524D02*
X116592861Y-107204762D01*
X116973813Y-107204762D01*
X117176194Y-107109524D01*
X117295241Y-106919048D01*
X117307146Y-106823810D01*
X117235717Y-106633333D01*
X117057146Y-106538095D01*
X116771432Y-106538095D01*
X116592860Y-106442857D01*
X116521431Y-106252381D01*
X116533336Y-106157143D01*
X116652384Y-105966667D01*
X116854765Y-105871429D01*
X117140479Y-105871429D01*
X117319051Y-105966667D01*
X118092860Y-105871429D02*
X118307147Y-107204762D01*
X118807146Y-106252381D01*
X119069051Y-107204762D01*
X119616670Y-105871429D01*
X120211908Y-107204762D02*
X120378574Y-105871429D01*
X120461908Y-105204762D02*
X120354765Y-105300000D01*
X120438098Y-105395238D01*
X120545242Y-105300000D01*
X120461908Y-105204762D01*
X120438098Y-105395238D01*
X121045241Y-105871429D02*
X121807146Y-105871429D01*
X121414289Y-105204762D02*
X121200003Y-106919048D01*
X121271433Y-107109524D01*
X121450004Y-107204762D01*
X121640480Y-107204762D01*
X123176194Y-107109524D02*
X122973813Y-107204762D01*
X122592861Y-107204762D01*
X122414290Y-107109524D01*
X122330955Y-107014286D01*
X122259527Y-106823810D01*
X122330955Y-106252381D01*
X122450003Y-106061905D01*
X122557147Y-105966667D01*
X122759527Y-105871429D01*
X123140479Y-105871429D01*
X123319051Y-105966667D01*
X124021432Y-107204762D02*
X124271432Y-105204762D01*
X124878575Y-107204762D02*
X125009527Y-106157143D01*
X124938099Y-105966667D01*
X124759527Y-105871429D01*
X124473813Y-105871429D01*
X124271433Y-105966667D01*
X124164289Y-106061905D01*
X127235718Y-105871429D02*
X127997623Y-105871429D01*
X127354766Y-107204762D02*
X127569052Y-105490476D01*
X127688100Y-105300000D01*
X127890481Y-105204762D01*
X128080957Y-105204762D01*
X128783338Y-107204762D02*
X128604767Y-107109524D01*
X128521432Y-107014286D01*
X128450004Y-106823810D01*
X128521432Y-106252381D01*
X128640480Y-106061905D01*
X128747624Y-105966667D01*
X128950004Y-105871429D01*
X129235718Y-105871429D01*
X129414290Y-105966667D01*
X129497623Y-106061905D01*
X129569051Y-106252381D01*
X129497623Y-106823810D01*
X129378575Y-107014286D01*
X129271433Y-107109524D01*
X129069052Y-107204762D01*
X128783338Y-107204762D01*
X130307147Y-107204762D02*
X130473813Y-105871429D01*
X130426194Y-106252381D02*
X130545243Y-106061905D01*
X130652386Y-105966667D01*
X130854766Y-105871429D01*
X131045242Y-105871429D01*
X133045242Y-106633333D02*
X133997623Y-106633333D01*
X132783338Y-107204762D02*
X133700005Y-105204762D01*
X134116672Y-107204762D01*
X135640481Y-107204762D02*
X135890481Y-105204762D01*
X135652386Y-107109524D02*
X135450005Y-107204762D01*
X135069053Y-107204762D01*
X134890482Y-107109524D01*
X134807147Y-107014286D01*
X134735719Y-106823810D01*
X134807147Y-106252381D01*
X134926195Y-106061905D01*
X135033339Y-105966667D01*
X135235719Y-105871429D01*
X135616671Y-105871429D01*
X135795243Y-105966667D01*
X137450005Y-107204762D02*
X137580957Y-106157143D01*
X137509529Y-105966667D01*
X137330957Y-105871429D01*
X136950005Y-105871429D01*
X136747624Y-105966667D01*
X137461910Y-107109524D02*
X137259529Y-107204762D01*
X136783339Y-107204762D01*
X136604767Y-107109524D01*
X136533338Y-106919048D01*
X136557148Y-106728571D01*
X136676195Y-106538095D01*
X136878577Y-106442857D01*
X137354767Y-106442857D01*
X137557148Y-106347619D01*
X139200005Y-106157143D02*
X138533338Y-106157143D01*
X138402386Y-107204762D02*
X138652386Y-105204762D01*
X139604767Y-105204762D01*
X140116672Y-107204762D02*
X140283338Y-105871429D01*
X140235719Y-106252381D02*
X140354768Y-106061905D01*
X140461911Y-105966667D01*
X140664291Y-105871429D01*
X140854767Y-105871429D01*
X142378576Y-105871429D02*
X142211910Y-107204762D01*
X141521433Y-105871429D02*
X141390481Y-106919048D01*
X141461911Y-107109524D01*
X141640482Y-107204762D01*
X141926196Y-107204762D01*
X142128577Y-107109524D01*
X142235719Y-107014286D01*
X143164291Y-107204762D02*
X143330957Y-105871429D01*
X143414291Y-105204762D02*
X143307148Y-105300000D01*
X143390481Y-105395238D01*
X143497625Y-105300000D01*
X143414291Y-105204762D01*
X143390481Y-105395238D01*
X143997624Y-105871429D02*
X144759529Y-105871429D01*
X144366672Y-105204762D02*
X144152386Y-106919048D01*
X144223816Y-107109524D01*
X144402387Y-107204762D01*
X144592863Y-107204762D01*
X147580958Y-106157143D02*
X146914291Y-106157143D01*
X146783339Y-107204762D02*
X147033339Y-105204762D01*
X147985720Y-105204762D01*
X149271435Y-107109524D02*
X149069054Y-107204762D01*
X148688102Y-107204762D01*
X148509530Y-107109524D01*
X148438101Y-106919048D01*
X148533339Y-106157143D01*
X148652387Y-105966667D01*
X148854768Y-105871429D01*
X149235720Y-105871429D01*
X149414292Y-105966667D01*
X149485720Y-106157143D01*
X149461911Y-106347619D01*
X148485720Y-106538095D01*
X151069054Y-107204762D02*
X151200006Y-106157143D01*
X151128578Y-105966667D01*
X150950006Y-105871429D01*
X150569054Y-105871429D01*
X150366673Y-105966667D01*
X151080959Y-107109524D02*
X150878578Y-107204762D01*
X150402388Y-107204762D01*
X150223816Y-107109524D01*
X150152387Y-106919048D01*
X150176197Y-106728571D01*
X150295244Y-106538095D01*
X150497626Y-106442857D01*
X150973816Y-106442857D01*
X151176197Y-106347619D01*
X151902387Y-105871429D02*
X152664292Y-105871429D01*
X152271435Y-105204762D02*
X152057149Y-106919048D01*
X152128579Y-107109524D01*
X152307150Y-107204762D01*
X152497626Y-107204762D01*
X153164292Y-107204762D02*
X153414292Y-105204762D01*
X154021435Y-107204762D02*
X154152387Y-106157143D01*
X154080959Y-105966667D01*
X153902387Y-105871429D01*
X153616673Y-105871429D01*
X153414293Y-105966667D01*
X153307149Y-106061905D01*
X155747626Y-107109524D02*
X155545245Y-107204762D01*
X155164293Y-107204762D01*
X154985721Y-107109524D01*
X154914292Y-106919048D01*
X155009530Y-106157143D01*
X155128578Y-105966667D01*
X155330959Y-105871429D01*
X155711911Y-105871429D01*
X155890483Y-105966667D01*
X155961911Y-106157143D01*
X155938102Y-106347619D01*
X154961911Y-106538095D01*
X156688102Y-107204762D02*
X156854768Y-105871429D01*
X156807149Y-106252381D02*
X156926198Y-106061905D01*
X157033341Y-105966667D01*
X157235721Y-105871429D01*
X157426197Y-105871429D01*
X159450007Y-107204762D02*
X159700007Y-105204762D01*
X159604769Y-105966667D02*
X159807150Y-105871429D01*
X160188102Y-105871429D01*
X160366674Y-105966667D01*
X160450007Y-106061905D01*
X160521435Y-106252381D01*
X160450007Y-106823810D01*
X160330959Y-107014286D01*
X160223817Y-107109524D01*
X160021436Y-107204762D01*
X159640484Y-107204762D01*
X159461912Y-107109524D01*
X161545246Y-107204762D02*
X161366675Y-107109524D01*
X161283340Y-107014286D01*
X161211912Y-106823810D01*
X161283340Y-106252381D01*
X161402388Y-106061905D01*
X161509532Y-105966667D01*
X161711912Y-105871429D01*
X161997626Y-105871429D01*
X162176198Y-105966667D01*
X162259531Y-106061905D01*
X162330959Y-106252381D01*
X162259531Y-106823810D01*
X162140483Y-107014286D01*
X162033341Y-107109524D01*
X161830960Y-107204762D01*
X161545246Y-107204762D01*
X163926198Y-107204762D02*
X164057150Y-106157143D01*
X163985722Y-105966667D01*
X163807150Y-105871429D01*
X163426198Y-105871429D01*
X163223817Y-105966667D01*
X163938103Y-107109524D02*
X163735722Y-107204762D01*
X163259532Y-107204762D01*
X163080960Y-107109524D01*
X163009531Y-106919048D01*
X163033341Y-106728571D01*
X163152388Y-106538095D01*
X163354770Y-106442857D01*
X163830960Y-106442857D01*
X164033341Y-106347619D01*
X164878579Y-107204762D02*
X165045245Y-105871429D01*
X164997626Y-106252381D02*
X165116675Y-106061905D01*
X165223818Y-105966667D01*
X165426198Y-105871429D01*
X165616674Y-105871429D01*
X166973817Y-107204762D02*
X167223817Y-105204762D01*
X166985722Y-107109524D02*
X166783341Y-107204762D01*
X166402389Y-107204762D01*
X166223818Y-107109524D01*
X166140483Y-107014286D01*
X166069055Y-106823810D01*
X166140483Y-106252381D01*
X166259531Y-106061905D01*
X166366675Y-105966667D01*
X166569055Y-105871429D01*
X166950007Y-105871429D01*
X167128579Y-105966667D01*
X167842865Y-107109524D02*
X168021437Y-107204762D01*
X168402389Y-107204762D01*
X168604770Y-107109524D01*
X168723817Y-106919048D01*
X168735722Y-106823810D01*
X168664293Y-106633333D01*
X168485722Y-106538095D01*
X168200008Y-106538095D01*
X168021436Y-106442857D01*
X167950007Y-106252381D01*
X167961912Y-106157143D01*
X168080960Y-105966667D01*
X168283341Y-105871429D01*
X168569055Y-105871429D01*
X168747627Y-105966667D01*
D10*
D11*
X85057143Y-102592857D02*
X84557143Y-102592857D01*
X84557143Y-103378571D02*
X84557143Y-101878571D01*
X85271429Y-101878571D01*
X85842857Y-103378571D02*
X85842857Y-102378571D01*
X85842857Y-101878571D02*
X85771428Y-101950000D01*
X85842857Y-102021429D01*
X85914285Y-101950000D01*
X85842857Y-101878571D01*
X85842857Y-102021429D01*
X86771429Y-103378571D02*
X86628571Y-103307143D01*
X86557143Y-103164286D01*
X86557143Y-101878571D01*
X87914285Y-103307143D02*
X87771428Y-103378571D01*
X87485714Y-103378571D01*
X87342857Y-103307143D01*
X87271428Y-103164286D01*
X87271428Y-102592857D01*
X87342857Y-102450000D01*
X87485714Y-102378571D01*
X87771428Y-102378571D01*
X87914285Y-102450000D01*
X87985714Y-102592857D01*
X87985714Y-102735714D01*
X87271428Y-102878571D01*
X88628571Y-103235714D02*
X88699999Y-103307143D01*
X88628571Y-103378571D01*
X88557142Y-103307143D01*
X88628571Y-103235714D01*
X88628571Y-103378571D01*
X88628571Y-102450000D02*
X88699999Y-102521429D01*
X88628571Y-102592857D01*
X88557142Y-102521429D01*
X88628571Y-102450000D01*
X88628571Y-102592857D01*
X90985714Y-102592857D02*
X90485714Y-102592857D01*
X90485714Y-103378571D02*
X90485714Y-101878571D01*
X91200000Y-101878571D01*
X92342856Y-103307143D02*
X92199999Y-103378571D01*
X91914285Y-103378571D01*
X91771428Y-103307143D01*
X91699999Y-103164286D01*
X91699999Y-102592857D01*
X91771428Y-102450000D01*
X91914285Y-102378571D01*
X92199999Y-102378571D01*
X92342856Y-102450000D01*
X92414285Y-102592857D01*
X92414285Y-102735714D01*
X91699999Y-102878571D01*
X93699999Y-103378571D02*
X93699999Y-102592857D01*
X93628570Y-102450000D01*
X93485713Y-102378571D01*
X93199999Y-102378571D01*
X93057142Y-102450000D01*
X93699999Y-103307143D02*
X93557142Y-103378571D01*
X93199999Y-103378571D01*
X93057142Y-103307143D01*
X92985713Y-103164286D01*
X92985713Y-103021429D01*
X93057142Y-102878571D01*
X93199999Y-102807143D01*
X93557142Y-102807143D01*
X93699999Y-102735714D01*
X94199999Y-102378571D02*
X94771428Y-102378571D01*
X94414285Y-101878571D02*
X94414285Y-103164286D01*
X94485713Y-103307143D01*
X94628571Y-103378571D01*
X94771428Y-103378571D01*
X95271428Y-103378571D02*
X95271428Y-101878571D01*
X95914285Y-103378571D02*
X95914285Y-102592857D01*
X95842856Y-102450000D01*
X95699999Y-102378571D01*
X95485714Y-102378571D01*
X95342856Y-102450000D01*
X95271428Y-102521429D01*
X97199999Y-103307143D02*
X97057142Y-103378571D01*
X96771428Y-103378571D01*
X96628571Y-103307143D01*
X96557142Y-103164286D01*
X96557142Y-102592857D01*
X96628571Y-102450000D01*
X96771428Y-102378571D01*
X97057142Y-102378571D01*
X97199999Y-102450000D01*
X97271428Y-102592857D01*
X97271428Y-102735714D01*
X96557142Y-102878571D01*
X97914285Y-103378571D02*
X97914285Y-102378571D01*
X97914285Y-102664286D02*
X97985713Y-102521429D01*
X98057142Y-102450000D01*
X98199999Y-102378571D01*
X98342856Y-102378571D01*
X98771427Y-103307143D02*
X98985713Y-103378571D01*
X99342856Y-103378571D01*
X99485713Y-103307143D01*
X99557142Y-103235714D01*
X99628570Y-103092857D01*
X99628570Y-102950000D01*
X99557142Y-102807143D01*
X99485713Y-102735714D01*
X99342856Y-102664286D01*
X99057142Y-102592857D01*
X98914284Y-102521429D01*
X98842856Y-102450000D01*
X98771427Y-102307143D01*
X98771427Y-102164286D01*
X98842856Y-102021429D01*
X98914284Y-101950000D01*
X99057142Y-101878571D01*
X99414284Y-101878571D01*
X99628570Y-101950000D01*
X100128570Y-102378571D02*
X100414284Y-103378571D01*
X100699998Y-102664286D01*
X100985713Y-103378571D01*
X101271427Y-102378571D01*
X101842856Y-103378571D02*
X101842856Y-102378571D01*
X101842856Y-101878571D02*
X101771427Y-101950000D01*
X101842856Y-102021429D01*
X101914284Y-101950000D01*
X101842856Y-101878571D01*
X101842856Y-102021429D01*
X102342856Y-102378571D02*
X102914285Y-102378571D01*
X102557142Y-101878571D02*
X102557142Y-103164286D01*
X102628570Y-103307143D01*
X102771428Y-103378571D01*
X102914285Y-103378571D01*
X104057142Y-103307143D02*
X103914285Y-103378571D01*
X103628571Y-103378571D01*
X103485713Y-103307143D01*
X103414285Y-103235714D01*
X103342856Y-103092857D01*
X103342856Y-102664286D01*
X103414285Y-102521429D01*
X103485713Y-102450000D01*
X103628571Y-102378571D01*
X103914285Y-102378571D01*
X104057142Y-102450000D01*
X104699999Y-103378571D02*
X104699999Y-101878571D01*
X105342856Y-103378571D02*
X105342856Y-102592857D01*
X105271427Y-102450000D01*
X105128570Y-102378571D01*
X104914285Y-102378571D01*
X104771427Y-102450000D01*
X104699999Y-102521429D01*
X107199999Y-102807143D02*
X108342856Y-102807143D01*
X110057142Y-102378571D02*
X110414285Y-103378571D01*
X110771427Y-102378571D01*
X112128570Y-103378571D02*
X111271427Y-103378571D01*
X111699999Y-103378571D02*
X111699999Y-101878571D01*
X111557142Y-102092857D01*
X111414284Y-102235714D01*
X111271427Y-102307143D01*
X112771427Y-103235714D02*
X112842855Y-103307143D01*
X112771427Y-103378571D01*
X112699998Y-103307143D01*
X112771427Y-103235714D01*
X112771427Y-103378571D01*
X113771427Y-101878571D02*
X113914284Y-101878571D01*
X114057141Y-101950000D01*
X114128570Y-102021429D01*
X114199999Y-102164286D01*
X114271427Y-102450000D01*
X114271427Y-102807143D01*
X114199999Y-103092857D01*
X114128570Y-103235714D01*
X114057141Y-103307143D01*
X113914284Y-103378571D01*
X113771427Y-103378571D01*
X113628570Y-103307143D01*
X113557141Y-103235714D01*
X113485713Y-103092857D01*
X113414284Y-102807143D01*
X113414284Y-102450000D01*
X113485713Y-102164286D01*
X113557141Y-102021429D01*
X113628570Y-101950000D01*
X113771427Y-101878571D01*
X114914284Y-103235714D02*
X114985712Y-103307143D01*
X114914284Y-103378571D01*
X114842855Y-103307143D01*
X114914284Y-103235714D01*
X114914284Y-103378571D01*
X115914284Y-101878571D02*
X116057141Y-101878571D01*
X116199998Y-101950000D01*
X116271427Y-102021429D01*
X116342856Y-102164286D01*
X116414284Y-102450000D01*
X116414284Y-102807143D01*
X116342856Y-103092857D01*
X116271427Y-103235714D01*
X116199998Y-103307143D01*
X116057141Y-103378571D01*
X115914284Y-103378571D01*
X115771427Y-103307143D01*
X115699998Y-103235714D01*
X115628570Y-103092857D01*
X115557141Y-102807143D01*
X115557141Y-102450000D01*
X115628570Y-102164286D01*
X115699998Y-102021429D01*
X115771427Y-101950000D01*
X115914284Y-101878571D01*
X117057141Y-103235714D02*
X117128569Y-103307143D01*
X117057141Y-103378571D01*
X116985712Y-103307143D01*
X117057141Y-103235714D01*
X117057141Y-103378571D01*
X117771427Y-103378571D02*
X117771427Y-101878571D01*
X117914284Y-102807143D02*
X118342855Y-103378571D01*
X118342855Y-102378571D02*
X117771427Y-102950000D01*
X118985713Y-103378571D02*
X118985713Y-102378571D01*
X118985713Y-101878571D02*
X118914284Y-101950000D01*
X118985713Y-102021429D01*
X119057141Y-101950000D01*
X118985713Y-101878571D01*
X118985713Y-102021429D01*
X120342856Y-103307143D02*
X120199999Y-103378571D01*
X119914285Y-103378571D01*
X119771427Y-103307143D01*
X119699999Y-103235714D01*
X119628570Y-103092857D01*
X119628570Y-102664286D01*
X119699999Y-102521429D01*
X119771427Y-102450000D01*
X119914285Y-102378571D01*
X120199999Y-102378571D01*
X120342856Y-102450000D01*
X121628570Y-103378571D02*
X121628570Y-102592857D01*
X121557141Y-102450000D01*
X121414284Y-102378571D01*
X121128570Y-102378571D01*
X120985713Y-102450000D01*
X121628570Y-103307143D02*
X121485713Y-103378571D01*
X121128570Y-103378571D01*
X120985713Y-103307143D01*
X120914284Y-103164286D01*
X120914284Y-103021429D01*
X120985713Y-102878571D01*
X121128570Y-102807143D01*
X121485713Y-102807143D01*
X121628570Y-102735714D01*
X122985713Y-103378571D02*
X122985713Y-101878571D01*
X122985713Y-103307143D02*
X122842856Y-103378571D01*
X122557142Y-103378571D01*
X122414284Y-103307143D01*
X122342856Y-103235714D01*
X122271427Y-103092857D01*
X122271427Y-102664286D01*
X122342856Y-102521429D01*
X122414284Y-102450000D01*
X122557142Y-102378571D01*
X122842856Y-102378571D01*
X122985713Y-102450000D01*
X123342856Y-103521429D02*
X124485713Y-103521429D01*
X124842856Y-102378571D02*
X124842856Y-103878571D01*
X124842856Y-102450000D02*
X124985713Y-102378571D01*
X125271427Y-102378571D01*
X125414284Y-102450000D01*
X125485713Y-102521429D01*
X125557142Y-102664286D01*
X125557142Y-103092857D01*
X125485713Y-103235714D01*
X125414284Y-103307143D01*
X125271427Y-103378571D01*
X124985713Y-103378571D01*
X124842856Y-103307143D01*
X126842856Y-103307143D02*
X126699999Y-103378571D01*
X126414285Y-103378571D01*
X126271427Y-103307143D01*
X126199999Y-103235714D01*
X126128570Y-103092857D01*
X126128570Y-102664286D01*
X126199999Y-102521429D01*
X126271427Y-102450000D01*
X126414285Y-102378571D01*
X126699999Y-102378571D01*
X126842856Y-102450000D01*
X127485713Y-103378571D02*
X127485713Y-101878571D01*
X127485713Y-102450000D02*
X127628570Y-102378571D01*
X127914284Y-102378571D01*
X128057141Y-102450000D01*
X128128570Y-102521429D01*
X128199999Y-102664286D01*
X128199999Y-103092857D01*
X128128570Y-103235714D01*
X128057141Y-103307143D01*
X127914284Y-103378571D01*
X127628570Y-103378571D01*
X127485713Y-103307143D01*
D10*
D11*
X83200000Y-98500000D02*
X191200000Y-98500000D01*
D10*
D11*
X84485714Y-100607143D02*
X84700000Y-100678571D01*
X85057143Y-100678571D01*
X85200000Y-100607143D01*
X85271429Y-100535714D01*
X85342857Y-100392857D01*
X85342857Y-100250000D01*
X85271429Y-100107143D01*
X85200000Y-100035714D01*
X85057143Y-99964286D01*
X84771429Y-99892857D01*
X84628571Y-99821429D01*
X84557143Y-99750000D01*
X84485714Y-99607143D01*
X84485714Y-99464286D01*
X84557143Y-99321429D01*
X84628571Y-99250000D01*
X84771429Y-99178571D01*
X85128571Y-99178571D01*
X85342857Y-99250000D01*
X85985714Y-100678571D02*
X85985714Y-99178571D01*
X86628571Y-100678571D02*
X86628571Y-99892857D01*
X86557142Y-99750000D01*
X86414285Y-99678571D01*
X86200000Y-99678571D01*
X86057142Y-99750000D01*
X85985714Y-99821429D01*
X87914285Y-100607143D02*
X87771428Y-100678571D01*
X87485714Y-100678571D01*
X87342857Y-100607143D01*
X87271428Y-100464286D01*
X87271428Y-99892857D01*
X87342857Y-99750000D01*
X87485714Y-99678571D01*
X87771428Y-99678571D01*
X87914285Y-99750000D01*
X87985714Y-99892857D01*
X87985714Y-100035714D01*
X87271428Y-100178571D01*
X89199999Y-100607143D02*
X89057142Y-100678571D01*
X88771428Y-100678571D01*
X88628571Y-100607143D01*
X88557142Y-100464286D01*
X88557142Y-99892857D01*
X88628571Y-99750000D01*
X88771428Y-99678571D01*
X89057142Y-99678571D01*
X89199999Y-99750000D01*
X89271428Y-99892857D01*
X89271428Y-100035714D01*
X88557142Y-100178571D01*
X89699999Y-99678571D02*
X90271428Y-99678571D01*
X89914285Y-99178571D02*
X89914285Y-100464286D01*
X89985713Y-100607143D01*
X90128571Y-100678571D01*
X90271428Y-100678571D01*
X90771428Y-100535714D02*
X90842856Y-100607143D01*
X90771428Y-100678571D01*
X90699999Y-100607143D01*
X90771428Y-100535714D01*
X90771428Y-100678571D01*
X90771428Y-99750000D02*
X90842856Y-99821429D01*
X90771428Y-99892857D01*
X90699999Y-99821429D01*
X90771428Y-99750000D01*
X90771428Y-99892857D01*
D10*
D12*
X84485714Y-97607143D02*
X84700000Y-97678571D01*
X85057143Y-97678571D01*
X85200000Y-97607143D01*
X85271429Y-97535714D01*
X85342857Y-97392857D01*
X85342857Y-97250000D01*
X85271429Y-97107143D01*
X85200000Y-97035714D01*
X85057143Y-96964286D01*
X84771429Y-96892857D01*
X84628571Y-96821429D01*
X84557143Y-96750000D01*
X84485714Y-96607143D01*
X84485714Y-96464286D01*
X84557143Y-96321429D01*
X84628571Y-96250000D01*
X84771429Y-96178571D01*
X85128571Y-96178571D01*
X85342857Y-96250000D01*
X86557142Y-97607143D02*
X86414285Y-97678571D01*
X86128571Y-97678571D01*
X85985714Y-97607143D01*
X85914285Y-97464286D01*
X85914285Y-96892857D01*
X85985714Y-96750000D01*
X86128571Y-96678571D01*
X86414285Y-96678571D01*
X86557142Y-96750000D01*
X86628571Y-96892857D01*
X86628571Y-97035714D01*
X85914285Y-97178571D01*
X87271428Y-97678571D02*
X87271428Y-96678571D01*
X87271428Y-96821429D02*
X87342856Y-96750000D01*
X87485714Y-96678571D01*
X87699999Y-96678571D01*
X87842856Y-96750000D01*
X87914285Y-96892857D01*
X87914285Y-97678571D01*
X87914285Y-96892857D02*
X87985714Y-96750000D01*
X88128571Y-96678571D01*
X88342856Y-96678571D01*
X88485714Y-96750000D01*
X88557142Y-96892857D01*
X88557142Y-97678571D01*
X89271428Y-97678571D02*
X89271428Y-96178571D01*
X89271428Y-96750000D02*
X89414285Y-96678571D01*
X89699999Y-96678571D01*
X89842856Y-96750000D01*
X89914285Y-96821429D01*
X89985714Y-96964286D01*
X89985714Y-97392857D01*
X89914285Y-97535714D01*
X89842856Y-97607143D01*
X89699999Y-97678571D01*
X89414285Y-97678571D01*
X89271428Y-97607143D01*
X91271428Y-97678571D02*
X91271428Y-96892857D01*
X91199999Y-96750000D01*
X91057142Y-96678571D01*
X90771428Y-96678571D01*
X90628571Y-96750000D01*
X91271428Y-97607143D02*
X91128571Y-97678571D01*
X90771428Y-97678571D01*
X90628571Y-97607143D01*
X90557142Y-97464286D01*
X90557142Y-97321429D01*
X90628571Y-97178571D01*
X90771428Y-97107143D01*
X91128571Y-97107143D01*
X91271428Y-97035714D01*
X91842857Y-96678571D02*
X92628571Y-96678571D01*
X91842857Y-97678571D01*
X92628571Y-97678571D01*
X93842857Y-96678571D02*
X93842857Y-97678571D01*
X93200000Y-96678571D02*
X93200000Y-97464286D01*
X93271428Y-97607143D01*
X93414286Y-97678571D01*
X93628571Y-97678571D01*
X93771428Y-97607143D01*
X93842857Y-97535714D01*
X94557143Y-97678571D02*
X94557143Y-96678571D01*
X94557143Y-96964286D02*
X94628571Y-96821429D01*
X94700000Y-96750000D01*
X94842857Y-96678571D01*
X94985714Y-96678571D01*
X96128571Y-96678571D02*
X96128571Y-97678571D01*
X95485714Y-96678571D02*
X95485714Y-97464286D01*
X95557142Y-97607143D01*
X95700000Y-97678571D01*
X95914285Y-97678571D01*
X96057142Y-97607143D01*
X96128571Y-97535714D01*
X98842857Y-97535714D02*
X98771428Y-97607143D01*
X98557142Y-97678571D01*
X98414285Y-97678571D01*
X98200000Y-97607143D01*
X98057142Y-97464286D01*
X97985714Y-97321429D01*
X97914285Y-97035714D01*
X97914285Y-96821429D01*
X97985714Y-96535714D01*
X98057142Y-96392857D01*
X98200000Y-96250000D01*
X98414285Y-96178571D01*
X98557142Y-96178571D01*
X98771428Y-96250000D01*
X98842857Y-96321429D01*
X99485714Y-97678571D02*
X99485714Y-96678571D01*
X99485714Y-96178571D02*
X99414285Y-96250000D01*
X99485714Y-96321429D01*
X99557142Y-96250000D01*
X99485714Y-96178571D01*
X99485714Y-96321429D01*
X100200000Y-97678571D02*
X100200000Y-96678571D01*
X100200000Y-96964286D02*
X100271428Y-96821429D01*
X100342857Y-96750000D01*
X100485714Y-96678571D01*
X100628571Y-96678571D01*
X101771428Y-97607143D02*
X101628571Y-97678571D01*
X101342857Y-97678571D01*
X101199999Y-97607143D01*
X101128571Y-97535714D01*
X101057142Y-97392857D01*
X101057142Y-96964286D01*
X101128571Y-96821429D01*
X101199999Y-96750000D01*
X101342857Y-96678571D01*
X101628571Y-96678571D01*
X101771428Y-96750000D01*
X103057142Y-96678571D02*
X103057142Y-97678571D01*
X102414285Y-96678571D02*
X102414285Y-97464286D01*
X102485713Y-97607143D01*
X102628571Y-97678571D01*
X102842856Y-97678571D01*
X102985713Y-97607143D01*
X103057142Y-97535714D01*
X103771428Y-97678571D02*
X103771428Y-96678571D01*
X103771428Y-96178571D02*
X103699999Y-96250000D01*
X103771428Y-96321429D01*
X103842856Y-96250000D01*
X103771428Y-96178571D01*
X103771428Y-96321429D01*
X104271428Y-96678571D02*
X104842857Y-96678571D01*
X104485714Y-96178571D02*
X104485714Y-97464286D01*
X104557142Y-97607143D01*
X104700000Y-97678571D01*
X104842857Y-97678571D01*
X105271428Y-97607143D02*
X105414285Y-97678571D01*
X105700000Y-97678571D01*
X105842857Y-97607143D01*
X105914285Y-97464286D01*
X105914285Y-97392857D01*
X105842857Y-97250000D01*
X105700000Y-97178571D01*
X105485714Y-97178571D01*
X105342857Y-97107143D01*
X105271428Y-96964286D01*
X105271428Y-96892857D01*
X105342857Y-96750000D01*
X105485714Y-96678571D01*
X105700000Y-96678571D01*
X105842857Y-96750000D01*
D10*
D11*
X84414286Y-93678571D02*
X84771429Y-94678571D01*
X85128571Y-93678571D01*
X86485714Y-94678571D02*
X85628571Y-94678571D01*
X86057143Y-94678571D02*
X86057143Y-93178571D01*
X85914286Y-93392857D01*
X85771428Y-93535714D01*
X85628571Y-93607143D01*
X87128571Y-94535714D02*
X87199999Y-94607143D01*
X87128571Y-94678571D01*
X87057142Y-94607143D01*
X87128571Y-94535714D01*
X87128571Y-94678571D01*
X88128571Y-93178571D02*
X88271428Y-93178571D01*
X88414285Y-93250000D01*
X88485714Y-93321429D01*
X88557143Y-93464286D01*
X88628571Y-93750000D01*
X88628571Y-94107143D01*
X88557143Y-94392857D01*
X88485714Y-94535714D01*
X88414285Y-94607143D01*
X88271428Y-94678571D01*
X88128571Y-94678571D01*
X87985714Y-94607143D01*
X87914285Y-94535714D01*
X87842857Y-94392857D01*
X87771428Y-94107143D01*
X87771428Y-93750000D01*
X87842857Y-93464286D01*
X87914285Y-93321429D01*
X87985714Y-93250000D01*
X88128571Y-93178571D01*
X89271428Y-94535714D02*
X89342856Y-94607143D01*
X89271428Y-94678571D01*
X89199999Y-94607143D01*
X89271428Y-94535714D01*
X89271428Y-94678571D01*
X90271428Y-93178571D02*
X90414285Y-93178571D01*
X90557142Y-93250000D01*
X90628571Y-93321429D01*
X90700000Y-93464286D01*
X90771428Y-93750000D01*
X90771428Y-94107143D01*
X90700000Y-94392857D01*
X90628571Y-94535714D01*
X90557142Y-94607143D01*
X90414285Y-94678571D01*
X90271428Y-94678571D01*
X90128571Y-94607143D01*
X90057142Y-94535714D01*
X89985714Y-94392857D01*
X89914285Y-94107143D01*
X89914285Y-93750000D01*
X89985714Y-93464286D01*
X90057142Y-93321429D01*
X90128571Y-93250000D01*
X90271428Y-93178571D01*
X92557142Y-94107143D02*
X93699999Y-94107143D01*
X95557142Y-94678571D02*
X95557142Y-93178571D01*
X96271428Y-93678571D02*
X96271428Y-94678571D01*
X96271428Y-93821429D02*
X96342856Y-93750000D01*
X96485714Y-93678571D01*
X96699999Y-93678571D01*
X96842856Y-93750000D01*
X96914285Y-93892857D01*
X96914285Y-94678571D01*
X97628571Y-94678571D02*
X97628571Y-93678571D01*
X97628571Y-93178571D02*
X97557142Y-93250000D01*
X97628571Y-93321429D01*
X97699999Y-93250000D01*
X97628571Y-93178571D01*
X97628571Y-93321429D01*
X98128571Y-93678571D02*
X98700000Y-93678571D01*
X98342857Y-93178571D02*
X98342857Y-94464286D01*
X98414285Y-94607143D01*
X98557143Y-94678571D01*
X98700000Y-94678571D01*
X99200000Y-94678571D02*
X99200000Y-93678571D01*
X99200000Y-93178571D02*
X99128571Y-93250000D01*
X99200000Y-93321429D01*
X99271428Y-93250000D01*
X99200000Y-93178571D01*
X99200000Y-93321429D01*
X100557143Y-94678571D02*
X100557143Y-93892857D01*
X100485714Y-93750000D01*
X100342857Y-93678571D01*
X100057143Y-93678571D01*
X99914286Y-93750000D01*
X100557143Y-94607143D02*
X100414286Y-94678571D01*
X100057143Y-94678571D01*
X99914286Y-94607143D01*
X99842857Y-94464286D01*
X99842857Y-94321429D01*
X99914286Y-94178571D01*
X100057143Y-94107143D01*
X100414286Y-94107143D01*
X100557143Y-94035714D01*
X101485715Y-94678571D02*
X101342857Y-94607143D01*
X101271429Y-94464286D01*
X101271429Y-93178571D01*
X103200000Y-94678571D02*
X103200000Y-93678571D01*
X103200000Y-93964286D02*
X103271428Y-93821429D01*
X103342857Y-93750000D01*
X103485714Y-93678571D01*
X103628571Y-93678571D01*
X104699999Y-94607143D02*
X104557142Y-94678571D01*
X104271428Y-94678571D01*
X104128571Y-94607143D01*
X104057142Y-94464286D01*
X104057142Y-93892857D01*
X104128571Y-93750000D01*
X104271428Y-93678571D01*
X104557142Y-93678571D01*
X104699999Y-93750000D01*
X104771428Y-93892857D01*
X104771428Y-94035714D01*
X104057142Y-94178571D01*
X105628571Y-94678571D02*
X105485713Y-94607143D01*
X105414285Y-94464286D01*
X105414285Y-93178571D01*
X106771427Y-94607143D02*
X106628570Y-94678571D01*
X106342856Y-94678571D01*
X106199999Y-94607143D01*
X106128570Y-94464286D01*
X106128570Y-93892857D01*
X106199999Y-93750000D01*
X106342856Y-93678571D01*
X106628570Y-93678571D01*
X106771427Y-93750000D01*
X106842856Y-93892857D01*
X106842856Y-94035714D01*
X106128570Y-94178571D01*
X108128570Y-94678571D02*
X108128570Y-93892857D01*
X108057141Y-93750000D01*
X107914284Y-93678571D01*
X107628570Y-93678571D01*
X107485713Y-93750000D01*
X108128570Y-94607143D02*
X107985713Y-94678571D01*
X107628570Y-94678571D01*
X107485713Y-94607143D01*
X107414284Y-94464286D01*
X107414284Y-94321429D01*
X107485713Y-94178571D01*
X107628570Y-94107143D01*
X107985713Y-94107143D01*
X108128570Y-94035714D01*
X108771427Y-94607143D02*
X108914284Y-94678571D01*
X109199999Y-94678571D01*
X109342856Y-94607143D01*
X109414284Y-94464286D01*
X109414284Y-94392857D01*
X109342856Y-94250000D01*
X109199999Y-94178571D01*
X108985713Y-94178571D01*
X108842856Y-94107143D01*
X108771427Y-93964286D01*
X108771427Y-93892857D01*
X108842856Y-93750000D01*
X108985713Y-93678571D01*
X109199999Y-93678571D01*
X109342856Y-93750000D01*
X110628570Y-94607143D02*
X110485713Y-94678571D01*
X110199999Y-94678571D01*
X110057142Y-94607143D01*
X109985713Y-94464286D01*
X109985713Y-93892857D01*
X110057142Y-93750000D01*
X110199999Y-93678571D01*
X110485713Y-93678571D01*
X110628570Y-93750000D01*
X110699999Y-93892857D01*
X110699999Y-94035714D01*
X109985713Y-94178571D01*
X111342856Y-94535714D02*
X111414284Y-94607143D01*
X111342856Y-94678571D01*
X111271427Y-94607143D01*
X111342856Y-94535714D01*
X111342856Y-94678571D01*
D10*
D11*
X103200000Y-108500000D02*
X103200000Y-111500000D01*
D10*
D11*
X167200000Y-108500000D02*
X167200000Y-115000000D01*
D14*
X71160000Y-43180000D03*
X66080000Y-63500000D03*
D15*
X71160000Y-39370000D03*
D16*
X73660000Y-39370000D03*
X76160000Y-39370000D03*
D17*
X68620000Y-63500000D03*
X63540000Y-63500000D03*
X78780000Y-43180000D03*
X68620000Y-43180000D03*
D14*
X73700000Y-43180000D03*
X76240000Y-43180000D03*
M02*
