G04 #@! TF.FileFunction,Legend,Bot*
%FSLAX46Y46*%
G04 Gerber Fmt 4.6, Leading zero omitted, Abs format (unit mm)*
G04 Created by KiCad (PCBNEW 4.0.7) date 11/03/17 12:30:38*
%MOMM*%
%LPD*%
G01*
G04 APERTURE LIST*
%ADD10C,0.100000*%
%ADD11C,0.150000*%
%ADD12C,0.300000*%
%ADD13C,0.400000*%
%ADD14C,0.101600*%
%ADD15C,0.152400*%
%ADD16C,0.127000*%
%ADD17C,0.002540*%
%ADD18C,0.076200*%
G04 APERTURE END LIST*
D10*
D11*
X83200000Y-83000000D02*
X83200000Y-115000000D01*
X191200000Y-115000000D01*
X191200000Y-83000000D01*
X83200000Y-83000000D01*
D10*
D11*
X10000000Y-10000000D02*
X10000000Y-117000000D01*
X193200000Y-117000000D01*
X193200000Y-10000000D01*
X10000000Y-10000000D01*
D10*
D11*
X12000000Y-12000000D02*
X12000000Y-115000000D01*
X191200000Y-115000000D01*
X191200000Y-12000000D01*
X12000000Y-12000000D01*
D10*
D11*
X60000000Y-12000000D02*
X60000000Y-10000000D01*
D10*
D11*
X110000000Y-12000000D02*
X110000000Y-10000000D01*
D10*
D11*
X160000000Y-12000000D02*
X160000000Y-10000000D01*
D10*
D11*
X35990476Y-11588095D02*
X35247619Y-11588095D01*
X35619048Y-11588095D02*
X35619048Y-10288095D01*
X35495238Y-10473810D01*
X35371429Y-10597619D01*
X35247619Y-10659524D01*
D10*
D11*
X85247619Y-10411905D02*
X85309524Y-10350000D01*
X85433333Y-10288095D01*
X85742857Y-10288095D01*
X85866667Y-10350000D01*
X85928571Y-10411905D01*
X85990476Y-10535714D01*
X85990476Y-10659524D01*
X85928571Y-10845238D01*
X85185714Y-11588095D01*
X85990476Y-11588095D01*
D10*
D11*
X135185714Y-10288095D02*
X135990476Y-10288095D01*
X135557143Y-10783333D01*
X135742857Y-10783333D01*
X135866667Y-10845238D01*
X135928571Y-10907143D01*
X135990476Y-11030952D01*
X135990476Y-11340476D01*
X135928571Y-11464286D01*
X135866667Y-11526190D01*
X135742857Y-11588095D01*
X135371429Y-11588095D01*
X135247619Y-11526190D01*
X135185714Y-11464286D01*
D10*
D11*
X185866667Y-10721429D02*
X185866667Y-11588095D01*
X185557143Y-10226190D02*
X185247619Y-11154762D01*
X186052381Y-11154762D01*
D10*
D11*
X60000000Y-115000000D02*
X60000000Y-117000000D01*
D10*
D11*
X110000000Y-115000000D02*
X110000000Y-117000000D01*
D10*
D11*
X160000000Y-115000000D02*
X160000000Y-117000000D01*
D10*
D11*
X35990476Y-116588095D02*
X35247619Y-116588095D01*
X35619048Y-116588095D02*
X35619048Y-115288095D01*
X35495238Y-115473810D01*
X35371429Y-115597619D01*
X35247619Y-115659524D01*
D10*
D11*
X85247619Y-115411905D02*
X85309524Y-115350000D01*
X85433333Y-115288095D01*
X85742857Y-115288095D01*
X85866667Y-115350000D01*
X85928571Y-115411905D01*
X85990476Y-115535714D01*
X85990476Y-115659524D01*
X85928571Y-115845238D01*
X85185714Y-116588095D01*
X85990476Y-116588095D01*
D10*
D11*
X135185714Y-115288095D02*
X135990476Y-115288095D01*
X135557143Y-115783333D01*
X135742857Y-115783333D01*
X135866667Y-115845238D01*
X135928571Y-115907143D01*
X135990476Y-116030952D01*
X135990476Y-116340476D01*
X135928571Y-116464286D01*
X135866667Y-116526190D01*
X135742857Y-116588095D01*
X135371429Y-116588095D01*
X135247619Y-116526190D01*
X135185714Y-116464286D01*
D10*
D11*
X185866667Y-115721429D02*
X185866667Y-116588095D01*
X185557143Y-115226190D02*
X185247619Y-116154762D01*
X186052381Y-116154762D01*
D10*
D11*
X10000000Y-60000000D02*
X12000000Y-60000000D01*
D10*
D11*
X10000000Y-110000000D02*
X12000000Y-110000000D01*
D10*
D11*
X10690476Y-35216667D02*
X11309524Y-35216667D01*
X10566667Y-35588095D02*
X11000000Y-34288095D01*
X11433333Y-35588095D01*
D10*
D11*
X11092857Y-84907143D02*
X11278571Y-84969048D01*
X11340476Y-85030952D01*
X11402381Y-85154762D01*
X11402381Y-85340476D01*
X11340476Y-85464286D01*
X11278571Y-85526190D01*
X11154762Y-85588095D01*
X10659524Y-85588095D01*
X10659524Y-84288095D01*
X11092857Y-84288095D01*
X11216667Y-84350000D01*
X11278571Y-84411905D01*
X11340476Y-84535714D01*
X11340476Y-84659524D01*
X11278571Y-84783333D01*
X11216667Y-84845238D01*
X11092857Y-84907143D01*
X10659524Y-84907143D01*
D10*
D11*
X193200000Y-60000000D02*
X191200000Y-60000000D01*
D10*
D11*
X193200000Y-110000000D02*
X191200000Y-110000000D01*
D10*
D11*
X191890476Y-35216667D02*
X192509524Y-35216667D01*
X191766667Y-35588095D02*
X192200000Y-34288095D01*
X192633333Y-35588095D01*
D10*
D11*
X192292857Y-84907143D02*
X192478571Y-84969048D01*
X192540476Y-85030952D01*
X192602381Y-85154762D01*
X192602381Y-85340476D01*
X192540476Y-85464286D01*
X192478571Y-85526190D01*
X192354762Y-85588095D01*
X191859524Y-85588095D01*
X191859524Y-84288095D01*
X192292857Y-84288095D01*
X192416667Y-84350000D01*
X192478571Y-84411905D01*
X192540476Y-84535714D01*
X192540476Y-84659524D01*
X192478571Y-84783333D01*
X192416667Y-84845238D01*
X192292857Y-84907143D01*
X191859524Y-84907143D01*
D10*
D11*
X106557143Y-110778571D02*
X106557143Y-109278571D01*
X106914286Y-109278571D01*
X107128571Y-109350000D01*
X107271429Y-109492857D01*
X107342857Y-109635714D01*
X107414286Y-109921429D01*
X107414286Y-110135714D01*
X107342857Y-110421429D01*
X107271429Y-110564286D01*
X107128571Y-110707143D01*
X106914286Y-110778571D01*
X106557143Y-110778571D01*
X108700000Y-110778571D02*
X108700000Y-109992857D01*
X108628571Y-109850000D01*
X108485714Y-109778571D01*
X108200000Y-109778571D01*
X108057143Y-109850000D01*
X108700000Y-110707143D02*
X108557143Y-110778571D01*
X108200000Y-110778571D01*
X108057143Y-110707143D01*
X107985714Y-110564286D01*
X107985714Y-110421429D01*
X108057143Y-110278571D01*
X108200000Y-110207143D01*
X108557143Y-110207143D01*
X108700000Y-110135714D01*
X109200000Y-109778571D02*
X109771429Y-109778571D01*
X109414286Y-109278571D02*
X109414286Y-110564286D01*
X109485714Y-110707143D01*
X109628572Y-110778571D01*
X109771429Y-110778571D01*
X110842857Y-110707143D02*
X110700000Y-110778571D01*
X110414286Y-110778571D01*
X110271429Y-110707143D01*
X110200000Y-110564286D01*
X110200000Y-109992857D01*
X110271429Y-109850000D01*
X110414286Y-109778571D01*
X110700000Y-109778571D01*
X110842857Y-109850000D01*
X110914286Y-109992857D01*
X110914286Y-110135714D01*
X110200000Y-110278571D01*
X111557143Y-110635714D02*
X111628571Y-110707143D01*
X111557143Y-110778571D01*
X111485714Y-110707143D01*
X111557143Y-110635714D01*
X111557143Y-110778571D01*
X111557143Y-109850000D02*
X111628571Y-109921429D01*
X111557143Y-109992857D01*
X111485714Y-109921429D01*
X111557143Y-109850000D01*
X111557143Y-109992857D01*
X113342857Y-109421429D02*
X113414286Y-109350000D01*
X113557143Y-109278571D01*
X113914286Y-109278571D01*
X114057143Y-109350000D01*
X114128572Y-109421429D01*
X114200000Y-109564286D01*
X114200000Y-109707143D01*
X114128572Y-109921429D01*
X113271429Y-110778571D01*
X114200000Y-110778571D01*
X115128571Y-109278571D02*
X115271428Y-109278571D01*
X115414285Y-109350000D01*
X115485714Y-109421429D01*
X115557143Y-109564286D01*
X115628571Y-109850000D01*
X115628571Y-110207143D01*
X115557143Y-110492857D01*
X115485714Y-110635714D01*
X115414285Y-110707143D01*
X115271428Y-110778571D01*
X115128571Y-110778571D01*
X114985714Y-110707143D01*
X114914285Y-110635714D01*
X114842857Y-110492857D01*
X114771428Y-110207143D01*
X114771428Y-109850000D01*
X114842857Y-109564286D01*
X114914285Y-109421429D01*
X114985714Y-109350000D01*
X115128571Y-109278571D01*
X117057142Y-110778571D02*
X116199999Y-110778571D01*
X116628571Y-110778571D02*
X116628571Y-109278571D01*
X116485714Y-109492857D01*
X116342856Y-109635714D01*
X116199999Y-109707143D01*
X117557142Y-109278571D02*
X118557142Y-109278571D01*
X117914285Y-110778571D01*
X119128570Y-110207143D02*
X120271427Y-110207143D01*
X121271427Y-109278571D02*
X121414284Y-109278571D01*
X121557141Y-109350000D01*
X121628570Y-109421429D01*
X121699999Y-109564286D01*
X121771427Y-109850000D01*
X121771427Y-110207143D01*
X121699999Y-110492857D01*
X121628570Y-110635714D01*
X121557141Y-110707143D01*
X121414284Y-110778571D01*
X121271427Y-110778571D01*
X121128570Y-110707143D01*
X121057141Y-110635714D01*
X120985713Y-110492857D01*
X120914284Y-110207143D01*
X120914284Y-109850000D01*
X120985713Y-109564286D01*
X121057141Y-109421429D01*
X121128570Y-109350000D01*
X121271427Y-109278571D01*
X122271427Y-109278571D02*
X123199998Y-109278571D01*
X122699998Y-109850000D01*
X122914284Y-109850000D01*
X123057141Y-109921429D01*
X123128570Y-109992857D01*
X123199998Y-110135714D01*
X123199998Y-110492857D01*
X123128570Y-110635714D01*
X123057141Y-110707143D01*
X122914284Y-110778571D01*
X122485712Y-110778571D01*
X122342855Y-110707143D01*
X122271427Y-110635714D01*
X123842855Y-110207143D02*
X124985712Y-110207143D01*
X125628569Y-109421429D02*
X125699998Y-109350000D01*
X125842855Y-109278571D01*
X126199998Y-109278571D01*
X126342855Y-109350000D01*
X126414284Y-109421429D01*
X126485712Y-109564286D01*
X126485712Y-109707143D01*
X126414284Y-109921429D01*
X125557141Y-110778571D01*
X126485712Y-110778571D01*
X126985712Y-109278571D02*
X127985712Y-109278571D01*
X127342855Y-110778571D01*
D10*
D11*
X83200000Y-111500000D02*
X191200000Y-111500000D01*
D10*
D11*
X84557143Y-113578571D02*
X84557143Y-112078571D01*
X85414286Y-113578571D02*
X84771429Y-112721429D01*
X85414286Y-112078571D02*
X84557143Y-112935714D01*
X86057143Y-113578571D02*
X86057143Y-112578571D01*
X86057143Y-112078571D02*
X85985714Y-112150000D01*
X86057143Y-112221429D01*
X86128571Y-112150000D01*
X86057143Y-112078571D01*
X86057143Y-112221429D01*
X87628572Y-113435714D02*
X87557143Y-113507143D01*
X87342857Y-113578571D01*
X87200000Y-113578571D01*
X86985715Y-113507143D01*
X86842857Y-113364286D01*
X86771429Y-113221429D01*
X86700000Y-112935714D01*
X86700000Y-112721429D01*
X86771429Y-112435714D01*
X86842857Y-112292857D01*
X86985715Y-112150000D01*
X87200000Y-112078571D01*
X87342857Y-112078571D01*
X87557143Y-112150000D01*
X87628572Y-112221429D01*
X88914286Y-113578571D02*
X88914286Y-112792857D01*
X88842857Y-112650000D01*
X88700000Y-112578571D01*
X88414286Y-112578571D01*
X88271429Y-112650000D01*
X88914286Y-113507143D02*
X88771429Y-113578571D01*
X88414286Y-113578571D01*
X88271429Y-113507143D01*
X88200000Y-113364286D01*
X88200000Y-113221429D01*
X88271429Y-113078571D01*
X88414286Y-113007143D01*
X88771429Y-113007143D01*
X88914286Y-112935714D01*
X90271429Y-113578571D02*
X90271429Y-112078571D01*
X90271429Y-113507143D02*
X90128572Y-113578571D01*
X89842858Y-113578571D01*
X89700000Y-113507143D01*
X89628572Y-113435714D01*
X89557143Y-113292857D01*
X89557143Y-112864286D01*
X89628572Y-112721429D01*
X89700000Y-112650000D01*
X89842858Y-112578571D01*
X90128572Y-112578571D01*
X90271429Y-112650000D01*
X92128572Y-112792857D02*
X92628572Y-112792857D01*
X92842858Y-113578571D02*
X92128572Y-113578571D01*
X92128572Y-112078571D01*
X92842858Y-112078571D01*
X93485715Y-113435714D02*
X93557143Y-113507143D01*
X93485715Y-113578571D01*
X93414286Y-113507143D01*
X93485715Y-113435714D01*
X93485715Y-113578571D01*
X94200001Y-113578571D02*
X94200001Y-112078571D01*
X94557144Y-112078571D01*
X94771429Y-112150000D01*
X94914287Y-112292857D01*
X94985715Y-112435714D01*
X95057144Y-112721429D01*
X95057144Y-112935714D01*
X94985715Y-113221429D01*
X94914287Y-113364286D01*
X94771429Y-113507143D01*
X94557144Y-113578571D01*
X94200001Y-113578571D01*
X95700001Y-113435714D02*
X95771429Y-113507143D01*
X95700001Y-113578571D01*
X95628572Y-113507143D01*
X95700001Y-113435714D01*
X95700001Y-113578571D01*
X96342858Y-113150000D02*
X97057144Y-113150000D01*
X96200001Y-113578571D02*
X96700001Y-112078571D01*
X97200001Y-113578571D01*
X97700001Y-113435714D02*
X97771429Y-113507143D01*
X97700001Y-113578571D01*
X97628572Y-113507143D01*
X97700001Y-113435714D01*
X97700001Y-113578571D01*
X100700001Y-112578571D02*
X100700001Y-114078571D01*
X100700001Y-112650000D02*
X100842858Y-112578571D01*
X101128572Y-112578571D01*
X101271429Y-112650000D01*
X101342858Y-112721429D01*
X101414287Y-112864286D01*
X101414287Y-113292857D01*
X101342858Y-113435714D01*
X101271429Y-113507143D01*
X101128572Y-113578571D01*
X100842858Y-113578571D01*
X100700001Y-113507143D01*
X102700001Y-113507143D02*
X102557144Y-113578571D01*
X102271430Y-113578571D01*
X102128572Y-113507143D01*
X102057144Y-113435714D01*
X101985715Y-113292857D01*
X101985715Y-112864286D01*
X102057144Y-112721429D01*
X102128572Y-112650000D01*
X102271430Y-112578571D01*
X102557144Y-112578571D01*
X102700001Y-112650000D01*
X103342858Y-113578571D02*
X103342858Y-112078571D01*
X103342858Y-112650000D02*
X103485715Y-112578571D01*
X103771429Y-112578571D01*
X103914286Y-112650000D01*
X103985715Y-112721429D01*
X104057144Y-112864286D01*
X104057144Y-113292857D01*
X103985715Y-113435714D01*
X103914286Y-113507143D01*
X103771429Y-113578571D01*
X103485715Y-113578571D01*
X103342858Y-113507143D01*
X104700001Y-112578571D02*
X104700001Y-113578571D01*
X104700001Y-112721429D02*
X104771429Y-112650000D01*
X104914287Y-112578571D01*
X105128572Y-112578571D01*
X105271429Y-112650000D01*
X105342858Y-112792857D01*
X105342858Y-113578571D01*
X106628572Y-113507143D02*
X106485715Y-113578571D01*
X106200001Y-113578571D01*
X106057144Y-113507143D01*
X105985715Y-113364286D01*
X105985715Y-112792857D01*
X106057144Y-112650000D01*
X106200001Y-112578571D01*
X106485715Y-112578571D01*
X106628572Y-112650000D01*
X106700001Y-112792857D01*
X106700001Y-112935714D01*
X105985715Y-113078571D01*
X107200001Y-112578571D02*
X107485715Y-113578571D01*
X107771429Y-112864286D01*
X108057144Y-113578571D01*
X108342858Y-112578571D01*
X110700001Y-112578571D02*
X110700001Y-113578571D01*
X110342858Y-112007143D02*
X109985715Y-113078571D01*
X110914287Y-113078571D01*
X111485715Y-113435714D02*
X111557143Y-113507143D01*
X111485715Y-113578571D01*
X111414286Y-113507143D01*
X111485715Y-113435714D01*
X111485715Y-113578571D01*
X112485715Y-112078571D02*
X112628572Y-112078571D01*
X112771429Y-112150000D01*
X112842858Y-112221429D01*
X112914287Y-112364286D01*
X112985715Y-112650000D01*
X112985715Y-113007143D01*
X112914287Y-113292857D01*
X112842858Y-113435714D01*
X112771429Y-113507143D01*
X112628572Y-113578571D01*
X112485715Y-113578571D01*
X112342858Y-113507143D01*
X112271429Y-113435714D01*
X112200001Y-113292857D01*
X112128572Y-113007143D01*
X112128572Y-112650000D01*
X112200001Y-112364286D01*
X112271429Y-112221429D01*
X112342858Y-112150000D01*
X112485715Y-112078571D01*
X113628572Y-113435714D02*
X113700000Y-113507143D01*
X113628572Y-113578571D01*
X113557143Y-113507143D01*
X113628572Y-113435714D01*
X113628572Y-113578571D01*
X114200001Y-112078571D02*
X115200001Y-112078571D01*
X114557144Y-113578571D01*
D10*
D11*
X83200000Y-108500000D02*
X191200000Y-108500000D01*
D10*
D12*
X170414286Y-110778571D02*
X169914286Y-110064286D01*
X169557143Y-110778571D02*
X169557143Y-109278571D01*
X170128571Y-109278571D01*
X170271429Y-109350000D01*
X170342857Y-109421429D01*
X170414286Y-109564286D01*
X170414286Y-109778571D01*
X170342857Y-109921429D01*
X170271429Y-109992857D01*
X170128571Y-110064286D01*
X169557143Y-110064286D01*
X171628571Y-110707143D02*
X171485714Y-110778571D01*
X171200000Y-110778571D01*
X171057143Y-110707143D01*
X170985714Y-110564286D01*
X170985714Y-109992857D01*
X171057143Y-109850000D01*
X171200000Y-109778571D01*
X171485714Y-109778571D01*
X171628571Y-109850000D01*
X171700000Y-109992857D01*
X171700000Y-110135714D01*
X170985714Y-110278571D01*
X172200000Y-109778571D02*
X172557143Y-110778571D01*
X172914285Y-109778571D01*
X173485714Y-110635714D02*
X173557142Y-110707143D01*
X173485714Y-110778571D01*
X173414285Y-110707143D01*
X173485714Y-110635714D01*
X173485714Y-110778571D01*
X173485714Y-109850000D02*
X173557142Y-109921429D01*
X173485714Y-109992857D01*
X173414285Y-109921429D01*
X173485714Y-109850000D01*
X173485714Y-109992857D01*
X176128571Y-110778571D02*
X175271428Y-110778571D01*
X175700000Y-110778571D02*
X175700000Y-109278571D01*
X175557143Y-109492857D01*
X175414285Y-109635714D01*
X175271428Y-109707143D01*
X176771428Y-110635714D02*
X176842856Y-110707143D01*
X176771428Y-110778571D01*
X176699999Y-110707143D01*
X176771428Y-110635714D01*
X176771428Y-110778571D01*
X177771428Y-109278571D02*
X177914285Y-109278571D01*
X178057142Y-109350000D01*
X178128571Y-109421429D01*
X178200000Y-109564286D01*
X178271428Y-109850000D01*
X178271428Y-110207143D01*
X178200000Y-110492857D01*
X178128571Y-110635714D01*
X178057142Y-110707143D01*
X177914285Y-110778571D01*
X177771428Y-110778571D01*
X177628571Y-110707143D01*
X177557142Y-110635714D01*
X177485714Y-110492857D01*
X177414285Y-110207143D01*
X177414285Y-109850000D01*
X177485714Y-109564286D01*
X177557142Y-109421429D01*
X177628571Y-109350000D01*
X177771428Y-109278571D01*
X178914285Y-110635714D02*
X178985713Y-110707143D01*
X178914285Y-110778571D01*
X178842856Y-110707143D01*
X178914285Y-110635714D01*
X178914285Y-110778571D01*
X179914285Y-109278571D02*
X180057142Y-109278571D01*
X180199999Y-109350000D01*
X180271428Y-109421429D01*
X180342857Y-109564286D01*
X180414285Y-109850000D01*
X180414285Y-110207143D01*
X180342857Y-110492857D01*
X180271428Y-110635714D01*
X180199999Y-110707143D01*
X180057142Y-110778571D01*
X179914285Y-110778571D01*
X179771428Y-110707143D01*
X179699999Y-110635714D01*
X179628571Y-110492857D01*
X179557142Y-110207143D01*
X179557142Y-109850000D01*
X179628571Y-109564286D01*
X179699999Y-109421429D01*
X179771428Y-109350000D01*
X179914285Y-109278571D01*
D10*
D11*
X84485714Y-110707143D02*
X84700000Y-110778571D01*
X85057143Y-110778571D01*
X85200000Y-110707143D01*
X85271429Y-110635714D01*
X85342857Y-110492857D01*
X85342857Y-110350000D01*
X85271429Y-110207143D01*
X85200000Y-110135714D01*
X85057143Y-110064286D01*
X84771429Y-109992857D01*
X84628571Y-109921429D01*
X84557143Y-109850000D01*
X84485714Y-109707143D01*
X84485714Y-109564286D01*
X84557143Y-109421429D01*
X84628571Y-109350000D01*
X84771429Y-109278571D01*
X85128571Y-109278571D01*
X85342857Y-109350000D01*
X85985714Y-110778571D02*
X85985714Y-109778571D01*
X85985714Y-109278571D02*
X85914285Y-109350000D01*
X85985714Y-109421429D01*
X86057142Y-109350000D01*
X85985714Y-109278571D01*
X85985714Y-109421429D01*
X86557143Y-109778571D02*
X87342857Y-109778571D01*
X86557143Y-110778571D01*
X87342857Y-110778571D01*
X88485714Y-110707143D02*
X88342857Y-110778571D01*
X88057143Y-110778571D01*
X87914286Y-110707143D01*
X87842857Y-110564286D01*
X87842857Y-109992857D01*
X87914286Y-109850000D01*
X88057143Y-109778571D01*
X88342857Y-109778571D01*
X88485714Y-109850000D01*
X88557143Y-109992857D01*
X88557143Y-110135714D01*
X87842857Y-110278571D01*
X89200000Y-110635714D02*
X89271428Y-110707143D01*
X89200000Y-110778571D01*
X89128571Y-110707143D01*
X89200000Y-110635714D01*
X89200000Y-110778571D01*
X89200000Y-109850000D02*
X89271428Y-109921429D01*
X89200000Y-109992857D01*
X89128571Y-109921429D01*
X89200000Y-109850000D01*
X89200000Y-109992857D01*
X91057143Y-109278571D02*
X91057143Y-110492857D01*
X91128571Y-110635714D01*
X91200000Y-110707143D01*
X91342857Y-110778571D01*
X91628571Y-110778571D01*
X91771429Y-110707143D01*
X91842857Y-110635714D01*
X91914286Y-110492857D01*
X91914286Y-109278571D01*
X92557143Y-110707143D02*
X92700000Y-110778571D01*
X92985715Y-110778571D01*
X93128572Y-110707143D01*
X93200000Y-110564286D01*
X93200000Y-110492857D01*
X93128572Y-110350000D01*
X92985715Y-110278571D01*
X92771429Y-110278571D01*
X92628572Y-110207143D01*
X92557143Y-110064286D01*
X92557143Y-109992857D01*
X92628572Y-109850000D01*
X92771429Y-109778571D01*
X92985715Y-109778571D01*
X93128572Y-109850000D01*
X94414286Y-110707143D02*
X94271429Y-110778571D01*
X93985715Y-110778571D01*
X93842858Y-110707143D01*
X93771429Y-110564286D01*
X93771429Y-109992857D01*
X93842858Y-109850000D01*
X93985715Y-109778571D01*
X94271429Y-109778571D01*
X94414286Y-109850000D01*
X94485715Y-109992857D01*
X94485715Y-110135714D01*
X93771429Y-110278571D01*
X95128572Y-110778571D02*
X95128572Y-109778571D01*
X95128572Y-110064286D02*
X95200000Y-109921429D01*
X95271429Y-109850000D01*
X95414286Y-109778571D01*
X95557143Y-109778571D01*
D10*
D11*
X169557143Y-113578571D02*
X169557143Y-112078571D01*
X170914286Y-113578571D02*
X170914286Y-112078571D01*
X170914286Y-113507143D02*
X170771429Y-113578571D01*
X170485715Y-113578571D01*
X170342857Y-113507143D01*
X170271429Y-113435714D01*
X170200000Y-113292857D01*
X170200000Y-112864286D01*
X170271429Y-112721429D01*
X170342857Y-112650000D01*
X170485715Y-112578571D01*
X170771429Y-112578571D01*
X170914286Y-112650000D01*
X171628572Y-113435714D02*
X171700000Y-113507143D01*
X171628572Y-113578571D01*
X171557143Y-113507143D01*
X171628572Y-113435714D01*
X171628572Y-113578571D01*
X171628572Y-112650000D02*
X171700000Y-112721429D01*
X171628572Y-112792857D01*
X171557143Y-112721429D01*
X171628572Y-112650000D01*
X171628572Y-112792857D01*
X174271429Y-113578571D02*
X173414286Y-113578571D01*
X173842858Y-113578571D02*
X173842858Y-112078571D01*
X173700001Y-112292857D01*
X173557143Y-112435714D01*
X173414286Y-112507143D01*
X175985714Y-112007143D02*
X174700000Y-113935714D01*
X177271429Y-113578571D02*
X176414286Y-113578571D01*
X176842858Y-113578571D02*
X176842858Y-112078571D01*
X176700001Y-112292857D01*
X176557143Y-112435714D01*
X176414286Y-112507143D01*
D10*
D11*
X83200000Y-104500000D02*
X191200000Y-104500000D01*
D10*
D13*
X84652381Y-105204762D02*
X85795238Y-105204762D01*
X84973810Y-107204762D02*
X85223810Y-105204762D01*
X86211905Y-107204762D02*
X86378571Y-105871429D01*
X86461905Y-105204762D02*
X86354762Y-105300000D01*
X86438095Y-105395238D01*
X86545239Y-105300000D01*
X86461905Y-105204762D01*
X86438095Y-105395238D01*
X87045238Y-105871429D02*
X87807143Y-105871429D01*
X87414286Y-105204762D02*
X87200000Y-106919048D01*
X87271430Y-107109524D01*
X87450001Y-107204762D01*
X87640477Y-107204762D01*
X88592858Y-107204762D02*
X88414287Y-107109524D01*
X88342857Y-106919048D01*
X88557143Y-105204762D01*
X90128572Y-107109524D02*
X89926191Y-107204762D01*
X89545239Y-107204762D01*
X89366667Y-107109524D01*
X89295238Y-106919048D01*
X89390476Y-106157143D01*
X89509524Y-105966667D01*
X89711905Y-105871429D01*
X90092857Y-105871429D01*
X90271429Y-105966667D01*
X90342857Y-106157143D01*
X90319048Y-106347619D01*
X89342857Y-106538095D01*
X91092857Y-107014286D02*
X91176192Y-107109524D01*
X91069048Y-107204762D01*
X90985715Y-107109524D01*
X91092857Y-107014286D01*
X91069048Y-107204762D01*
X91223810Y-105966667D02*
X91307144Y-106061905D01*
X91200000Y-106157143D01*
X91116667Y-106061905D01*
X91223810Y-105966667D01*
X91200000Y-106157143D01*
X93676191Y-106157143D02*
X94342858Y-106157143D01*
X94497620Y-107204762D02*
X93545239Y-107204762D01*
X93795239Y-105204762D01*
X94747620Y-105204762D01*
X95521429Y-105871429D02*
X95354763Y-107204762D01*
X95497620Y-106061905D02*
X95604764Y-105966667D01*
X95807144Y-105871429D01*
X96092858Y-105871429D01*
X96271430Y-105966667D01*
X96342858Y-106157143D01*
X96211906Y-107204762D01*
X98021430Y-107204762D02*
X98152382Y-106157143D01*
X98080954Y-105966667D01*
X97902382Y-105871429D01*
X97521430Y-105871429D01*
X97319049Y-105966667D01*
X98033335Y-107109524D02*
X97830954Y-107204762D01*
X97354764Y-107204762D01*
X97176192Y-107109524D01*
X97104763Y-106919048D01*
X97128573Y-106728571D01*
X97247620Y-106538095D01*
X97450002Y-106442857D01*
X97926192Y-106442857D01*
X98128573Y-106347619D01*
X98973811Y-107204762D02*
X99223811Y-105204762D01*
X99128573Y-105966667D02*
X99330954Y-105871429D01*
X99711906Y-105871429D01*
X99890478Y-105966667D01*
X99973811Y-106061905D01*
X100045239Y-106252381D01*
X99973811Y-106823810D01*
X99854763Y-107014286D01*
X99747621Y-107109524D01*
X99545240Y-107204762D01*
X99164288Y-107204762D01*
X98985716Y-107109524D01*
X101069050Y-107204762D02*
X100890479Y-107109524D01*
X100819049Y-106919048D01*
X101033335Y-105204762D01*
X102604764Y-107109524D02*
X102402383Y-107204762D01*
X102021431Y-107204762D01*
X101842859Y-107109524D01*
X101771430Y-106919048D01*
X101866668Y-106157143D01*
X101985716Y-105966667D01*
X102188097Y-105871429D01*
X102569049Y-105871429D01*
X102747621Y-105966667D01*
X102819049Y-106157143D01*
X102795240Y-106347619D01*
X101819049Y-106538095D01*
X105235717Y-105109524D02*
X103200002Y-107680952D01*
X105640478Y-107204762D02*
X105890478Y-105204762D01*
X106366669Y-105204762D01*
X106640478Y-105300000D01*
X106807145Y-105490476D01*
X106878574Y-105680952D01*
X106926193Y-106061905D01*
X106890479Y-106347619D01*
X106747622Y-106728571D01*
X106628573Y-106919048D01*
X106414288Y-107109524D01*
X106116669Y-107204762D01*
X105640478Y-107204762D01*
X107640478Y-107204762D02*
X107807144Y-105871429D01*
X107890478Y-105204762D02*
X107783335Y-105300000D01*
X107866668Y-105395238D01*
X107973812Y-105300000D01*
X107890478Y-105204762D01*
X107866668Y-105395238D01*
X109450002Y-107204762D02*
X109580954Y-106157143D01*
X109509526Y-105966667D01*
X109330954Y-105871429D01*
X108950002Y-105871429D01*
X108747621Y-105966667D01*
X109461907Y-107109524D02*
X109259526Y-107204762D01*
X108783336Y-107204762D01*
X108604764Y-107109524D01*
X108533335Y-106919048D01*
X108557145Y-106728571D01*
X108676192Y-106538095D01*
X108878574Y-106442857D01*
X109354764Y-106442857D01*
X109557145Y-106347619D01*
X110402383Y-107204762D02*
X110652383Y-105204762D01*
X110557145Y-105966667D02*
X110759526Y-105871429D01*
X111140478Y-105871429D01*
X111319050Y-105966667D01*
X111402383Y-106061905D01*
X111473811Y-106252381D01*
X111402383Y-106823810D01*
X111283335Y-107014286D01*
X111176193Y-107109524D01*
X110973812Y-107204762D01*
X110592860Y-107204762D01*
X110414288Y-107109524D01*
X112497622Y-107204762D02*
X112319051Y-107109524D01*
X112247621Y-106919048D01*
X112461907Y-105204762D01*
X114033336Y-107109524D02*
X113830955Y-107204762D01*
X113450003Y-107204762D01*
X113271431Y-107109524D01*
X113200002Y-106919048D01*
X113295240Y-106157143D01*
X113414288Y-105966667D01*
X113616669Y-105871429D01*
X113997621Y-105871429D01*
X114176193Y-105966667D01*
X114247621Y-106157143D01*
X114223812Y-106347619D01*
X113247621Y-106538095D01*
X116414289Y-107109524D02*
X116592861Y-107204762D01*
X116973813Y-107204762D01*
X117176194Y-107109524D01*
X117295241Y-106919048D01*
X117307146Y-106823810D01*
X117235717Y-106633333D01*
X117057146Y-106538095D01*
X116771432Y-106538095D01*
X116592860Y-106442857D01*
X116521431Y-106252381D01*
X116533336Y-106157143D01*
X116652384Y-105966667D01*
X116854765Y-105871429D01*
X117140479Y-105871429D01*
X117319051Y-105966667D01*
X118092860Y-105871429D02*
X118307147Y-107204762D01*
X118807146Y-106252381D01*
X119069051Y-107204762D01*
X119616670Y-105871429D01*
X120211908Y-107204762D02*
X120378574Y-105871429D01*
X120461908Y-105204762D02*
X120354765Y-105300000D01*
X120438098Y-105395238D01*
X120545242Y-105300000D01*
X120461908Y-105204762D01*
X120438098Y-105395238D01*
X121045241Y-105871429D02*
X121807146Y-105871429D01*
X121414289Y-105204762D02*
X121200003Y-106919048D01*
X121271433Y-107109524D01*
X121450004Y-107204762D01*
X121640480Y-107204762D01*
X123176194Y-107109524D02*
X122973813Y-107204762D01*
X122592861Y-107204762D01*
X122414290Y-107109524D01*
X122330955Y-107014286D01*
X122259527Y-106823810D01*
X122330955Y-106252381D01*
X122450003Y-106061905D01*
X122557147Y-105966667D01*
X122759527Y-105871429D01*
X123140479Y-105871429D01*
X123319051Y-105966667D01*
X124021432Y-107204762D02*
X124271432Y-105204762D01*
X124878575Y-107204762D02*
X125009527Y-106157143D01*
X124938099Y-105966667D01*
X124759527Y-105871429D01*
X124473813Y-105871429D01*
X124271433Y-105966667D01*
X124164289Y-106061905D01*
X127235718Y-105871429D02*
X127997623Y-105871429D01*
X127354766Y-107204762D02*
X127569052Y-105490476D01*
X127688100Y-105300000D01*
X127890481Y-105204762D01*
X128080957Y-105204762D01*
X128783338Y-107204762D02*
X128604767Y-107109524D01*
X128521432Y-107014286D01*
X128450004Y-106823810D01*
X128521432Y-106252381D01*
X128640480Y-106061905D01*
X128747624Y-105966667D01*
X128950004Y-105871429D01*
X129235718Y-105871429D01*
X129414290Y-105966667D01*
X129497623Y-106061905D01*
X129569051Y-106252381D01*
X129497623Y-106823810D01*
X129378575Y-107014286D01*
X129271433Y-107109524D01*
X129069052Y-107204762D01*
X128783338Y-107204762D01*
X130307147Y-107204762D02*
X130473813Y-105871429D01*
X130426194Y-106252381D02*
X130545243Y-106061905D01*
X130652386Y-105966667D01*
X130854766Y-105871429D01*
X131045242Y-105871429D01*
X133045242Y-106633333D02*
X133997623Y-106633333D01*
X132783338Y-107204762D02*
X133700005Y-105204762D01*
X134116672Y-107204762D01*
X135640481Y-107204762D02*
X135890481Y-105204762D01*
X135652386Y-107109524D02*
X135450005Y-107204762D01*
X135069053Y-107204762D01*
X134890482Y-107109524D01*
X134807147Y-107014286D01*
X134735719Y-106823810D01*
X134807147Y-106252381D01*
X134926195Y-106061905D01*
X135033339Y-105966667D01*
X135235719Y-105871429D01*
X135616671Y-105871429D01*
X135795243Y-105966667D01*
X137450005Y-107204762D02*
X137580957Y-106157143D01*
X137509529Y-105966667D01*
X137330957Y-105871429D01*
X136950005Y-105871429D01*
X136747624Y-105966667D01*
X137461910Y-107109524D02*
X137259529Y-107204762D01*
X136783339Y-107204762D01*
X136604767Y-107109524D01*
X136533338Y-106919048D01*
X136557148Y-106728571D01*
X136676195Y-106538095D01*
X136878577Y-106442857D01*
X137354767Y-106442857D01*
X137557148Y-106347619D01*
X139200005Y-106157143D02*
X138533338Y-106157143D01*
X138402386Y-107204762D02*
X138652386Y-105204762D01*
X139604767Y-105204762D01*
X140116672Y-107204762D02*
X140283338Y-105871429D01*
X140235719Y-106252381D02*
X140354768Y-106061905D01*
X140461911Y-105966667D01*
X140664291Y-105871429D01*
X140854767Y-105871429D01*
X142378576Y-105871429D02*
X142211910Y-107204762D01*
X141521433Y-105871429D02*
X141390481Y-106919048D01*
X141461911Y-107109524D01*
X141640482Y-107204762D01*
X141926196Y-107204762D01*
X142128577Y-107109524D01*
X142235719Y-107014286D01*
X143164291Y-107204762D02*
X143330957Y-105871429D01*
X143414291Y-105204762D02*
X143307148Y-105300000D01*
X143390481Y-105395238D01*
X143497625Y-105300000D01*
X143414291Y-105204762D01*
X143390481Y-105395238D01*
X143997624Y-105871429D02*
X144759529Y-105871429D01*
X144366672Y-105204762D02*
X144152386Y-106919048D01*
X144223816Y-107109524D01*
X144402387Y-107204762D01*
X144592863Y-107204762D01*
X147580958Y-106157143D02*
X146914291Y-106157143D01*
X146783339Y-107204762D02*
X147033339Y-105204762D01*
X147985720Y-105204762D01*
X149271435Y-107109524D02*
X149069054Y-107204762D01*
X148688102Y-107204762D01*
X148509530Y-107109524D01*
X148438101Y-106919048D01*
X148533339Y-106157143D01*
X148652387Y-105966667D01*
X148854768Y-105871429D01*
X149235720Y-105871429D01*
X149414292Y-105966667D01*
X149485720Y-106157143D01*
X149461911Y-106347619D01*
X148485720Y-106538095D01*
X151069054Y-107204762D02*
X151200006Y-106157143D01*
X151128578Y-105966667D01*
X150950006Y-105871429D01*
X150569054Y-105871429D01*
X150366673Y-105966667D01*
X151080959Y-107109524D02*
X150878578Y-107204762D01*
X150402388Y-107204762D01*
X150223816Y-107109524D01*
X150152387Y-106919048D01*
X150176197Y-106728571D01*
X150295244Y-106538095D01*
X150497626Y-106442857D01*
X150973816Y-106442857D01*
X151176197Y-106347619D01*
X151902387Y-105871429D02*
X152664292Y-105871429D01*
X152271435Y-105204762D02*
X152057149Y-106919048D01*
X152128579Y-107109524D01*
X152307150Y-107204762D01*
X152497626Y-107204762D01*
X153164292Y-107204762D02*
X153414292Y-105204762D01*
X154021435Y-107204762D02*
X154152387Y-106157143D01*
X154080959Y-105966667D01*
X153902387Y-105871429D01*
X153616673Y-105871429D01*
X153414293Y-105966667D01*
X153307149Y-106061905D01*
X155747626Y-107109524D02*
X155545245Y-107204762D01*
X155164293Y-107204762D01*
X154985721Y-107109524D01*
X154914292Y-106919048D01*
X155009530Y-106157143D01*
X155128578Y-105966667D01*
X155330959Y-105871429D01*
X155711911Y-105871429D01*
X155890483Y-105966667D01*
X155961911Y-106157143D01*
X155938102Y-106347619D01*
X154961911Y-106538095D01*
X156688102Y-107204762D02*
X156854768Y-105871429D01*
X156807149Y-106252381D02*
X156926198Y-106061905D01*
X157033341Y-105966667D01*
X157235721Y-105871429D01*
X157426197Y-105871429D01*
X159450007Y-107204762D02*
X159700007Y-105204762D01*
X159604769Y-105966667D02*
X159807150Y-105871429D01*
X160188102Y-105871429D01*
X160366674Y-105966667D01*
X160450007Y-106061905D01*
X160521435Y-106252381D01*
X160450007Y-106823810D01*
X160330959Y-107014286D01*
X160223817Y-107109524D01*
X160021436Y-107204762D01*
X159640484Y-107204762D01*
X159461912Y-107109524D01*
X161545246Y-107204762D02*
X161366675Y-107109524D01*
X161283340Y-107014286D01*
X161211912Y-106823810D01*
X161283340Y-106252381D01*
X161402388Y-106061905D01*
X161509532Y-105966667D01*
X161711912Y-105871429D01*
X161997626Y-105871429D01*
X162176198Y-105966667D01*
X162259531Y-106061905D01*
X162330959Y-106252381D01*
X162259531Y-106823810D01*
X162140483Y-107014286D01*
X162033341Y-107109524D01*
X161830960Y-107204762D01*
X161545246Y-107204762D01*
X163926198Y-107204762D02*
X164057150Y-106157143D01*
X163985722Y-105966667D01*
X163807150Y-105871429D01*
X163426198Y-105871429D01*
X163223817Y-105966667D01*
X163938103Y-107109524D02*
X163735722Y-107204762D01*
X163259532Y-107204762D01*
X163080960Y-107109524D01*
X163009531Y-106919048D01*
X163033341Y-106728571D01*
X163152388Y-106538095D01*
X163354770Y-106442857D01*
X163830960Y-106442857D01*
X164033341Y-106347619D01*
X164878579Y-107204762D02*
X165045245Y-105871429D01*
X164997626Y-106252381D02*
X165116675Y-106061905D01*
X165223818Y-105966667D01*
X165426198Y-105871429D01*
X165616674Y-105871429D01*
X166973817Y-107204762D02*
X167223817Y-105204762D01*
X166985722Y-107109524D02*
X166783341Y-107204762D01*
X166402389Y-107204762D01*
X166223818Y-107109524D01*
X166140483Y-107014286D01*
X166069055Y-106823810D01*
X166140483Y-106252381D01*
X166259531Y-106061905D01*
X166366675Y-105966667D01*
X166569055Y-105871429D01*
X166950007Y-105871429D01*
X167128579Y-105966667D01*
X167842865Y-107109524D02*
X168021437Y-107204762D01*
X168402389Y-107204762D01*
X168604770Y-107109524D01*
X168723817Y-106919048D01*
X168735722Y-106823810D01*
X168664293Y-106633333D01*
X168485722Y-106538095D01*
X168200008Y-106538095D01*
X168021436Y-106442857D01*
X167950007Y-106252381D01*
X167961912Y-106157143D01*
X168080960Y-105966667D01*
X168283341Y-105871429D01*
X168569055Y-105871429D01*
X168747627Y-105966667D01*
D10*
D11*
X85057143Y-102592857D02*
X84557143Y-102592857D01*
X84557143Y-103378571D02*
X84557143Y-101878571D01*
X85271429Y-101878571D01*
X85842857Y-103378571D02*
X85842857Y-102378571D01*
X85842857Y-101878571D02*
X85771428Y-101950000D01*
X85842857Y-102021429D01*
X85914285Y-101950000D01*
X85842857Y-101878571D01*
X85842857Y-102021429D01*
X86771429Y-103378571D02*
X86628571Y-103307143D01*
X86557143Y-103164286D01*
X86557143Y-101878571D01*
X87914285Y-103307143D02*
X87771428Y-103378571D01*
X87485714Y-103378571D01*
X87342857Y-103307143D01*
X87271428Y-103164286D01*
X87271428Y-102592857D01*
X87342857Y-102450000D01*
X87485714Y-102378571D01*
X87771428Y-102378571D01*
X87914285Y-102450000D01*
X87985714Y-102592857D01*
X87985714Y-102735714D01*
X87271428Y-102878571D01*
X88628571Y-103235714D02*
X88699999Y-103307143D01*
X88628571Y-103378571D01*
X88557142Y-103307143D01*
X88628571Y-103235714D01*
X88628571Y-103378571D01*
X88628571Y-102450000D02*
X88699999Y-102521429D01*
X88628571Y-102592857D01*
X88557142Y-102521429D01*
X88628571Y-102450000D01*
X88628571Y-102592857D01*
X90985714Y-102592857D02*
X90485714Y-102592857D01*
X90485714Y-103378571D02*
X90485714Y-101878571D01*
X91200000Y-101878571D01*
X92342856Y-103307143D02*
X92199999Y-103378571D01*
X91914285Y-103378571D01*
X91771428Y-103307143D01*
X91699999Y-103164286D01*
X91699999Y-102592857D01*
X91771428Y-102450000D01*
X91914285Y-102378571D01*
X92199999Y-102378571D01*
X92342856Y-102450000D01*
X92414285Y-102592857D01*
X92414285Y-102735714D01*
X91699999Y-102878571D01*
X93699999Y-103378571D02*
X93699999Y-102592857D01*
X93628570Y-102450000D01*
X93485713Y-102378571D01*
X93199999Y-102378571D01*
X93057142Y-102450000D01*
X93699999Y-103307143D02*
X93557142Y-103378571D01*
X93199999Y-103378571D01*
X93057142Y-103307143D01*
X92985713Y-103164286D01*
X92985713Y-103021429D01*
X93057142Y-102878571D01*
X93199999Y-102807143D01*
X93557142Y-102807143D01*
X93699999Y-102735714D01*
X94199999Y-102378571D02*
X94771428Y-102378571D01*
X94414285Y-101878571D02*
X94414285Y-103164286D01*
X94485713Y-103307143D01*
X94628571Y-103378571D01*
X94771428Y-103378571D01*
X95271428Y-103378571D02*
X95271428Y-101878571D01*
X95914285Y-103378571D02*
X95914285Y-102592857D01*
X95842856Y-102450000D01*
X95699999Y-102378571D01*
X95485714Y-102378571D01*
X95342856Y-102450000D01*
X95271428Y-102521429D01*
X97199999Y-103307143D02*
X97057142Y-103378571D01*
X96771428Y-103378571D01*
X96628571Y-103307143D01*
X96557142Y-103164286D01*
X96557142Y-102592857D01*
X96628571Y-102450000D01*
X96771428Y-102378571D01*
X97057142Y-102378571D01*
X97199999Y-102450000D01*
X97271428Y-102592857D01*
X97271428Y-102735714D01*
X96557142Y-102878571D01*
X97914285Y-103378571D02*
X97914285Y-102378571D01*
X97914285Y-102664286D02*
X97985713Y-102521429D01*
X98057142Y-102450000D01*
X98199999Y-102378571D01*
X98342856Y-102378571D01*
X98771427Y-103307143D02*
X98985713Y-103378571D01*
X99342856Y-103378571D01*
X99485713Y-103307143D01*
X99557142Y-103235714D01*
X99628570Y-103092857D01*
X99628570Y-102950000D01*
X99557142Y-102807143D01*
X99485713Y-102735714D01*
X99342856Y-102664286D01*
X99057142Y-102592857D01*
X98914284Y-102521429D01*
X98842856Y-102450000D01*
X98771427Y-102307143D01*
X98771427Y-102164286D01*
X98842856Y-102021429D01*
X98914284Y-101950000D01*
X99057142Y-101878571D01*
X99414284Y-101878571D01*
X99628570Y-101950000D01*
X100128570Y-102378571D02*
X100414284Y-103378571D01*
X100699998Y-102664286D01*
X100985713Y-103378571D01*
X101271427Y-102378571D01*
X101842856Y-103378571D02*
X101842856Y-102378571D01*
X101842856Y-101878571D02*
X101771427Y-101950000D01*
X101842856Y-102021429D01*
X101914284Y-101950000D01*
X101842856Y-101878571D01*
X101842856Y-102021429D01*
X102342856Y-102378571D02*
X102914285Y-102378571D01*
X102557142Y-101878571D02*
X102557142Y-103164286D01*
X102628570Y-103307143D01*
X102771428Y-103378571D01*
X102914285Y-103378571D01*
X104057142Y-103307143D02*
X103914285Y-103378571D01*
X103628571Y-103378571D01*
X103485713Y-103307143D01*
X103414285Y-103235714D01*
X103342856Y-103092857D01*
X103342856Y-102664286D01*
X103414285Y-102521429D01*
X103485713Y-102450000D01*
X103628571Y-102378571D01*
X103914285Y-102378571D01*
X104057142Y-102450000D01*
X104699999Y-103378571D02*
X104699999Y-101878571D01*
X105342856Y-103378571D02*
X105342856Y-102592857D01*
X105271427Y-102450000D01*
X105128570Y-102378571D01*
X104914285Y-102378571D01*
X104771427Y-102450000D01*
X104699999Y-102521429D01*
X107199999Y-102807143D02*
X108342856Y-102807143D01*
X110057142Y-102378571D02*
X110414285Y-103378571D01*
X110771427Y-102378571D01*
X112128570Y-103378571D02*
X111271427Y-103378571D01*
X111699999Y-103378571D02*
X111699999Y-101878571D01*
X111557142Y-102092857D01*
X111414284Y-102235714D01*
X111271427Y-102307143D01*
X112771427Y-103235714D02*
X112842855Y-103307143D01*
X112771427Y-103378571D01*
X112699998Y-103307143D01*
X112771427Y-103235714D01*
X112771427Y-103378571D01*
X113771427Y-101878571D02*
X113914284Y-101878571D01*
X114057141Y-101950000D01*
X114128570Y-102021429D01*
X114199999Y-102164286D01*
X114271427Y-102450000D01*
X114271427Y-102807143D01*
X114199999Y-103092857D01*
X114128570Y-103235714D01*
X114057141Y-103307143D01*
X113914284Y-103378571D01*
X113771427Y-103378571D01*
X113628570Y-103307143D01*
X113557141Y-103235714D01*
X113485713Y-103092857D01*
X113414284Y-102807143D01*
X113414284Y-102450000D01*
X113485713Y-102164286D01*
X113557141Y-102021429D01*
X113628570Y-101950000D01*
X113771427Y-101878571D01*
X114914284Y-103235714D02*
X114985712Y-103307143D01*
X114914284Y-103378571D01*
X114842855Y-103307143D01*
X114914284Y-103235714D01*
X114914284Y-103378571D01*
X115914284Y-101878571D02*
X116057141Y-101878571D01*
X116199998Y-101950000D01*
X116271427Y-102021429D01*
X116342856Y-102164286D01*
X116414284Y-102450000D01*
X116414284Y-102807143D01*
X116342856Y-103092857D01*
X116271427Y-103235714D01*
X116199998Y-103307143D01*
X116057141Y-103378571D01*
X115914284Y-103378571D01*
X115771427Y-103307143D01*
X115699998Y-103235714D01*
X115628570Y-103092857D01*
X115557141Y-102807143D01*
X115557141Y-102450000D01*
X115628570Y-102164286D01*
X115699998Y-102021429D01*
X115771427Y-101950000D01*
X115914284Y-101878571D01*
X117057141Y-103235714D02*
X117128569Y-103307143D01*
X117057141Y-103378571D01*
X116985712Y-103307143D01*
X117057141Y-103235714D01*
X117057141Y-103378571D01*
X117771427Y-103378571D02*
X117771427Y-101878571D01*
X117914284Y-102807143D02*
X118342855Y-103378571D01*
X118342855Y-102378571D02*
X117771427Y-102950000D01*
X118985713Y-103378571D02*
X118985713Y-102378571D01*
X118985713Y-101878571D02*
X118914284Y-101950000D01*
X118985713Y-102021429D01*
X119057141Y-101950000D01*
X118985713Y-101878571D01*
X118985713Y-102021429D01*
X120342856Y-103307143D02*
X120199999Y-103378571D01*
X119914285Y-103378571D01*
X119771427Y-103307143D01*
X119699999Y-103235714D01*
X119628570Y-103092857D01*
X119628570Y-102664286D01*
X119699999Y-102521429D01*
X119771427Y-102450000D01*
X119914285Y-102378571D01*
X120199999Y-102378571D01*
X120342856Y-102450000D01*
X121628570Y-103378571D02*
X121628570Y-102592857D01*
X121557141Y-102450000D01*
X121414284Y-102378571D01*
X121128570Y-102378571D01*
X120985713Y-102450000D01*
X121628570Y-103307143D02*
X121485713Y-103378571D01*
X121128570Y-103378571D01*
X120985713Y-103307143D01*
X120914284Y-103164286D01*
X120914284Y-103021429D01*
X120985713Y-102878571D01*
X121128570Y-102807143D01*
X121485713Y-102807143D01*
X121628570Y-102735714D01*
X122985713Y-103378571D02*
X122985713Y-101878571D01*
X122985713Y-103307143D02*
X122842856Y-103378571D01*
X122557142Y-103378571D01*
X122414284Y-103307143D01*
X122342856Y-103235714D01*
X122271427Y-103092857D01*
X122271427Y-102664286D01*
X122342856Y-102521429D01*
X122414284Y-102450000D01*
X122557142Y-102378571D01*
X122842856Y-102378571D01*
X122985713Y-102450000D01*
X123342856Y-103521429D02*
X124485713Y-103521429D01*
X124842856Y-102378571D02*
X124842856Y-103878571D01*
X124842856Y-102450000D02*
X124985713Y-102378571D01*
X125271427Y-102378571D01*
X125414284Y-102450000D01*
X125485713Y-102521429D01*
X125557142Y-102664286D01*
X125557142Y-103092857D01*
X125485713Y-103235714D01*
X125414284Y-103307143D01*
X125271427Y-103378571D01*
X124985713Y-103378571D01*
X124842856Y-103307143D01*
X126842856Y-103307143D02*
X126699999Y-103378571D01*
X126414285Y-103378571D01*
X126271427Y-103307143D01*
X126199999Y-103235714D01*
X126128570Y-103092857D01*
X126128570Y-102664286D01*
X126199999Y-102521429D01*
X126271427Y-102450000D01*
X126414285Y-102378571D01*
X126699999Y-102378571D01*
X126842856Y-102450000D01*
X127485713Y-103378571D02*
X127485713Y-101878571D01*
X127485713Y-102450000D02*
X127628570Y-102378571D01*
X127914284Y-102378571D01*
X128057141Y-102450000D01*
X128128570Y-102521429D01*
X128199999Y-102664286D01*
X128199999Y-103092857D01*
X128128570Y-103235714D01*
X128057141Y-103307143D01*
X127914284Y-103378571D01*
X127628570Y-103378571D01*
X127485713Y-103307143D01*
D10*
D11*
X83200000Y-98500000D02*
X191200000Y-98500000D01*
D10*
D11*
X84485714Y-100607143D02*
X84700000Y-100678571D01*
X85057143Y-100678571D01*
X85200000Y-100607143D01*
X85271429Y-100535714D01*
X85342857Y-100392857D01*
X85342857Y-100250000D01*
X85271429Y-100107143D01*
X85200000Y-100035714D01*
X85057143Y-99964286D01*
X84771429Y-99892857D01*
X84628571Y-99821429D01*
X84557143Y-99750000D01*
X84485714Y-99607143D01*
X84485714Y-99464286D01*
X84557143Y-99321429D01*
X84628571Y-99250000D01*
X84771429Y-99178571D01*
X85128571Y-99178571D01*
X85342857Y-99250000D01*
X85985714Y-100678571D02*
X85985714Y-99178571D01*
X86628571Y-100678571D02*
X86628571Y-99892857D01*
X86557142Y-99750000D01*
X86414285Y-99678571D01*
X86200000Y-99678571D01*
X86057142Y-99750000D01*
X85985714Y-99821429D01*
X87914285Y-100607143D02*
X87771428Y-100678571D01*
X87485714Y-100678571D01*
X87342857Y-100607143D01*
X87271428Y-100464286D01*
X87271428Y-99892857D01*
X87342857Y-99750000D01*
X87485714Y-99678571D01*
X87771428Y-99678571D01*
X87914285Y-99750000D01*
X87985714Y-99892857D01*
X87985714Y-100035714D01*
X87271428Y-100178571D01*
X89199999Y-100607143D02*
X89057142Y-100678571D01*
X88771428Y-100678571D01*
X88628571Y-100607143D01*
X88557142Y-100464286D01*
X88557142Y-99892857D01*
X88628571Y-99750000D01*
X88771428Y-99678571D01*
X89057142Y-99678571D01*
X89199999Y-99750000D01*
X89271428Y-99892857D01*
X89271428Y-100035714D01*
X88557142Y-100178571D01*
X89699999Y-99678571D02*
X90271428Y-99678571D01*
X89914285Y-99178571D02*
X89914285Y-100464286D01*
X89985713Y-100607143D01*
X90128571Y-100678571D01*
X90271428Y-100678571D01*
X90771428Y-100535714D02*
X90842856Y-100607143D01*
X90771428Y-100678571D01*
X90699999Y-100607143D01*
X90771428Y-100535714D01*
X90771428Y-100678571D01*
X90771428Y-99750000D02*
X90842856Y-99821429D01*
X90771428Y-99892857D01*
X90699999Y-99821429D01*
X90771428Y-99750000D01*
X90771428Y-99892857D01*
D10*
D12*
X84485714Y-97607143D02*
X84700000Y-97678571D01*
X85057143Y-97678571D01*
X85200000Y-97607143D01*
X85271429Y-97535714D01*
X85342857Y-97392857D01*
X85342857Y-97250000D01*
X85271429Y-97107143D01*
X85200000Y-97035714D01*
X85057143Y-96964286D01*
X84771429Y-96892857D01*
X84628571Y-96821429D01*
X84557143Y-96750000D01*
X84485714Y-96607143D01*
X84485714Y-96464286D01*
X84557143Y-96321429D01*
X84628571Y-96250000D01*
X84771429Y-96178571D01*
X85128571Y-96178571D01*
X85342857Y-96250000D01*
X86557142Y-97607143D02*
X86414285Y-97678571D01*
X86128571Y-97678571D01*
X85985714Y-97607143D01*
X85914285Y-97464286D01*
X85914285Y-96892857D01*
X85985714Y-96750000D01*
X86128571Y-96678571D01*
X86414285Y-96678571D01*
X86557142Y-96750000D01*
X86628571Y-96892857D01*
X86628571Y-97035714D01*
X85914285Y-97178571D01*
X87271428Y-97678571D02*
X87271428Y-96678571D01*
X87271428Y-96821429D02*
X87342856Y-96750000D01*
X87485714Y-96678571D01*
X87699999Y-96678571D01*
X87842856Y-96750000D01*
X87914285Y-96892857D01*
X87914285Y-97678571D01*
X87914285Y-96892857D02*
X87985714Y-96750000D01*
X88128571Y-96678571D01*
X88342856Y-96678571D01*
X88485714Y-96750000D01*
X88557142Y-96892857D01*
X88557142Y-97678571D01*
X89271428Y-97678571D02*
X89271428Y-96178571D01*
X89271428Y-96750000D02*
X89414285Y-96678571D01*
X89699999Y-96678571D01*
X89842856Y-96750000D01*
X89914285Y-96821429D01*
X89985714Y-96964286D01*
X89985714Y-97392857D01*
X89914285Y-97535714D01*
X89842856Y-97607143D01*
X89699999Y-97678571D01*
X89414285Y-97678571D01*
X89271428Y-97607143D01*
X91271428Y-97678571D02*
X91271428Y-96892857D01*
X91199999Y-96750000D01*
X91057142Y-96678571D01*
X90771428Y-96678571D01*
X90628571Y-96750000D01*
X91271428Y-97607143D02*
X91128571Y-97678571D01*
X90771428Y-97678571D01*
X90628571Y-97607143D01*
X90557142Y-97464286D01*
X90557142Y-97321429D01*
X90628571Y-97178571D01*
X90771428Y-97107143D01*
X91128571Y-97107143D01*
X91271428Y-97035714D01*
X91842857Y-96678571D02*
X92628571Y-96678571D01*
X91842857Y-97678571D01*
X92628571Y-97678571D01*
X93842857Y-96678571D02*
X93842857Y-97678571D01*
X93200000Y-96678571D02*
X93200000Y-97464286D01*
X93271428Y-97607143D01*
X93414286Y-97678571D01*
X93628571Y-97678571D01*
X93771428Y-97607143D01*
X93842857Y-97535714D01*
X94557143Y-97678571D02*
X94557143Y-96678571D01*
X94557143Y-96964286D02*
X94628571Y-96821429D01*
X94700000Y-96750000D01*
X94842857Y-96678571D01*
X94985714Y-96678571D01*
X96128571Y-96678571D02*
X96128571Y-97678571D01*
X95485714Y-96678571D02*
X95485714Y-97464286D01*
X95557142Y-97607143D01*
X95700000Y-97678571D01*
X95914285Y-97678571D01*
X96057142Y-97607143D01*
X96128571Y-97535714D01*
X98842857Y-97535714D02*
X98771428Y-97607143D01*
X98557142Y-97678571D01*
X98414285Y-97678571D01*
X98200000Y-97607143D01*
X98057142Y-97464286D01*
X97985714Y-97321429D01*
X97914285Y-97035714D01*
X97914285Y-96821429D01*
X97985714Y-96535714D01*
X98057142Y-96392857D01*
X98200000Y-96250000D01*
X98414285Y-96178571D01*
X98557142Y-96178571D01*
X98771428Y-96250000D01*
X98842857Y-96321429D01*
X99485714Y-97678571D02*
X99485714Y-96678571D01*
X99485714Y-96178571D02*
X99414285Y-96250000D01*
X99485714Y-96321429D01*
X99557142Y-96250000D01*
X99485714Y-96178571D01*
X99485714Y-96321429D01*
X100200000Y-97678571D02*
X100200000Y-96678571D01*
X100200000Y-96964286D02*
X100271428Y-96821429D01*
X100342857Y-96750000D01*
X100485714Y-96678571D01*
X100628571Y-96678571D01*
X101771428Y-97607143D02*
X101628571Y-97678571D01*
X101342857Y-97678571D01*
X101199999Y-97607143D01*
X101128571Y-97535714D01*
X101057142Y-97392857D01*
X101057142Y-96964286D01*
X101128571Y-96821429D01*
X101199999Y-96750000D01*
X101342857Y-96678571D01*
X101628571Y-96678571D01*
X101771428Y-96750000D01*
X103057142Y-96678571D02*
X103057142Y-97678571D01*
X102414285Y-96678571D02*
X102414285Y-97464286D01*
X102485713Y-97607143D01*
X102628571Y-97678571D01*
X102842856Y-97678571D01*
X102985713Y-97607143D01*
X103057142Y-97535714D01*
X103771428Y-97678571D02*
X103771428Y-96678571D01*
X103771428Y-96178571D02*
X103699999Y-96250000D01*
X103771428Y-96321429D01*
X103842856Y-96250000D01*
X103771428Y-96178571D01*
X103771428Y-96321429D01*
X104271428Y-96678571D02*
X104842857Y-96678571D01*
X104485714Y-96178571D02*
X104485714Y-97464286D01*
X104557142Y-97607143D01*
X104700000Y-97678571D01*
X104842857Y-97678571D01*
X105271428Y-97607143D02*
X105414285Y-97678571D01*
X105700000Y-97678571D01*
X105842857Y-97607143D01*
X105914285Y-97464286D01*
X105914285Y-97392857D01*
X105842857Y-97250000D01*
X105700000Y-97178571D01*
X105485714Y-97178571D01*
X105342857Y-97107143D01*
X105271428Y-96964286D01*
X105271428Y-96892857D01*
X105342857Y-96750000D01*
X105485714Y-96678571D01*
X105700000Y-96678571D01*
X105842857Y-96750000D01*
D10*
D11*
X84414286Y-93678571D02*
X84771429Y-94678571D01*
X85128571Y-93678571D01*
X86485714Y-94678571D02*
X85628571Y-94678571D01*
X86057143Y-94678571D02*
X86057143Y-93178571D01*
X85914286Y-93392857D01*
X85771428Y-93535714D01*
X85628571Y-93607143D01*
X87128571Y-94535714D02*
X87199999Y-94607143D01*
X87128571Y-94678571D01*
X87057142Y-94607143D01*
X87128571Y-94535714D01*
X87128571Y-94678571D01*
X88128571Y-93178571D02*
X88271428Y-93178571D01*
X88414285Y-93250000D01*
X88485714Y-93321429D01*
X88557143Y-93464286D01*
X88628571Y-93750000D01*
X88628571Y-94107143D01*
X88557143Y-94392857D01*
X88485714Y-94535714D01*
X88414285Y-94607143D01*
X88271428Y-94678571D01*
X88128571Y-94678571D01*
X87985714Y-94607143D01*
X87914285Y-94535714D01*
X87842857Y-94392857D01*
X87771428Y-94107143D01*
X87771428Y-93750000D01*
X87842857Y-93464286D01*
X87914285Y-93321429D01*
X87985714Y-93250000D01*
X88128571Y-93178571D01*
X89271428Y-94535714D02*
X89342856Y-94607143D01*
X89271428Y-94678571D01*
X89199999Y-94607143D01*
X89271428Y-94535714D01*
X89271428Y-94678571D01*
X90271428Y-93178571D02*
X90414285Y-93178571D01*
X90557142Y-93250000D01*
X90628571Y-93321429D01*
X90700000Y-93464286D01*
X90771428Y-93750000D01*
X90771428Y-94107143D01*
X90700000Y-94392857D01*
X90628571Y-94535714D01*
X90557142Y-94607143D01*
X90414285Y-94678571D01*
X90271428Y-94678571D01*
X90128571Y-94607143D01*
X90057142Y-94535714D01*
X89985714Y-94392857D01*
X89914285Y-94107143D01*
X89914285Y-93750000D01*
X89985714Y-93464286D01*
X90057142Y-93321429D01*
X90128571Y-93250000D01*
X90271428Y-93178571D01*
X92557142Y-94107143D02*
X93699999Y-94107143D01*
X95557142Y-94678571D02*
X95557142Y-93178571D01*
X96271428Y-93678571D02*
X96271428Y-94678571D01*
X96271428Y-93821429D02*
X96342856Y-93750000D01*
X96485714Y-93678571D01*
X96699999Y-93678571D01*
X96842856Y-93750000D01*
X96914285Y-93892857D01*
X96914285Y-94678571D01*
X97628571Y-94678571D02*
X97628571Y-93678571D01*
X97628571Y-93178571D02*
X97557142Y-93250000D01*
X97628571Y-93321429D01*
X97699999Y-93250000D01*
X97628571Y-93178571D01*
X97628571Y-93321429D01*
X98128571Y-93678571D02*
X98700000Y-93678571D01*
X98342857Y-93178571D02*
X98342857Y-94464286D01*
X98414285Y-94607143D01*
X98557143Y-94678571D01*
X98700000Y-94678571D01*
X99200000Y-94678571D02*
X99200000Y-93678571D01*
X99200000Y-93178571D02*
X99128571Y-93250000D01*
X99200000Y-93321429D01*
X99271428Y-93250000D01*
X99200000Y-93178571D01*
X99200000Y-93321429D01*
X100557143Y-94678571D02*
X100557143Y-93892857D01*
X100485714Y-93750000D01*
X100342857Y-93678571D01*
X100057143Y-93678571D01*
X99914286Y-93750000D01*
X100557143Y-94607143D02*
X100414286Y-94678571D01*
X100057143Y-94678571D01*
X99914286Y-94607143D01*
X99842857Y-94464286D01*
X99842857Y-94321429D01*
X99914286Y-94178571D01*
X100057143Y-94107143D01*
X100414286Y-94107143D01*
X100557143Y-94035714D01*
X101485715Y-94678571D02*
X101342857Y-94607143D01*
X101271429Y-94464286D01*
X101271429Y-93178571D01*
X103200000Y-94678571D02*
X103200000Y-93678571D01*
X103200000Y-93964286D02*
X103271428Y-93821429D01*
X103342857Y-93750000D01*
X103485714Y-93678571D01*
X103628571Y-93678571D01*
X104699999Y-94607143D02*
X104557142Y-94678571D01*
X104271428Y-94678571D01*
X104128571Y-94607143D01*
X104057142Y-94464286D01*
X104057142Y-93892857D01*
X104128571Y-93750000D01*
X104271428Y-93678571D01*
X104557142Y-93678571D01*
X104699999Y-93750000D01*
X104771428Y-93892857D01*
X104771428Y-94035714D01*
X104057142Y-94178571D01*
X105628571Y-94678571D02*
X105485713Y-94607143D01*
X105414285Y-94464286D01*
X105414285Y-93178571D01*
X106771427Y-94607143D02*
X106628570Y-94678571D01*
X106342856Y-94678571D01*
X106199999Y-94607143D01*
X106128570Y-94464286D01*
X106128570Y-93892857D01*
X106199999Y-93750000D01*
X106342856Y-93678571D01*
X106628570Y-93678571D01*
X106771427Y-93750000D01*
X106842856Y-93892857D01*
X106842856Y-94035714D01*
X106128570Y-94178571D01*
X108128570Y-94678571D02*
X108128570Y-93892857D01*
X108057141Y-93750000D01*
X107914284Y-93678571D01*
X107628570Y-93678571D01*
X107485713Y-93750000D01*
X108128570Y-94607143D02*
X107985713Y-94678571D01*
X107628570Y-94678571D01*
X107485713Y-94607143D01*
X107414284Y-94464286D01*
X107414284Y-94321429D01*
X107485713Y-94178571D01*
X107628570Y-94107143D01*
X107985713Y-94107143D01*
X108128570Y-94035714D01*
X108771427Y-94607143D02*
X108914284Y-94678571D01*
X109199999Y-94678571D01*
X109342856Y-94607143D01*
X109414284Y-94464286D01*
X109414284Y-94392857D01*
X109342856Y-94250000D01*
X109199999Y-94178571D01*
X108985713Y-94178571D01*
X108842856Y-94107143D01*
X108771427Y-93964286D01*
X108771427Y-93892857D01*
X108842856Y-93750000D01*
X108985713Y-93678571D01*
X109199999Y-93678571D01*
X109342856Y-93750000D01*
X110628570Y-94607143D02*
X110485713Y-94678571D01*
X110199999Y-94678571D01*
X110057142Y-94607143D01*
X109985713Y-94464286D01*
X109985713Y-93892857D01*
X110057142Y-93750000D01*
X110199999Y-93678571D01*
X110485713Y-93678571D01*
X110628570Y-93750000D01*
X110699999Y-93892857D01*
X110699999Y-94035714D01*
X109985713Y-94178571D01*
X111342856Y-94535714D02*
X111414284Y-94607143D01*
X111342856Y-94678571D01*
X111271427Y-94607143D01*
X111342856Y-94535714D01*
X111342856Y-94678571D01*
D10*
D11*
X103200000Y-108500000D02*
X103200000Y-111500000D01*
D10*
D11*
X167200000Y-108500000D02*
X167200000Y-115000000D01*
D14*
X68059906Y-59419974D02*
X67987335Y-59450212D01*
X67866382Y-59450212D01*
X67818001Y-59419974D01*
X67793811Y-59389736D01*
X67769620Y-59329260D01*
X67769620Y-59268783D01*
X67793811Y-59208307D01*
X67818001Y-59178069D01*
X67866382Y-59147831D01*
X67963144Y-59117593D01*
X68011525Y-59087355D01*
X68035716Y-59057117D01*
X68059906Y-58996640D01*
X68059906Y-58936164D01*
X68035716Y-58875688D01*
X68011525Y-58845450D01*
X67963144Y-58815212D01*
X67842192Y-58815212D01*
X67769620Y-58845450D01*
X67261620Y-59389736D02*
X67285810Y-59419974D01*
X67358382Y-59450212D01*
X67406763Y-59450212D01*
X67479334Y-59419974D01*
X67527715Y-59359498D01*
X67551906Y-59299021D01*
X67576096Y-59178069D01*
X67576096Y-59087355D01*
X67551906Y-58966402D01*
X67527715Y-58905926D01*
X67479334Y-58845450D01*
X67406763Y-58815212D01*
X67358382Y-58815212D01*
X67285810Y-58845450D01*
X67261620Y-58875688D01*
X67043906Y-59450212D02*
X67043906Y-58815212D01*
X67043906Y-59117593D02*
X66753620Y-59117593D01*
X66753620Y-59450212D02*
X66753620Y-58815212D01*
X66173049Y-59026879D02*
X66052096Y-59450212D01*
X65931144Y-59026879D01*
X65471524Y-59450212D02*
X65761810Y-59450212D01*
X65616667Y-59450212D02*
X65616667Y-58815212D01*
X65665048Y-58905926D01*
X65713429Y-58966402D01*
X65761810Y-58996640D01*
X65253810Y-59389736D02*
X65229619Y-59419974D01*
X65253810Y-59450212D01*
X65278000Y-59419974D01*
X65253810Y-59389736D01*
X65253810Y-59450212D01*
X64915143Y-58815212D02*
X64866762Y-58815212D01*
X64818381Y-58845450D01*
X64794190Y-58875688D01*
X64770000Y-58936164D01*
X64745809Y-59057117D01*
X64745809Y-59208307D01*
X64770000Y-59329260D01*
X64794190Y-59389736D01*
X64818381Y-59419974D01*
X64866762Y-59450212D01*
X64915143Y-59450212D01*
X64963524Y-59419974D01*
X64987714Y-59389736D01*
X65011905Y-59329260D01*
X65036095Y-59208307D01*
X65036095Y-59057117D01*
X65011905Y-58936164D01*
X64987714Y-58875688D01*
X64963524Y-58845450D01*
X64915143Y-58815212D01*
X64528095Y-59389736D02*
X64503904Y-59419974D01*
X64528095Y-59450212D01*
X64552285Y-59419974D01*
X64528095Y-59389736D01*
X64528095Y-59450212D01*
X64189428Y-58815212D02*
X64141047Y-58815212D01*
X64092666Y-58845450D01*
X64068475Y-58875688D01*
X64044285Y-58936164D01*
X64020094Y-59057117D01*
X64020094Y-59208307D01*
X64044285Y-59329260D01*
X64068475Y-59389736D01*
X64092666Y-59419974D01*
X64141047Y-59450212D01*
X64189428Y-59450212D01*
X64237809Y-59419974D01*
X64261999Y-59389736D01*
X64286190Y-59329260D01*
X64310380Y-59208307D01*
X64310380Y-59057117D01*
X64286190Y-58936164D01*
X64261999Y-58875688D01*
X64237809Y-58845450D01*
X64189428Y-58815212D01*
X68035716Y-60504312D02*
X68035716Y-59869312D01*
X67842192Y-59869312D01*
X67793811Y-59899550D01*
X67769620Y-59929788D01*
X67745430Y-59990264D01*
X67745430Y-60080979D01*
X67769620Y-60141455D01*
X67793811Y-60171693D01*
X67842192Y-60201931D01*
X68035716Y-60201931D01*
X67237430Y-60443836D02*
X67261620Y-60474074D01*
X67334192Y-60504312D01*
X67382573Y-60504312D01*
X67455144Y-60474074D01*
X67503525Y-60413598D01*
X67527716Y-60353121D01*
X67551906Y-60232169D01*
X67551906Y-60141455D01*
X67527716Y-60020502D01*
X67503525Y-59960026D01*
X67455144Y-59899550D01*
X67382573Y-59869312D01*
X67334192Y-59869312D01*
X67261620Y-59899550D01*
X67237430Y-59929788D01*
X66850382Y-60171693D02*
X66777811Y-60201931D01*
X66753620Y-60232169D01*
X66729430Y-60292645D01*
X66729430Y-60383360D01*
X66753620Y-60443836D01*
X66777811Y-60474074D01*
X66826192Y-60504312D01*
X67019716Y-60504312D01*
X67019716Y-59869312D01*
X66850382Y-59869312D01*
X66802001Y-59899550D01*
X66777811Y-59929788D01*
X66753620Y-59990264D01*
X66753620Y-60050740D01*
X66777811Y-60111217D01*
X66802001Y-60141455D01*
X66850382Y-60171693D01*
X67019716Y-60171693D01*
X66173049Y-60080979D02*
X66052096Y-60504312D01*
X65931144Y-60080979D01*
X65471524Y-60504312D02*
X65761810Y-60504312D01*
X65616667Y-60504312D02*
X65616667Y-59869312D01*
X65665048Y-59960026D01*
X65713429Y-60020502D01*
X65761810Y-60050740D01*
X65253810Y-60443836D02*
X65229619Y-60474074D01*
X65253810Y-60504312D01*
X65278000Y-60474074D01*
X65253810Y-60443836D01*
X65253810Y-60504312D01*
X64915143Y-59869312D02*
X64866762Y-59869312D01*
X64818381Y-59899550D01*
X64794190Y-59929788D01*
X64770000Y-59990264D01*
X64745809Y-60111217D01*
X64745809Y-60262407D01*
X64770000Y-60383360D01*
X64794190Y-60443836D01*
X64818381Y-60474074D01*
X64866762Y-60504312D01*
X64915143Y-60504312D01*
X64963524Y-60474074D01*
X64987714Y-60443836D01*
X65011905Y-60383360D01*
X65036095Y-60262407D01*
X65036095Y-60111217D01*
X65011905Y-59990264D01*
X64987714Y-59929788D01*
X64963524Y-59899550D01*
X64915143Y-59869312D01*
X64528095Y-60443836D02*
X64503904Y-60474074D01*
X64528095Y-60504312D01*
X64552285Y-60474074D01*
X64528095Y-60443836D01*
X64528095Y-60504312D01*
X64189428Y-59869312D02*
X64141047Y-59869312D01*
X64092666Y-59899550D01*
X64068475Y-59929788D01*
X64044285Y-59990264D01*
X64020094Y-60111217D01*
X64020094Y-60262407D01*
X64044285Y-60383360D01*
X64068475Y-60443836D01*
X64092666Y-60474074D01*
X64141047Y-60504312D01*
X64189428Y-60504312D01*
X64237809Y-60474074D01*
X64261999Y-60443836D01*
X64286190Y-60383360D01*
X64310380Y-60262407D01*
X64310380Y-60111217D01*
X64286190Y-59990264D01*
X64261999Y-59929788D01*
X64237809Y-59899550D01*
X64189428Y-59869312D01*
D15*
X76732189Y-46511029D02*
X76393523Y-46511029D01*
X76248380Y-47043219D02*
X76732189Y-47043219D01*
X76732189Y-46027219D01*
X76248380Y-46027219D01*
X75812951Y-46365886D02*
X75812951Y-47043219D01*
X75812951Y-46462648D02*
X75764570Y-46414267D01*
X75667808Y-46365886D01*
X75522666Y-46365886D01*
X75425904Y-46414267D01*
X75377523Y-46511029D01*
X75377523Y-47043219D01*
X74458285Y-47043219D02*
X74458285Y-46511029D01*
X74506666Y-46414267D01*
X74603428Y-46365886D01*
X74796951Y-46365886D01*
X74893713Y-46414267D01*
X74458285Y-46994838D02*
X74555047Y-47043219D01*
X74796951Y-47043219D01*
X74893713Y-46994838D01*
X74942094Y-46898076D01*
X74942094Y-46801314D01*
X74893713Y-46704552D01*
X74796951Y-46656171D01*
X74555047Y-46656171D01*
X74458285Y-46607790D01*
X73974475Y-47043219D02*
X73974475Y-46027219D01*
X73974475Y-46414267D02*
X73877713Y-46365886D01*
X73684190Y-46365886D01*
X73587428Y-46414267D01*
X73539047Y-46462648D01*
X73490666Y-46559410D01*
X73490666Y-46849695D01*
X73539047Y-46946457D01*
X73587428Y-46994838D01*
X73684190Y-47043219D01*
X73877713Y-47043219D01*
X73974475Y-46994838D01*
X72910094Y-47043219D02*
X73006856Y-46994838D01*
X73055237Y-46898076D01*
X73055237Y-46027219D01*
X72136000Y-46994838D02*
X72232762Y-47043219D01*
X72426285Y-47043219D01*
X72523047Y-46994838D01*
X72571428Y-46898076D01*
X72571428Y-46511029D01*
X72523047Y-46414267D01*
X72426285Y-46365886D01*
X72232762Y-46365886D01*
X72136000Y-46414267D01*
X72087619Y-46511029D01*
X72087619Y-46607790D01*
X72571428Y-46704552D01*
X70926476Y-45978838D02*
X71797333Y-47285124D01*
X70587809Y-47043219D02*
X70587809Y-46027219D01*
X70345904Y-46027219D01*
X70200762Y-46075600D01*
X70104000Y-46172362D01*
X70055619Y-46269124D01*
X70007238Y-46462648D01*
X70007238Y-46607790D01*
X70055619Y-46801314D01*
X70104000Y-46898076D01*
X70200762Y-46994838D01*
X70345904Y-47043219D01*
X70587809Y-47043219D01*
X69571809Y-47043219D02*
X69571809Y-46365886D01*
X69571809Y-46027219D02*
X69620190Y-46075600D01*
X69571809Y-46123981D01*
X69523428Y-46075600D01*
X69571809Y-46027219D01*
X69571809Y-46123981D01*
X69136380Y-46994838D02*
X69039618Y-47043219D01*
X68846094Y-47043219D01*
X68749333Y-46994838D01*
X68700952Y-46898076D01*
X68700952Y-46849695D01*
X68749333Y-46752933D01*
X68846094Y-46704552D01*
X68991237Y-46704552D01*
X69087999Y-46656171D01*
X69136380Y-46559410D01*
X69136380Y-46511029D01*
X69087999Y-46414267D01*
X68991237Y-46365886D01*
X68846094Y-46365886D01*
X68749333Y-46414267D01*
X67830095Y-47043219D02*
X67830095Y-46511029D01*
X67878476Y-46414267D01*
X67975238Y-46365886D01*
X68168761Y-46365886D01*
X68265523Y-46414267D01*
X67830095Y-46994838D02*
X67926857Y-47043219D01*
X68168761Y-47043219D01*
X68265523Y-46994838D01*
X68313904Y-46898076D01*
X68313904Y-46801314D01*
X68265523Y-46704552D01*
X68168761Y-46656171D01*
X67926857Y-46656171D01*
X67830095Y-46607790D01*
X67346285Y-47043219D02*
X67346285Y-46027219D01*
X67346285Y-46414267D02*
X67249523Y-46365886D01*
X67056000Y-46365886D01*
X66959238Y-46414267D01*
X66910857Y-46462648D01*
X66862476Y-46559410D01*
X66862476Y-46849695D01*
X66910857Y-46946457D01*
X66959238Y-46994838D01*
X67056000Y-47043219D01*
X67249523Y-47043219D01*
X67346285Y-46994838D01*
X66281904Y-47043219D02*
X66378666Y-46994838D01*
X66427047Y-46898076D01*
X66427047Y-46027219D01*
X65507810Y-46994838D02*
X65604572Y-47043219D01*
X65798095Y-47043219D01*
X65894857Y-46994838D01*
X65943238Y-46898076D01*
X65943238Y-46511029D01*
X65894857Y-46414267D01*
X65798095Y-46365886D01*
X65604572Y-46365886D01*
X65507810Y-46414267D01*
X65459429Y-46511029D01*
X65459429Y-46607790D01*
X65943238Y-46704552D01*
X74821142Y-48671238D02*
X74675999Y-48719619D01*
X74434095Y-48719619D01*
X74337333Y-48671238D01*
X74288952Y-48622857D01*
X74240571Y-48526095D01*
X74240571Y-48429333D01*
X74288952Y-48332571D01*
X74337333Y-48284190D01*
X74434095Y-48235810D01*
X74627618Y-48187429D01*
X74724380Y-48139048D01*
X74772761Y-48090667D01*
X74821142Y-47993905D01*
X74821142Y-47897143D01*
X74772761Y-47800381D01*
X74724380Y-47752000D01*
X74627618Y-47703619D01*
X74385714Y-47703619D01*
X74240571Y-47752000D01*
X73901904Y-48042286D02*
X73708380Y-48719619D01*
X73514857Y-48235810D01*
X73321333Y-48719619D01*
X73127809Y-48042286D01*
X72740761Y-48719619D02*
X72740761Y-48042286D01*
X72740761Y-47703619D02*
X72789142Y-47752000D01*
X72740761Y-47800381D01*
X72692380Y-47752000D01*
X72740761Y-47703619D01*
X72740761Y-47800381D01*
X72402094Y-48042286D02*
X72015046Y-48042286D01*
X72256951Y-47703619D02*
X72256951Y-48574476D01*
X72208570Y-48671238D01*
X72111808Y-48719619D01*
X72015046Y-48719619D01*
X71240952Y-48671238D02*
X71337714Y-48719619D01*
X71531237Y-48719619D01*
X71627999Y-48671238D01*
X71676380Y-48622857D01*
X71724761Y-48526095D01*
X71724761Y-48235810D01*
X71676380Y-48139048D01*
X71627999Y-48090667D01*
X71531237Y-48042286D01*
X71337714Y-48042286D01*
X71240952Y-48090667D01*
X70805523Y-48719619D02*
X70805523Y-47703619D01*
X70370095Y-48719619D02*
X70370095Y-48187429D01*
X70418476Y-48090667D01*
X70515238Y-48042286D01*
X70660380Y-48042286D01*
X70757142Y-48090667D01*
X70805523Y-48139048D01*
X69257333Y-48042286D02*
X68870285Y-48042286D01*
X69112190Y-48719619D02*
X69112190Y-47848762D01*
X69063809Y-47752000D01*
X68967047Y-47703619D01*
X68870285Y-47703619D01*
X68386476Y-48719619D02*
X68483238Y-48671238D01*
X68531619Y-48622857D01*
X68580000Y-48526095D01*
X68580000Y-48235810D01*
X68531619Y-48139048D01*
X68483238Y-48090667D01*
X68386476Y-48042286D01*
X68241334Y-48042286D01*
X68144572Y-48090667D01*
X68096191Y-48139048D01*
X68047810Y-48235810D01*
X68047810Y-48526095D01*
X68096191Y-48622857D01*
X68144572Y-48671238D01*
X68241334Y-48719619D01*
X68386476Y-48719619D01*
X67612381Y-48719619D02*
X67612381Y-48042286D01*
X67612381Y-48235810D02*
X67564000Y-48139048D01*
X67515619Y-48090667D01*
X67418857Y-48042286D01*
X67322096Y-48042286D01*
X77651427Y-50105733D02*
X77167618Y-50105733D01*
X77748189Y-50396019D02*
X77409522Y-49380019D01*
X77070856Y-50396019D01*
X76296761Y-50396019D02*
X76296761Y-49380019D01*
X76296761Y-50347638D02*
X76393523Y-50396019D01*
X76587046Y-50396019D01*
X76683808Y-50347638D01*
X76732189Y-50299257D01*
X76780570Y-50202495D01*
X76780570Y-49912210D01*
X76732189Y-49815448D01*
X76683808Y-49767067D01*
X76587046Y-49718686D01*
X76393523Y-49718686D01*
X76296761Y-49767067D01*
X75377523Y-50396019D02*
X75377523Y-49863829D01*
X75425904Y-49767067D01*
X75522666Y-49718686D01*
X75716189Y-49718686D01*
X75812951Y-49767067D01*
X75377523Y-50347638D02*
X75474285Y-50396019D01*
X75716189Y-50396019D01*
X75812951Y-50347638D01*
X75861332Y-50250876D01*
X75861332Y-50154114D01*
X75812951Y-50057352D01*
X75716189Y-50008971D01*
X75474285Y-50008971D01*
X75377523Y-49960590D01*
X74555047Y-49863829D02*
X74893713Y-49863829D01*
X74893713Y-50396019D02*
X74893713Y-49380019D01*
X74409904Y-49380019D01*
X74022856Y-50396019D02*
X74022856Y-49718686D01*
X74022856Y-49912210D02*
X73974475Y-49815448D01*
X73926094Y-49767067D01*
X73829332Y-49718686D01*
X73732571Y-49718686D01*
X72958476Y-49718686D02*
X72958476Y-50396019D01*
X73393904Y-49718686D02*
X73393904Y-50250876D01*
X73345523Y-50347638D01*
X73248761Y-50396019D01*
X73103619Y-50396019D01*
X73006857Y-50347638D01*
X72958476Y-50299257D01*
X72474666Y-50396019D02*
X72474666Y-49718686D01*
X72474666Y-49380019D02*
X72523047Y-49428400D01*
X72474666Y-49476781D01*
X72426285Y-49428400D01*
X72474666Y-49380019D01*
X72474666Y-49476781D01*
X72135999Y-49718686D02*
X71748951Y-49718686D01*
X71990856Y-49380019D02*
X71990856Y-50250876D01*
X71942475Y-50347638D01*
X71845713Y-50396019D01*
X71748951Y-50396019D01*
X70297524Y-49863829D02*
X70636190Y-49863829D01*
X70636190Y-50396019D02*
X70636190Y-49380019D01*
X70152381Y-49380019D01*
X69378286Y-50347638D02*
X69475048Y-50396019D01*
X69668571Y-50396019D01*
X69765333Y-50347638D01*
X69813714Y-50250876D01*
X69813714Y-49863829D01*
X69765333Y-49767067D01*
X69668571Y-49718686D01*
X69475048Y-49718686D01*
X69378286Y-49767067D01*
X69329905Y-49863829D01*
X69329905Y-49960590D01*
X69813714Y-50057352D01*
X68459048Y-50396019D02*
X68459048Y-49863829D01*
X68507429Y-49767067D01*
X68604191Y-49718686D01*
X68797714Y-49718686D01*
X68894476Y-49767067D01*
X68459048Y-50347638D02*
X68555810Y-50396019D01*
X68797714Y-50396019D01*
X68894476Y-50347638D01*
X68942857Y-50250876D01*
X68942857Y-50154114D01*
X68894476Y-50057352D01*
X68797714Y-50008971D01*
X68555810Y-50008971D01*
X68459048Y-49960590D01*
X68120381Y-49718686D02*
X67733333Y-49718686D01*
X67975238Y-49380019D02*
X67975238Y-50250876D01*
X67926857Y-50347638D01*
X67830095Y-50396019D01*
X67733333Y-50396019D01*
X67394667Y-50396019D02*
X67394667Y-49380019D01*
X66959239Y-50396019D02*
X66959239Y-49863829D01*
X67007620Y-49767067D01*
X67104382Y-49718686D01*
X67249524Y-49718686D01*
X67346286Y-49767067D01*
X67394667Y-49815448D01*
X66088382Y-50347638D02*
X66185144Y-50396019D01*
X66378667Y-50396019D01*
X66475429Y-50347638D01*
X66523810Y-50250876D01*
X66523810Y-49863829D01*
X66475429Y-49767067D01*
X66378667Y-49718686D01*
X66185144Y-49718686D01*
X66088382Y-49767067D01*
X66040001Y-49863829D01*
X66040001Y-49960590D01*
X66523810Y-50057352D01*
X65604572Y-50396019D02*
X65604572Y-49718686D01*
X65604572Y-49912210D02*
X65556191Y-49815448D01*
X65507810Y-49767067D01*
X65411048Y-49718686D01*
X65314287Y-49718686D01*
X65024001Y-50347638D02*
X64927239Y-50396019D01*
X64733715Y-50396019D01*
X64636954Y-50347638D01*
X64588573Y-50250876D01*
X64588573Y-50202495D01*
X64636954Y-50105733D01*
X64733715Y-50057352D01*
X64878858Y-50057352D01*
X64975620Y-50008971D01*
X65024001Y-49912210D01*
X65024001Y-49863829D01*
X64975620Y-49767067D01*
X64878858Y-49718686D01*
X64733715Y-49718686D01*
X64636954Y-49767067D01*
D14*
X77312762Y-56772024D02*
X77243971Y-56802262D01*
X77123018Y-56802262D01*
X77070857Y-56772024D01*
X77042888Y-56741786D01*
X77011137Y-56681310D01*
X77003578Y-56620833D01*
X77020209Y-56560357D01*
X77040619Y-56530119D01*
X77085221Y-56499881D01*
X77178203Y-56469643D01*
X77222804Y-56439405D01*
X77243215Y-56409167D01*
X77259846Y-56348690D01*
X77252286Y-56288214D01*
X77220537Y-56227738D01*
X77192566Y-56197500D01*
X77140405Y-56167262D01*
X77019453Y-56167262D01*
X76950661Y-56197500D01*
X76611238Y-56772024D02*
X76663399Y-56802262D01*
X76760161Y-56802262D01*
X76804762Y-56772024D01*
X76821393Y-56711548D01*
X76791155Y-56469643D01*
X76759405Y-56409167D01*
X76707245Y-56378929D01*
X76610483Y-56378929D01*
X76565881Y-56409167D01*
X76549250Y-56469643D01*
X76556809Y-56530119D01*
X76806274Y-56590595D01*
X76373113Y-56802262D02*
X76320197Y-56378929D01*
X76327756Y-56439405D02*
X76299785Y-56409167D01*
X76247625Y-56378929D01*
X76175054Y-56378929D01*
X76130452Y-56409167D01*
X76113821Y-56469643D01*
X76155398Y-56802262D01*
X76113821Y-56469643D02*
X76082071Y-56409167D01*
X76029911Y-56378929D01*
X75957339Y-56378929D01*
X75912738Y-56409167D01*
X75896107Y-56469643D01*
X75937684Y-56802262D01*
X75695780Y-56802262D02*
X75616405Y-56167262D01*
X75646643Y-56409167D02*
X75594483Y-56378929D01*
X75497721Y-56378929D01*
X75453119Y-56409167D01*
X75432708Y-56439405D01*
X75416078Y-56499881D01*
X75438756Y-56681310D01*
X75470506Y-56741786D01*
X75498476Y-56772024D01*
X75550637Y-56802262D01*
X75647399Y-56802262D01*
X75692000Y-56772024D01*
X75018446Y-56802262D02*
X74976869Y-56469643D01*
X74993500Y-56409167D01*
X75038102Y-56378929D01*
X75134864Y-56378929D01*
X75187024Y-56409167D01*
X75014666Y-56772024D02*
X75066827Y-56802262D01*
X75187780Y-56802262D01*
X75232381Y-56772024D01*
X75249012Y-56711548D01*
X75241452Y-56651071D01*
X75209703Y-56590595D01*
X75157542Y-56560357D01*
X75036589Y-56560357D01*
X74984428Y-56530119D01*
X74772007Y-56378929D02*
X74505911Y-56378929D01*
X74824923Y-56802262D01*
X74558827Y-56802262D01*
X74094673Y-56378929D02*
X74147589Y-56802262D01*
X74312388Y-56378929D02*
X74353965Y-56711548D01*
X74337333Y-56772024D01*
X74292732Y-56802262D01*
X74220161Y-56802262D01*
X74168000Y-56772024D01*
X74140030Y-56741786D01*
X73905685Y-56802262D02*
X73852769Y-56378929D01*
X73867888Y-56499881D02*
X73836137Y-56439405D01*
X73808167Y-56409167D01*
X73756007Y-56378929D01*
X73707626Y-56378929D01*
X73320578Y-56378929D02*
X73373494Y-56802262D01*
X73538293Y-56378929D02*
X73579870Y-56711548D01*
X73563238Y-56772024D01*
X73518637Y-56802262D01*
X73446066Y-56802262D01*
X73393905Y-56772024D01*
X73365935Y-56741786D01*
X72446697Y-56741786D02*
X72474666Y-56772024D01*
X72551018Y-56802262D01*
X72599399Y-56802262D01*
X72668190Y-56772024D01*
X72709012Y-56711548D01*
X72725643Y-56651071D01*
X72734714Y-56530119D01*
X72723375Y-56439405D01*
X72684066Y-56318452D01*
X72652315Y-56257976D01*
X72596375Y-56197500D01*
X72520024Y-56167262D01*
X72471643Y-56167262D01*
X72402851Y-56197500D01*
X72382441Y-56227738D01*
X72236542Y-56802262D02*
X72183626Y-56378929D01*
X72157167Y-56167262D02*
X72185137Y-56197500D01*
X72164727Y-56227738D01*
X72136756Y-56197500D01*
X72157167Y-56167262D01*
X72164727Y-56227738D01*
X71994637Y-56802262D02*
X71941721Y-56378929D01*
X71956840Y-56499881D02*
X71925089Y-56439405D01*
X71897119Y-56409167D01*
X71844959Y-56378929D01*
X71796578Y-56378929D01*
X71458666Y-56772024D02*
X71510827Y-56802262D01*
X71607589Y-56802262D01*
X71652190Y-56772024D01*
X71672602Y-56741786D01*
X71689232Y-56681310D01*
X71666554Y-56499881D01*
X71634804Y-56439405D01*
X71606833Y-56409167D01*
X71554673Y-56378929D01*
X71457911Y-56378929D01*
X71413309Y-56409167D01*
X70974101Y-56378929D02*
X71027017Y-56802262D01*
X71191816Y-56378929D02*
X71233393Y-56711548D01*
X71216761Y-56772024D01*
X71172160Y-56802262D01*
X71099589Y-56802262D01*
X71047428Y-56772024D01*
X71019458Y-56741786D01*
X70785113Y-56802262D02*
X70732197Y-56378929D01*
X70705738Y-56167262D02*
X70733708Y-56197500D01*
X70713298Y-56227738D01*
X70685327Y-56197500D01*
X70705738Y-56167262D01*
X70713298Y-56227738D01*
X70562863Y-56378929D02*
X70369339Y-56378929D01*
X70463833Y-56167262D02*
X70531869Y-56711548D01*
X70515237Y-56772024D01*
X70470636Y-56802262D01*
X70422255Y-56802262D01*
X70273332Y-56772024D02*
X70228731Y-56802262D01*
X70131969Y-56802262D01*
X70079808Y-56772024D01*
X70048059Y-56711548D01*
X70044279Y-56681310D01*
X70060910Y-56620833D01*
X70105511Y-56590595D01*
X70178083Y-56590595D01*
X70222684Y-56560357D01*
X70239315Y-56499881D01*
X70235535Y-56469643D01*
X70203785Y-56409167D01*
X70151625Y-56378929D01*
X70079053Y-56378929D01*
X70034451Y-56409167D01*
D16*
X68924714Y-38861999D02*
X68924714Y-39007142D01*
X68961000Y-39079714D01*
X69033571Y-39152285D01*
X69178714Y-39188571D01*
X69432714Y-39188571D01*
X69577857Y-39152285D01*
X69650429Y-39079714D01*
X69686714Y-39007142D01*
X69686714Y-38861999D01*
X69650429Y-38789428D01*
X69577857Y-38716857D01*
X69432714Y-38680571D01*
X69178714Y-38680571D01*
X69033571Y-38716857D01*
X68961000Y-38789428D01*
X68924714Y-38861999D01*
X69178714Y-39406285D02*
X69178714Y-39696571D01*
X69686714Y-39515143D02*
X69033571Y-39515143D01*
X68961000Y-39551428D01*
X68924714Y-39624000D01*
X68924714Y-39696571D01*
X69178714Y-39841714D02*
X69178714Y-40132000D01*
X69686714Y-39950572D02*
X69033571Y-39950572D01*
X68961000Y-39986857D01*
X68924714Y-40059429D01*
X68924714Y-40132000D01*
X77560714Y-38952714D02*
X77560714Y-39097857D01*
X77597000Y-39170429D01*
X77669571Y-39243000D01*
X77814714Y-39279286D01*
X78068714Y-39279286D01*
X78213857Y-39243000D01*
X78286429Y-39170429D01*
X78322714Y-39097857D01*
X78322714Y-38952714D01*
X78286429Y-38880143D01*
X78213857Y-38807572D01*
X78068714Y-38771286D01*
X77814714Y-38771286D01*
X77669571Y-38807572D01*
X77597000Y-38880143D01*
X77560714Y-38952714D01*
X77814714Y-39605858D02*
X78322714Y-39605858D01*
X77887286Y-39605858D02*
X77851000Y-39642143D01*
X77814714Y-39714715D01*
X77814714Y-39823572D01*
X77851000Y-39896143D01*
X77923571Y-39932429D01*
X78322714Y-39932429D01*
D17*
G36*
X70482460Y-54940200D02*
X70485000Y-54952900D01*
X70502780Y-54955440D01*
X70535800Y-54950360D01*
X70606920Y-54942740D01*
X70698360Y-54937660D01*
X70812660Y-54930040D01*
X70939660Y-54927500D01*
X71079360Y-54922420D01*
X71226680Y-54919880D01*
X71379080Y-54917340D01*
X71531480Y-54919880D01*
X71620380Y-54919880D01*
X71620380Y-54561740D01*
X71630540Y-54551580D01*
X71658480Y-54531260D01*
X71704200Y-54500780D01*
X71760080Y-54462680D01*
X71823580Y-54422040D01*
X71892160Y-54381400D01*
X71958200Y-54340760D01*
X71991220Y-54320440D01*
X72097900Y-54259480D01*
X72204580Y-54206140D01*
X72301100Y-54160420D01*
X72384920Y-54124860D01*
X72412860Y-54117240D01*
X72463660Y-54102000D01*
X72501760Y-54094380D01*
X72539860Y-54094380D01*
X72593200Y-54102000D01*
X72595740Y-54102000D01*
X72677020Y-54119780D01*
X72781160Y-54142640D01*
X72900540Y-54173120D01*
X73027540Y-54206140D01*
X73080880Y-54223920D01*
X73118980Y-54234080D01*
X73152000Y-54244240D01*
X73185020Y-54256940D01*
X73218040Y-54272180D01*
X73253600Y-54292500D01*
X73299320Y-54320440D01*
X73337420Y-54343300D01*
X73337420Y-53985160D01*
X73345040Y-53975000D01*
X73370440Y-53957220D01*
X73408540Y-53934360D01*
X73451720Y-53916580D01*
X73497440Y-53901340D01*
X73510140Y-53896260D01*
X73555860Y-53888640D01*
X73593960Y-53888640D01*
X73619360Y-53896260D01*
X73665080Y-53916580D01*
X73733660Y-53952140D01*
X73814940Y-53997860D01*
X73914000Y-54056280D01*
X74020680Y-54124860D01*
X74043540Y-54140100D01*
X74211180Y-54249320D01*
X74203560Y-54371240D01*
X74195940Y-54467760D01*
X74188320Y-54541420D01*
X74183240Y-54594760D01*
X74178160Y-54630320D01*
X74170540Y-54648100D01*
X74165460Y-54653180D01*
X74145140Y-54645560D01*
X74119740Y-54625240D01*
X74117200Y-54622700D01*
X74099420Y-54607460D01*
X74063860Y-54579520D01*
X74013060Y-54536340D01*
X73949560Y-54485540D01*
X73875900Y-54424580D01*
X73792080Y-54358540D01*
X73710800Y-54292500D01*
X73629520Y-54226460D01*
X73548240Y-54162960D01*
X73479660Y-54104540D01*
X73421240Y-54058820D01*
X73375520Y-54020720D01*
X73347580Y-53995320D01*
X73337420Y-53985160D01*
X73337420Y-54343300D01*
X73355200Y-54356000D01*
X73426320Y-54401720D01*
X73510140Y-54460140D01*
X73578720Y-54505860D01*
X73665080Y-54564280D01*
X73743820Y-54617620D01*
X73812400Y-54665880D01*
X73870820Y-54706520D01*
X73914000Y-54737000D01*
X73939400Y-54754780D01*
X73944480Y-54759860D01*
X73934320Y-54767480D01*
X73903840Y-54772560D01*
X73853040Y-54775100D01*
X73789540Y-54777640D01*
X73715880Y-54777640D01*
X73639680Y-54777640D01*
X73555860Y-54775100D01*
X73477120Y-54770020D01*
X73400920Y-54764940D01*
X73337420Y-54757320D01*
X73301860Y-54752240D01*
X73235820Y-54739540D01*
X73162160Y-54724300D01*
X73088500Y-54709060D01*
X73078340Y-54706520D01*
X72887840Y-54665880D01*
X72687180Y-54630320D01*
X72481440Y-54602380D01*
X72278240Y-54582060D01*
X72085200Y-54569360D01*
X71902320Y-54564280D01*
X71788020Y-54564280D01*
X71724520Y-54566820D01*
X71673720Y-54566820D01*
X71635620Y-54564280D01*
X71620380Y-54564280D01*
X71620380Y-54561740D01*
X71620380Y-54919880D01*
X71666100Y-54919880D01*
X71815960Y-54922420D01*
X71948040Y-54927500D01*
X72062340Y-54930040D01*
X72161400Y-54937660D01*
X72255380Y-54945280D01*
X72346820Y-54955440D01*
X72438260Y-54968140D01*
X72537320Y-54985920D01*
X72649080Y-55006240D01*
X72771000Y-55029100D01*
X72948800Y-55067200D01*
X73022460Y-55295800D01*
X73047860Y-55366920D01*
X73070720Y-55432960D01*
X73088500Y-55483760D01*
X73103740Y-55521860D01*
X73108820Y-55534560D01*
X73131680Y-55544720D01*
X73172320Y-55557420D01*
X73230740Y-55575200D01*
X73299320Y-55590440D01*
X73375520Y-55608220D01*
X73454260Y-55626000D01*
X73530460Y-55638700D01*
X73599040Y-55651400D01*
X73657460Y-55659020D01*
X73695560Y-55661560D01*
X73695560Y-55661560D01*
X73741280Y-55659020D01*
X73781920Y-55651400D01*
X73825100Y-55633620D01*
X73875900Y-55608220D01*
X73977500Y-55557420D01*
X74079100Y-55623460D01*
X74142600Y-55661560D01*
X74216260Y-55709820D01*
X74297540Y-55758080D01*
X74383900Y-55808880D01*
X74465180Y-55859680D01*
X74541380Y-55905400D01*
X74609960Y-55943500D01*
X74660760Y-55971440D01*
X74691240Y-55989220D01*
X74747120Y-56014620D01*
X74785220Y-56029860D01*
X74810620Y-56034940D01*
X74810620Y-53682900D01*
X74810620Y-53670200D01*
X74810620Y-53670200D01*
X74825860Y-53665120D01*
X74861420Y-53660040D01*
X74917300Y-53647340D01*
X74990960Y-53634640D01*
X75077320Y-53619400D01*
X75173840Y-53601620D01*
X75250040Y-53591460D01*
X75425300Y-53560980D01*
X75575160Y-53535580D01*
X75704700Y-53512720D01*
X75811380Y-53494940D01*
X75897740Y-53479700D01*
X75966320Y-53467000D01*
X76019660Y-53456840D01*
X76057760Y-53451760D01*
X76080620Y-53446680D01*
X76088240Y-53444140D01*
X76113640Y-53444140D01*
X76116180Y-53454300D01*
X76108560Y-53467000D01*
X76080620Y-53494940D01*
X76039980Y-53538120D01*
X75984100Y-53596540D01*
X75918060Y-53662580D01*
X75841860Y-53741320D01*
X75758040Y-53825140D01*
X75666600Y-53916580D01*
X75641200Y-53941980D01*
X75168760Y-54406800D01*
X75057000Y-54338220D01*
X75006200Y-54305200D01*
X74960480Y-54274720D01*
X74927460Y-54254400D01*
X74917300Y-54246780D01*
X74902060Y-54234080D01*
X74891900Y-54213760D01*
X74881740Y-54185820D01*
X74874120Y-54140100D01*
X74863960Y-54074060D01*
X74861420Y-54063900D01*
X74843640Y-53941980D01*
X74828400Y-53845460D01*
X74818240Y-53769260D01*
X74813160Y-53715920D01*
X74810620Y-53682900D01*
X74810620Y-56034940D01*
X74813160Y-56034940D01*
X74833480Y-56029860D01*
X74838560Y-56027320D01*
X74856340Y-56007000D01*
X74874120Y-55973980D01*
X74876660Y-55966360D01*
X74886820Y-55930800D01*
X74894440Y-55905400D01*
X74896980Y-55900320D01*
X74907140Y-55895240D01*
X74937620Y-55905400D01*
X74957940Y-55915560D01*
X74957940Y-54747160D01*
X74970640Y-54747160D01*
X74993500Y-54757320D01*
X75023980Y-54777640D01*
X75057000Y-54808120D01*
X75090020Y-54841140D01*
X75117960Y-54876700D01*
X75133200Y-54897020D01*
X75166220Y-54955440D01*
X75125580Y-55115460D01*
X75105260Y-55189120D01*
X75092560Y-55239920D01*
X75082400Y-55275480D01*
X75077320Y-55295800D01*
X75072240Y-55305960D01*
X75067160Y-55308500D01*
X75062080Y-55308500D01*
X75057000Y-55295800D01*
X75049380Y-55262780D01*
X75039220Y-55209440D01*
X75026520Y-55143400D01*
X75011280Y-55064660D01*
X75008740Y-55046880D01*
X74996040Y-54968140D01*
X74983340Y-54894480D01*
X74973180Y-54833520D01*
X74965560Y-54790340D01*
X74960480Y-54767480D01*
X74960480Y-54767480D01*
X74957940Y-54747160D01*
X74957940Y-55915560D01*
X74965560Y-55918100D01*
X75013820Y-55938420D01*
X75059540Y-55951120D01*
X75082400Y-55956200D01*
X75112880Y-55951120D01*
X75135740Y-55938420D01*
X75156060Y-55913020D01*
X75168760Y-55872380D01*
X75178920Y-55811420D01*
X75186540Y-55730140D01*
X75191620Y-55648860D01*
X75194160Y-55570120D01*
X75199240Y-55511700D01*
X75204320Y-55463440D01*
X75214480Y-55417720D01*
X75227180Y-55369460D01*
X75247500Y-55311040D01*
X75260200Y-55275480D01*
X75290680Y-55186580D01*
X75311000Y-55118000D01*
X75323700Y-55064660D01*
X75328780Y-55021480D01*
X75328780Y-54983380D01*
X75321160Y-54947820D01*
X75316080Y-54930040D01*
X75293220Y-54864000D01*
X75349100Y-54754780D01*
X75377040Y-54701440D01*
X75404980Y-54653180D01*
X75427840Y-54617620D01*
X75435460Y-54607460D01*
X75450700Y-54592220D01*
X75481180Y-54559200D01*
X75529440Y-54510940D01*
X75587860Y-54449980D01*
X75658980Y-54376320D01*
X75740260Y-54292500D01*
X75829160Y-54201060D01*
X75925680Y-54102000D01*
X76024740Y-54000400D01*
X76024740Y-54000400D01*
X76166980Y-53858160D01*
X76288900Y-53731160D01*
X76398120Y-53621940D01*
X76489560Y-53527960D01*
X76568300Y-53446680D01*
X76634340Y-53380640D01*
X76687680Y-53324760D01*
X76730860Y-53279040D01*
X76766420Y-53243480D01*
X76791820Y-53215540D01*
X76809600Y-53195220D01*
X76822300Y-53179980D01*
X76827380Y-53169820D01*
X76829920Y-53164740D01*
X76829920Y-53162200D01*
X76829920Y-53159660D01*
X76827380Y-53159660D01*
X76809600Y-53157120D01*
X76774040Y-53159660D01*
X76746100Y-53164740D01*
X76715620Y-53169820D01*
X76662280Y-53177440D01*
X76591160Y-53187600D01*
X76507340Y-53200300D01*
X76410820Y-53213000D01*
X76311760Y-53228240D01*
X76288900Y-53230780D01*
X76100940Y-53256180D01*
X75915520Y-53281580D01*
X75740260Y-53306980D01*
X75575160Y-53329840D01*
X75422760Y-53352700D01*
X75283060Y-53373020D01*
X75163680Y-53390800D01*
X75062080Y-53406040D01*
X74983340Y-53418740D01*
X74942700Y-53426360D01*
X74881740Y-53433980D01*
X74830940Y-53441600D01*
X74797920Y-53444140D01*
X74782680Y-53441600D01*
X74777600Y-53426360D01*
X74772520Y-53390800D01*
X74764900Y-53342540D01*
X74757280Y-53289200D01*
X74749660Y-53238400D01*
X74747120Y-53192680D01*
X74744580Y-53167280D01*
X74747120Y-53154580D01*
X74752200Y-53146960D01*
X74762360Y-53144420D01*
X74785220Y-53146960D01*
X74823320Y-53159660D01*
X74879200Y-53177440D01*
X74955400Y-53202840D01*
X74968100Y-53205380D01*
X75049380Y-53230780D01*
X75130660Y-53251100D01*
X75196700Y-53263800D01*
X75211940Y-53266340D01*
X75262740Y-53268880D01*
X75290680Y-53268880D01*
X75303380Y-53263800D01*
X75308460Y-53253640D01*
X75308460Y-53248560D01*
X75298300Y-53230780D01*
X75270360Y-53205380D01*
X75222100Y-53172360D01*
X75166220Y-53134260D01*
X75107800Y-53098700D01*
X75062080Y-53068220D01*
X75026520Y-53042820D01*
X74993500Y-53014880D01*
X74963020Y-52984400D01*
X74927460Y-52943760D01*
X74881740Y-52892960D01*
X74841100Y-52844700D01*
X74792840Y-52786280D01*
X74747120Y-52732940D01*
X74706480Y-52689760D01*
X74676000Y-52656740D01*
X74668380Y-52649120D01*
X74627740Y-52611020D01*
X74480420Y-52638960D01*
X74399140Y-52656740D01*
X74338180Y-52674520D01*
X74302620Y-52689760D01*
X74282300Y-52710080D01*
X74279760Y-52730400D01*
X74279760Y-52738020D01*
X74287380Y-52763420D01*
X74292460Y-52793900D01*
X74295000Y-52832000D01*
X74295000Y-52877720D01*
X74295000Y-52933600D01*
X74289920Y-53004720D01*
X74284840Y-53091080D01*
X74274680Y-53197760D01*
X74261980Y-53324760D01*
X74249280Y-53446680D01*
X74241660Y-53538120D01*
X74175620Y-53553360D01*
X74127360Y-53563520D01*
X74068940Y-53573680D01*
X74015600Y-53583840D01*
X73974960Y-53588920D01*
X73949560Y-53596540D01*
X73929240Y-53606700D01*
X73919080Y-53624480D01*
X73908920Y-53657500D01*
X73901300Y-53705760D01*
X73893680Y-53776880D01*
X73886060Y-53830220D01*
X73878440Y-53870860D01*
X73873360Y-53893720D01*
X73870820Y-53898800D01*
X73858120Y-53891180D01*
X73827640Y-53873400D01*
X73784460Y-53850540D01*
X73759060Y-53835300D01*
X73700640Y-53804820D01*
X73657460Y-53784500D01*
X73614280Y-53771800D01*
X73581260Y-53769260D01*
X73502520Y-53764180D01*
X73383140Y-53616860D01*
X73337420Y-53563520D01*
X73281540Y-53492400D01*
X73218040Y-53413660D01*
X73149460Y-53329840D01*
X73085960Y-53248560D01*
X73065640Y-53225700D01*
X72905620Y-53025040D01*
X72763380Y-52844700D01*
X72633840Y-52682140D01*
X72519540Y-52539900D01*
X72417940Y-52412900D01*
X72331580Y-52306220D01*
X72255380Y-52212240D01*
X72191880Y-52136040D01*
X72141080Y-52072540D01*
X72100440Y-52021740D01*
X72067420Y-51986180D01*
X72047100Y-51963320D01*
X72034400Y-51950620D01*
X72029320Y-51948080D01*
X72031860Y-51965860D01*
X72047100Y-52006500D01*
X72069960Y-52072540D01*
X72105520Y-52158900D01*
X72148700Y-52265580D01*
X72202040Y-52395120D01*
X72263000Y-52544980D01*
X72334120Y-52712620D01*
X72359520Y-52771040D01*
X72390000Y-52844700D01*
X72433180Y-52938680D01*
X72486520Y-53045360D01*
X72547480Y-53167280D01*
X72613520Y-53299360D01*
X72684640Y-53436520D01*
X72758300Y-53576220D01*
X72831960Y-53715920D01*
X72862440Y-53771800D01*
X72898000Y-53837840D01*
X72925940Y-53896260D01*
X72948800Y-53939440D01*
X72964040Y-53969920D01*
X72966580Y-53977540D01*
X72956420Y-53985160D01*
X72936100Y-53985160D01*
X72920860Y-53975000D01*
X72903080Y-53967380D01*
X72864980Y-53949600D01*
X72811640Y-53929280D01*
X72750680Y-53906420D01*
X72684640Y-53881020D01*
X72621140Y-53860700D01*
X72608440Y-53855620D01*
X72514460Y-53832760D01*
X72415400Y-53825140D01*
X72410320Y-53825140D01*
X72367140Y-53825140D01*
X72331580Y-53830220D01*
X72298560Y-53835300D01*
X72260460Y-53850540D01*
X72212200Y-53870860D01*
X72153780Y-53898800D01*
X72080120Y-53936900D01*
X71998840Y-53980080D01*
X71920100Y-54023260D01*
X71874380Y-54051200D01*
X71782940Y-54107080D01*
X71676260Y-54175660D01*
X71554340Y-54251860D01*
X71422260Y-54335680D01*
X71285100Y-54422040D01*
X71145400Y-54510940D01*
X71005700Y-54597300D01*
X70873620Y-54681120D01*
X70822820Y-54714140D01*
X70739000Y-54764940D01*
X70662800Y-54815740D01*
X70596760Y-54858920D01*
X70543420Y-54894480D01*
X70505320Y-54922420D01*
X70485000Y-54937660D01*
X70482460Y-54940200D01*
X70482460Y-54940200D01*
X70482460Y-54940200D01*
G37*
X70482460Y-54940200D02*
X70485000Y-54952900D01*
X70502780Y-54955440D01*
X70535800Y-54950360D01*
X70606920Y-54942740D01*
X70698360Y-54937660D01*
X70812660Y-54930040D01*
X70939660Y-54927500D01*
X71079360Y-54922420D01*
X71226680Y-54919880D01*
X71379080Y-54917340D01*
X71531480Y-54919880D01*
X71620380Y-54919880D01*
X71620380Y-54561740D01*
X71630540Y-54551580D01*
X71658480Y-54531260D01*
X71704200Y-54500780D01*
X71760080Y-54462680D01*
X71823580Y-54422040D01*
X71892160Y-54381400D01*
X71958200Y-54340760D01*
X71991220Y-54320440D01*
X72097900Y-54259480D01*
X72204580Y-54206140D01*
X72301100Y-54160420D01*
X72384920Y-54124860D01*
X72412860Y-54117240D01*
X72463660Y-54102000D01*
X72501760Y-54094380D01*
X72539860Y-54094380D01*
X72593200Y-54102000D01*
X72595740Y-54102000D01*
X72677020Y-54119780D01*
X72781160Y-54142640D01*
X72900540Y-54173120D01*
X73027540Y-54206140D01*
X73080880Y-54223920D01*
X73118980Y-54234080D01*
X73152000Y-54244240D01*
X73185020Y-54256940D01*
X73218040Y-54272180D01*
X73253600Y-54292500D01*
X73299320Y-54320440D01*
X73337420Y-54343300D01*
X73337420Y-53985160D01*
X73345040Y-53975000D01*
X73370440Y-53957220D01*
X73408540Y-53934360D01*
X73451720Y-53916580D01*
X73497440Y-53901340D01*
X73510140Y-53896260D01*
X73555860Y-53888640D01*
X73593960Y-53888640D01*
X73619360Y-53896260D01*
X73665080Y-53916580D01*
X73733660Y-53952140D01*
X73814940Y-53997860D01*
X73914000Y-54056280D01*
X74020680Y-54124860D01*
X74043540Y-54140100D01*
X74211180Y-54249320D01*
X74203560Y-54371240D01*
X74195940Y-54467760D01*
X74188320Y-54541420D01*
X74183240Y-54594760D01*
X74178160Y-54630320D01*
X74170540Y-54648100D01*
X74165460Y-54653180D01*
X74145140Y-54645560D01*
X74119740Y-54625240D01*
X74117200Y-54622700D01*
X74099420Y-54607460D01*
X74063860Y-54579520D01*
X74013060Y-54536340D01*
X73949560Y-54485540D01*
X73875900Y-54424580D01*
X73792080Y-54358540D01*
X73710800Y-54292500D01*
X73629520Y-54226460D01*
X73548240Y-54162960D01*
X73479660Y-54104540D01*
X73421240Y-54058820D01*
X73375520Y-54020720D01*
X73347580Y-53995320D01*
X73337420Y-53985160D01*
X73337420Y-54343300D01*
X73355200Y-54356000D01*
X73426320Y-54401720D01*
X73510140Y-54460140D01*
X73578720Y-54505860D01*
X73665080Y-54564280D01*
X73743820Y-54617620D01*
X73812400Y-54665880D01*
X73870820Y-54706520D01*
X73914000Y-54737000D01*
X73939400Y-54754780D01*
X73944480Y-54759860D01*
X73934320Y-54767480D01*
X73903840Y-54772560D01*
X73853040Y-54775100D01*
X73789540Y-54777640D01*
X73715880Y-54777640D01*
X73639680Y-54777640D01*
X73555860Y-54775100D01*
X73477120Y-54770020D01*
X73400920Y-54764940D01*
X73337420Y-54757320D01*
X73301860Y-54752240D01*
X73235820Y-54739540D01*
X73162160Y-54724300D01*
X73088500Y-54709060D01*
X73078340Y-54706520D01*
X72887840Y-54665880D01*
X72687180Y-54630320D01*
X72481440Y-54602380D01*
X72278240Y-54582060D01*
X72085200Y-54569360D01*
X71902320Y-54564280D01*
X71788020Y-54564280D01*
X71724520Y-54566820D01*
X71673720Y-54566820D01*
X71635620Y-54564280D01*
X71620380Y-54564280D01*
X71620380Y-54561740D01*
X71620380Y-54919880D01*
X71666100Y-54919880D01*
X71815960Y-54922420D01*
X71948040Y-54927500D01*
X72062340Y-54930040D01*
X72161400Y-54937660D01*
X72255380Y-54945280D01*
X72346820Y-54955440D01*
X72438260Y-54968140D01*
X72537320Y-54985920D01*
X72649080Y-55006240D01*
X72771000Y-55029100D01*
X72948800Y-55067200D01*
X73022460Y-55295800D01*
X73047860Y-55366920D01*
X73070720Y-55432960D01*
X73088500Y-55483760D01*
X73103740Y-55521860D01*
X73108820Y-55534560D01*
X73131680Y-55544720D01*
X73172320Y-55557420D01*
X73230740Y-55575200D01*
X73299320Y-55590440D01*
X73375520Y-55608220D01*
X73454260Y-55626000D01*
X73530460Y-55638700D01*
X73599040Y-55651400D01*
X73657460Y-55659020D01*
X73695560Y-55661560D01*
X73695560Y-55661560D01*
X73741280Y-55659020D01*
X73781920Y-55651400D01*
X73825100Y-55633620D01*
X73875900Y-55608220D01*
X73977500Y-55557420D01*
X74079100Y-55623460D01*
X74142600Y-55661560D01*
X74216260Y-55709820D01*
X74297540Y-55758080D01*
X74383900Y-55808880D01*
X74465180Y-55859680D01*
X74541380Y-55905400D01*
X74609960Y-55943500D01*
X74660760Y-55971440D01*
X74691240Y-55989220D01*
X74747120Y-56014620D01*
X74785220Y-56029860D01*
X74810620Y-56034940D01*
X74810620Y-53682900D01*
X74810620Y-53670200D01*
X74810620Y-53670200D01*
X74825860Y-53665120D01*
X74861420Y-53660040D01*
X74917300Y-53647340D01*
X74990960Y-53634640D01*
X75077320Y-53619400D01*
X75173840Y-53601620D01*
X75250040Y-53591460D01*
X75425300Y-53560980D01*
X75575160Y-53535580D01*
X75704700Y-53512720D01*
X75811380Y-53494940D01*
X75897740Y-53479700D01*
X75966320Y-53467000D01*
X76019660Y-53456840D01*
X76057760Y-53451760D01*
X76080620Y-53446680D01*
X76088240Y-53444140D01*
X76113640Y-53444140D01*
X76116180Y-53454300D01*
X76108560Y-53467000D01*
X76080620Y-53494940D01*
X76039980Y-53538120D01*
X75984100Y-53596540D01*
X75918060Y-53662580D01*
X75841860Y-53741320D01*
X75758040Y-53825140D01*
X75666600Y-53916580D01*
X75641200Y-53941980D01*
X75168760Y-54406800D01*
X75057000Y-54338220D01*
X75006200Y-54305200D01*
X74960480Y-54274720D01*
X74927460Y-54254400D01*
X74917300Y-54246780D01*
X74902060Y-54234080D01*
X74891900Y-54213760D01*
X74881740Y-54185820D01*
X74874120Y-54140100D01*
X74863960Y-54074060D01*
X74861420Y-54063900D01*
X74843640Y-53941980D01*
X74828400Y-53845460D01*
X74818240Y-53769260D01*
X74813160Y-53715920D01*
X74810620Y-53682900D01*
X74810620Y-56034940D01*
X74813160Y-56034940D01*
X74833480Y-56029860D01*
X74838560Y-56027320D01*
X74856340Y-56007000D01*
X74874120Y-55973980D01*
X74876660Y-55966360D01*
X74886820Y-55930800D01*
X74894440Y-55905400D01*
X74896980Y-55900320D01*
X74907140Y-55895240D01*
X74937620Y-55905400D01*
X74957940Y-55915560D01*
X74957940Y-54747160D01*
X74970640Y-54747160D01*
X74993500Y-54757320D01*
X75023980Y-54777640D01*
X75057000Y-54808120D01*
X75090020Y-54841140D01*
X75117960Y-54876700D01*
X75133200Y-54897020D01*
X75166220Y-54955440D01*
X75125580Y-55115460D01*
X75105260Y-55189120D01*
X75092560Y-55239920D01*
X75082400Y-55275480D01*
X75077320Y-55295800D01*
X75072240Y-55305960D01*
X75067160Y-55308500D01*
X75062080Y-55308500D01*
X75057000Y-55295800D01*
X75049380Y-55262780D01*
X75039220Y-55209440D01*
X75026520Y-55143400D01*
X75011280Y-55064660D01*
X75008740Y-55046880D01*
X74996040Y-54968140D01*
X74983340Y-54894480D01*
X74973180Y-54833520D01*
X74965560Y-54790340D01*
X74960480Y-54767480D01*
X74960480Y-54767480D01*
X74957940Y-54747160D01*
X74957940Y-55915560D01*
X74965560Y-55918100D01*
X75013820Y-55938420D01*
X75059540Y-55951120D01*
X75082400Y-55956200D01*
X75112880Y-55951120D01*
X75135740Y-55938420D01*
X75156060Y-55913020D01*
X75168760Y-55872380D01*
X75178920Y-55811420D01*
X75186540Y-55730140D01*
X75191620Y-55648860D01*
X75194160Y-55570120D01*
X75199240Y-55511700D01*
X75204320Y-55463440D01*
X75214480Y-55417720D01*
X75227180Y-55369460D01*
X75247500Y-55311040D01*
X75260200Y-55275480D01*
X75290680Y-55186580D01*
X75311000Y-55118000D01*
X75323700Y-55064660D01*
X75328780Y-55021480D01*
X75328780Y-54983380D01*
X75321160Y-54947820D01*
X75316080Y-54930040D01*
X75293220Y-54864000D01*
X75349100Y-54754780D01*
X75377040Y-54701440D01*
X75404980Y-54653180D01*
X75427840Y-54617620D01*
X75435460Y-54607460D01*
X75450700Y-54592220D01*
X75481180Y-54559200D01*
X75529440Y-54510940D01*
X75587860Y-54449980D01*
X75658980Y-54376320D01*
X75740260Y-54292500D01*
X75829160Y-54201060D01*
X75925680Y-54102000D01*
X76024740Y-54000400D01*
X76024740Y-54000400D01*
X76166980Y-53858160D01*
X76288900Y-53731160D01*
X76398120Y-53621940D01*
X76489560Y-53527960D01*
X76568300Y-53446680D01*
X76634340Y-53380640D01*
X76687680Y-53324760D01*
X76730860Y-53279040D01*
X76766420Y-53243480D01*
X76791820Y-53215540D01*
X76809600Y-53195220D01*
X76822300Y-53179980D01*
X76827380Y-53169820D01*
X76829920Y-53164740D01*
X76829920Y-53162200D01*
X76829920Y-53159660D01*
X76827380Y-53159660D01*
X76809600Y-53157120D01*
X76774040Y-53159660D01*
X76746100Y-53164740D01*
X76715620Y-53169820D01*
X76662280Y-53177440D01*
X76591160Y-53187600D01*
X76507340Y-53200300D01*
X76410820Y-53213000D01*
X76311760Y-53228240D01*
X76288900Y-53230780D01*
X76100940Y-53256180D01*
X75915520Y-53281580D01*
X75740260Y-53306980D01*
X75575160Y-53329840D01*
X75422760Y-53352700D01*
X75283060Y-53373020D01*
X75163680Y-53390800D01*
X75062080Y-53406040D01*
X74983340Y-53418740D01*
X74942700Y-53426360D01*
X74881740Y-53433980D01*
X74830940Y-53441600D01*
X74797920Y-53444140D01*
X74782680Y-53441600D01*
X74777600Y-53426360D01*
X74772520Y-53390800D01*
X74764900Y-53342540D01*
X74757280Y-53289200D01*
X74749660Y-53238400D01*
X74747120Y-53192680D01*
X74744580Y-53167280D01*
X74747120Y-53154580D01*
X74752200Y-53146960D01*
X74762360Y-53144420D01*
X74785220Y-53146960D01*
X74823320Y-53159660D01*
X74879200Y-53177440D01*
X74955400Y-53202840D01*
X74968100Y-53205380D01*
X75049380Y-53230780D01*
X75130660Y-53251100D01*
X75196700Y-53263800D01*
X75211940Y-53266340D01*
X75262740Y-53268880D01*
X75290680Y-53268880D01*
X75303380Y-53263800D01*
X75308460Y-53253640D01*
X75308460Y-53248560D01*
X75298300Y-53230780D01*
X75270360Y-53205380D01*
X75222100Y-53172360D01*
X75166220Y-53134260D01*
X75107800Y-53098700D01*
X75062080Y-53068220D01*
X75026520Y-53042820D01*
X74993500Y-53014880D01*
X74963020Y-52984400D01*
X74927460Y-52943760D01*
X74881740Y-52892960D01*
X74841100Y-52844700D01*
X74792840Y-52786280D01*
X74747120Y-52732940D01*
X74706480Y-52689760D01*
X74676000Y-52656740D01*
X74668380Y-52649120D01*
X74627740Y-52611020D01*
X74480420Y-52638960D01*
X74399140Y-52656740D01*
X74338180Y-52674520D01*
X74302620Y-52689760D01*
X74282300Y-52710080D01*
X74279760Y-52730400D01*
X74279760Y-52738020D01*
X74287380Y-52763420D01*
X74292460Y-52793900D01*
X74295000Y-52832000D01*
X74295000Y-52877720D01*
X74295000Y-52933600D01*
X74289920Y-53004720D01*
X74284840Y-53091080D01*
X74274680Y-53197760D01*
X74261980Y-53324760D01*
X74249280Y-53446680D01*
X74241660Y-53538120D01*
X74175620Y-53553360D01*
X74127360Y-53563520D01*
X74068940Y-53573680D01*
X74015600Y-53583840D01*
X73974960Y-53588920D01*
X73949560Y-53596540D01*
X73929240Y-53606700D01*
X73919080Y-53624480D01*
X73908920Y-53657500D01*
X73901300Y-53705760D01*
X73893680Y-53776880D01*
X73886060Y-53830220D01*
X73878440Y-53870860D01*
X73873360Y-53893720D01*
X73870820Y-53898800D01*
X73858120Y-53891180D01*
X73827640Y-53873400D01*
X73784460Y-53850540D01*
X73759060Y-53835300D01*
X73700640Y-53804820D01*
X73657460Y-53784500D01*
X73614280Y-53771800D01*
X73581260Y-53769260D01*
X73502520Y-53764180D01*
X73383140Y-53616860D01*
X73337420Y-53563520D01*
X73281540Y-53492400D01*
X73218040Y-53413660D01*
X73149460Y-53329840D01*
X73085960Y-53248560D01*
X73065640Y-53225700D01*
X72905620Y-53025040D01*
X72763380Y-52844700D01*
X72633840Y-52682140D01*
X72519540Y-52539900D01*
X72417940Y-52412900D01*
X72331580Y-52306220D01*
X72255380Y-52212240D01*
X72191880Y-52136040D01*
X72141080Y-52072540D01*
X72100440Y-52021740D01*
X72067420Y-51986180D01*
X72047100Y-51963320D01*
X72034400Y-51950620D01*
X72029320Y-51948080D01*
X72031860Y-51965860D01*
X72047100Y-52006500D01*
X72069960Y-52072540D01*
X72105520Y-52158900D01*
X72148700Y-52265580D01*
X72202040Y-52395120D01*
X72263000Y-52544980D01*
X72334120Y-52712620D01*
X72359520Y-52771040D01*
X72390000Y-52844700D01*
X72433180Y-52938680D01*
X72486520Y-53045360D01*
X72547480Y-53167280D01*
X72613520Y-53299360D01*
X72684640Y-53436520D01*
X72758300Y-53576220D01*
X72831960Y-53715920D01*
X72862440Y-53771800D01*
X72898000Y-53837840D01*
X72925940Y-53896260D01*
X72948800Y-53939440D01*
X72964040Y-53969920D01*
X72966580Y-53977540D01*
X72956420Y-53985160D01*
X72936100Y-53985160D01*
X72920860Y-53975000D01*
X72903080Y-53967380D01*
X72864980Y-53949600D01*
X72811640Y-53929280D01*
X72750680Y-53906420D01*
X72684640Y-53881020D01*
X72621140Y-53860700D01*
X72608440Y-53855620D01*
X72514460Y-53832760D01*
X72415400Y-53825140D01*
X72410320Y-53825140D01*
X72367140Y-53825140D01*
X72331580Y-53830220D01*
X72298560Y-53835300D01*
X72260460Y-53850540D01*
X72212200Y-53870860D01*
X72153780Y-53898800D01*
X72080120Y-53936900D01*
X71998840Y-53980080D01*
X71920100Y-54023260D01*
X71874380Y-54051200D01*
X71782940Y-54107080D01*
X71676260Y-54175660D01*
X71554340Y-54251860D01*
X71422260Y-54335680D01*
X71285100Y-54422040D01*
X71145400Y-54510940D01*
X71005700Y-54597300D01*
X70873620Y-54681120D01*
X70822820Y-54714140D01*
X70739000Y-54764940D01*
X70662800Y-54815740D01*
X70596760Y-54858920D01*
X70543420Y-54894480D01*
X70505320Y-54922420D01*
X70485000Y-54937660D01*
X70482460Y-54940200D01*
X70482460Y-54940200D01*
D18*
X71628000Y-44903571D02*
X71374000Y-44903571D01*
X71265143Y-45302714D02*
X71628000Y-45302714D01*
X71628000Y-44540714D01*
X71265143Y-44540714D01*
X70938571Y-44794714D02*
X70938571Y-45302714D01*
X70938571Y-44867286D02*
X70902286Y-44831000D01*
X70829714Y-44794714D01*
X70720857Y-44794714D01*
X70648286Y-44831000D01*
X70612000Y-44903571D01*
X70612000Y-45302714D01*
X66620572Y-61341000D02*
X66693143Y-61304714D01*
X66802000Y-61304714D01*
X66910857Y-61341000D01*
X66983429Y-61413571D01*
X67019714Y-61486143D01*
X67056000Y-61631286D01*
X67056000Y-61740143D01*
X67019714Y-61885286D01*
X66983429Y-61957857D01*
X66910857Y-62030429D01*
X66802000Y-62066714D01*
X66729429Y-62066714D01*
X66620572Y-62030429D01*
X66584286Y-61994143D01*
X66584286Y-61740143D01*
X66729429Y-61740143D01*
X66257714Y-62066714D02*
X66257714Y-61304714D01*
X65822286Y-62066714D01*
X65822286Y-61304714D01*
X65459428Y-62066714D02*
X65459428Y-61304714D01*
X65278000Y-61304714D01*
X65169143Y-61341000D01*
X65096571Y-61413571D01*
X65060286Y-61486143D01*
X65024000Y-61631286D01*
X65024000Y-61740143D01*
X65060286Y-61885286D01*
X65096571Y-61957857D01*
X65169143Y-62030429D01*
X65278000Y-62066714D01*
X65459428Y-62066714D01*
M02*
