%FSLAX45Y45*%
G04 Gerber Fmt 4.5, Leading zero omitted, Abs format (unit mm)*
G04 Created by KiCad (PCBNEW 4.0.7) date 11/03/17 12:40:23*
%MOMM*%
%LPD*%
G01*
G04 APERTURE LIST*
%ADD10C,0.127000*%
%ADD11C,0.150000*%
%ADD12C,0.200000*%
%ADD13C,0.300000*%
G04 APERTURE END LIST*
D10*
D11*
X6350000Y-4508500D02*
X6350000Y-6477000D01*
X6858000Y-4508500D02*
X6350000Y-4508500D01*
X6858000Y-3683000D02*
X6858000Y-4508500D01*
X7874000Y-3683000D02*
X6858000Y-3683000D01*
X7874000Y-5842000D02*
X7874000Y-3683000D01*
X6858000Y-5842000D02*
X7874000Y-5842000D01*
X6858000Y-6477000D02*
X6858000Y-5842000D01*
X6350000Y-6477000D02*
X6858000Y-6477000D01*
D12*
X7071000Y-3892000D02*
X7161000Y-3982000D01*
X7161000Y-3892000D02*
X7071000Y-3982000D01*
X7321000Y-3892000D02*
X7411000Y-3982000D01*
X7411000Y-3892000D02*
X7321000Y-3982000D01*
X7571000Y-3892000D02*
X7661000Y-3982000D01*
X7661000Y-3892000D02*
X7571000Y-3982000D01*
X6658000Y-6350000D02*
G75*
G03X6658000Y-6350000I-50000J0D01*
G01*
X7166000Y-4318000D02*
G75*
G03X7166000Y-4318000I-50000J0D01*
G01*
X7420000Y-4318000D02*
G75*
G03X7420000Y-4318000I-50000J0D01*
G01*
X7674000Y-4318000D02*
G75*
G03X7674000Y-4318000I-50000J0D01*
G01*
X6354000Y-6265000D02*
X6354000Y-6435000D01*
X6269000Y-6350000D02*
X6439000Y-6350000D01*
X6862000Y-4233000D02*
X6862000Y-4403000D01*
X6777000Y-4318000D02*
X6947000Y-4318000D01*
X6862000Y-6265000D02*
X6862000Y-6435000D01*
X6777000Y-6350000D02*
X6947000Y-6350000D01*
X7878000Y-4233000D02*
X7878000Y-4403000D01*
X7793000Y-4318000D02*
X7963000Y-4318000D01*
D13*
X6613928Y-6950214D02*
X6613928Y-6650214D01*
X6685357Y-6650214D01*
X6728214Y-6664500D01*
X6756786Y-6693071D01*
X6771071Y-6721643D01*
X6785357Y-6778786D01*
X6785357Y-6821643D01*
X6771071Y-6878786D01*
X6756786Y-6907357D01*
X6728214Y-6935929D01*
X6685357Y-6950214D01*
X6613928Y-6950214D01*
X6913928Y-6950214D02*
X6913928Y-6750214D01*
X6913928Y-6807357D02*
X6928214Y-6778786D01*
X6942500Y-6764500D01*
X6971071Y-6750214D01*
X6999643Y-6750214D01*
X7099643Y-6950214D02*
X7099643Y-6750214D01*
X7099643Y-6650214D02*
X7085357Y-6664500D01*
X7099643Y-6678786D01*
X7113928Y-6664500D01*
X7099643Y-6650214D01*
X7099643Y-6678786D01*
X7285357Y-6950214D02*
X7256786Y-6935929D01*
X7242500Y-6907357D01*
X7242500Y-6650214D01*
X7442500Y-6950214D02*
X7413928Y-6935929D01*
X7399643Y-6907357D01*
X7399643Y-6650214D01*
X7785357Y-6950214D02*
X7785357Y-6650214D01*
X7885357Y-6864500D01*
X7985357Y-6650214D01*
X7985357Y-6950214D01*
X8256786Y-6950214D02*
X8256786Y-6793071D01*
X8242500Y-6764500D01*
X8213928Y-6750214D01*
X8156786Y-6750214D01*
X8128214Y-6764500D01*
X8256786Y-6935929D02*
X8228214Y-6950214D01*
X8156786Y-6950214D01*
X8128214Y-6935929D01*
X8113928Y-6907357D01*
X8113928Y-6878786D01*
X8128214Y-6850214D01*
X8156786Y-6835929D01*
X8228214Y-6835929D01*
X8256786Y-6821643D01*
X8399643Y-6750214D02*
X8399643Y-7050214D01*
X8399643Y-6764500D02*
X8428214Y-6750214D01*
X8485357Y-6750214D01*
X8513929Y-6764500D01*
X8528214Y-6778786D01*
X8542500Y-6807357D01*
X8542500Y-6893071D01*
X8528214Y-6921643D01*
X8513929Y-6935929D01*
X8485357Y-6950214D01*
X8428214Y-6950214D01*
X8399643Y-6935929D01*
X8671071Y-6921643D02*
X8685357Y-6935929D01*
X8671071Y-6950214D01*
X8656786Y-6935929D01*
X8671071Y-6921643D01*
X8671071Y-6950214D01*
X8671071Y-6764500D02*
X8685357Y-6778786D01*
X8671071Y-6793071D01*
X8656786Y-6778786D01*
X8671071Y-6764500D01*
X8671071Y-6793071D01*
X6252500Y-7399500D02*
X6342500Y-7489500D01*
X6342500Y-7399500D02*
X6252500Y-7489500D01*
X6671071Y-7280214D02*
X6699643Y-7280214D01*
X6728214Y-7294500D01*
X6742500Y-7308786D01*
X6756786Y-7337357D01*
X6771071Y-7394500D01*
X6771071Y-7465929D01*
X6756786Y-7523071D01*
X6742500Y-7551643D01*
X6728214Y-7565929D01*
X6699643Y-7580214D01*
X6671071Y-7580214D01*
X6642500Y-7565929D01*
X6628214Y-7551643D01*
X6613928Y-7523071D01*
X6599643Y-7465929D01*
X6599643Y-7394500D01*
X6613928Y-7337357D01*
X6628214Y-7308786D01*
X6642500Y-7294500D01*
X6671071Y-7280214D01*
X6899643Y-7551643D02*
X6913928Y-7565929D01*
X6899643Y-7580214D01*
X6885357Y-7565929D01*
X6899643Y-7551643D01*
X6899643Y-7580214D01*
X7056786Y-7580214D02*
X7113928Y-7580214D01*
X7142500Y-7565929D01*
X7156786Y-7551643D01*
X7185357Y-7508786D01*
X7199643Y-7451643D01*
X7199643Y-7337357D01*
X7185357Y-7308786D01*
X7171071Y-7294500D01*
X7142500Y-7280214D01*
X7085357Y-7280214D01*
X7056786Y-7294500D01*
X7042500Y-7308786D01*
X7028214Y-7337357D01*
X7028214Y-7408786D01*
X7042500Y-7437357D01*
X7056786Y-7451643D01*
X7085357Y-7465929D01*
X7142500Y-7465929D01*
X7171071Y-7451643D01*
X7185357Y-7437357D01*
X7199643Y-7408786D01*
X7385357Y-7280214D02*
X7413928Y-7280214D01*
X7442500Y-7294500D01*
X7456786Y-7308786D01*
X7471071Y-7337357D01*
X7485357Y-7394500D01*
X7485357Y-7465929D01*
X7471071Y-7523071D01*
X7456786Y-7551643D01*
X7442500Y-7565929D01*
X7413928Y-7580214D01*
X7385357Y-7580214D01*
X7356786Y-7565929D01*
X7342500Y-7551643D01*
X7328214Y-7523071D01*
X7313928Y-7465929D01*
X7313928Y-7394500D01*
X7328214Y-7337357D01*
X7342500Y-7308786D01*
X7356786Y-7294500D01*
X7385357Y-7280214D01*
X7613928Y-7580214D02*
X7613928Y-7380214D01*
X7613928Y-7408786D02*
X7628214Y-7394500D01*
X7656786Y-7380214D01*
X7699643Y-7380214D01*
X7728214Y-7394500D01*
X7742500Y-7423071D01*
X7742500Y-7580214D01*
X7742500Y-7423071D02*
X7756786Y-7394500D01*
X7785357Y-7380214D01*
X7828214Y-7380214D01*
X7856786Y-7394500D01*
X7871071Y-7423071D01*
X7871071Y-7580214D01*
X8013928Y-7580214D02*
X8013928Y-7380214D01*
X8013928Y-7408786D02*
X8028214Y-7394500D01*
X8056786Y-7380214D01*
X8099643Y-7380214D01*
X8128214Y-7394500D01*
X8142500Y-7423071D01*
X8142500Y-7580214D01*
X8142500Y-7423071D02*
X8156786Y-7394500D01*
X8185357Y-7380214D01*
X8228214Y-7380214D01*
X8256786Y-7394500D01*
X8271071Y-7423071D01*
X8271071Y-7580214D01*
X8856786Y-7265929D02*
X8599643Y-7651643D01*
X9242500Y-7280214D02*
X9271071Y-7280214D01*
X9299643Y-7294500D01*
X9313928Y-7308786D01*
X9328214Y-7337357D01*
X9342500Y-7394500D01*
X9342500Y-7465929D01*
X9328214Y-7523071D01*
X9313928Y-7551643D01*
X9299643Y-7565929D01*
X9271071Y-7580214D01*
X9242500Y-7580214D01*
X9213928Y-7565929D01*
X9199643Y-7551643D01*
X9185357Y-7523071D01*
X9171071Y-7465929D01*
X9171071Y-7394500D01*
X9185357Y-7337357D01*
X9199643Y-7308786D01*
X9213928Y-7294500D01*
X9242500Y-7280214D01*
X9471071Y-7551643D02*
X9485357Y-7565929D01*
X9471071Y-7580214D01*
X9456786Y-7565929D01*
X9471071Y-7551643D01*
X9471071Y-7580214D01*
X9671071Y-7280214D02*
X9699643Y-7280214D01*
X9728214Y-7294500D01*
X9742500Y-7308786D01*
X9756786Y-7337357D01*
X9771071Y-7394500D01*
X9771071Y-7465929D01*
X9756786Y-7523071D01*
X9742500Y-7551643D01*
X9728214Y-7565929D01*
X9699643Y-7580214D01*
X9671071Y-7580214D01*
X9642500Y-7565929D01*
X9628214Y-7551643D01*
X9613928Y-7523071D01*
X9599643Y-7465929D01*
X9599643Y-7394500D01*
X9613928Y-7337357D01*
X9628214Y-7308786D01*
X9642500Y-7294500D01*
X9671071Y-7280214D01*
X9871071Y-7280214D02*
X10056786Y-7280214D01*
X9956786Y-7394500D01*
X9999643Y-7394500D01*
X10028214Y-7408786D01*
X10042500Y-7423071D01*
X10056786Y-7451643D01*
X10056786Y-7523071D01*
X10042500Y-7551643D01*
X10028214Y-7565929D01*
X9999643Y-7580214D01*
X9913928Y-7580214D01*
X9885357Y-7565929D01*
X9871071Y-7551643D01*
X10328214Y-7280214D02*
X10185357Y-7280214D01*
X10171071Y-7423071D01*
X10185357Y-7408786D01*
X10213928Y-7394500D01*
X10285357Y-7394500D01*
X10313928Y-7408786D01*
X10328214Y-7423071D01*
X10342500Y-7451643D01*
X10342500Y-7523071D01*
X10328214Y-7551643D01*
X10313928Y-7565929D01*
X10285357Y-7580214D01*
X10213928Y-7580214D01*
X10185357Y-7565929D01*
X10171071Y-7551643D01*
X10456786Y-7280214D02*
X10456786Y-7337357D01*
X10571071Y-7280214D02*
X10571071Y-7337357D01*
X11013928Y-7694500D02*
X10999643Y-7680214D01*
X10971071Y-7637357D01*
X10956786Y-7608786D01*
X10942500Y-7565929D01*
X10928214Y-7494500D01*
X10928214Y-7437357D01*
X10942500Y-7365929D01*
X10956786Y-7323071D01*
X10971071Y-7294500D01*
X10999643Y-7251643D01*
X11013928Y-7237357D01*
X11099643Y-7280214D02*
X11285357Y-7280214D01*
X11185357Y-7394500D01*
X11228214Y-7394500D01*
X11256785Y-7408786D01*
X11271071Y-7423071D01*
X11285357Y-7451643D01*
X11285357Y-7523071D01*
X11271071Y-7551643D01*
X11256785Y-7565929D01*
X11228214Y-7580214D01*
X11142500Y-7580214D01*
X11113928Y-7565929D01*
X11099643Y-7551643D01*
X11642500Y-7580214D02*
X11642500Y-7280214D01*
X11771071Y-7580214D02*
X11771071Y-7423071D01*
X11756785Y-7394500D01*
X11728214Y-7380214D01*
X11685357Y-7380214D01*
X11656785Y-7394500D01*
X11642500Y-7408786D01*
X11956785Y-7580214D02*
X11928214Y-7565929D01*
X11913928Y-7551643D01*
X11899643Y-7523071D01*
X11899643Y-7437357D01*
X11913928Y-7408786D01*
X11928214Y-7394500D01*
X11956785Y-7380214D01*
X11999643Y-7380214D01*
X12028214Y-7394500D01*
X12042500Y-7408786D01*
X12056785Y-7437357D01*
X12056785Y-7523071D01*
X12042500Y-7551643D01*
X12028214Y-7565929D01*
X11999643Y-7580214D01*
X11956785Y-7580214D01*
X12228214Y-7580214D02*
X12199643Y-7565929D01*
X12185357Y-7537357D01*
X12185357Y-7280214D01*
X12456786Y-7565929D02*
X12428214Y-7580214D01*
X12371071Y-7580214D01*
X12342500Y-7565929D01*
X12328214Y-7537357D01*
X12328214Y-7423071D01*
X12342500Y-7394500D01*
X12371071Y-7380214D01*
X12428214Y-7380214D01*
X12456786Y-7394500D01*
X12471071Y-7423071D01*
X12471071Y-7451643D01*
X12328214Y-7480214D01*
X12585357Y-7565929D02*
X12613928Y-7580214D01*
X12671071Y-7580214D01*
X12699643Y-7565929D01*
X12713928Y-7537357D01*
X12713928Y-7523071D01*
X12699643Y-7494500D01*
X12671071Y-7480214D01*
X12628214Y-7480214D01*
X12599643Y-7465929D01*
X12585357Y-7437357D01*
X12585357Y-7423071D01*
X12599643Y-7394500D01*
X12628214Y-7380214D01*
X12671071Y-7380214D01*
X12699643Y-7394500D01*
X12813928Y-7694500D02*
X12828214Y-7680214D01*
X12856786Y-7637357D01*
X12871071Y-7608786D01*
X12885357Y-7565929D01*
X12899643Y-7494500D01*
X12899643Y-7437357D01*
X12885357Y-7365929D01*
X12871071Y-7323071D01*
X12856786Y-7294500D01*
X12828214Y-7251643D01*
X12813928Y-7237357D01*
X6342500Y-7840500D02*
G75*
G03X6342500Y-7840500I-50000J0D01*
G01*
X6771071Y-7976214D02*
X6599643Y-7976214D01*
X6685357Y-7976214D02*
X6685357Y-7676214D01*
X6656786Y-7719071D01*
X6628214Y-7747643D01*
X6599643Y-7761929D01*
X6899643Y-7947643D02*
X6913928Y-7961929D01*
X6899643Y-7976214D01*
X6885357Y-7961929D01*
X6899643Y-7947643D01*
X6899643Y-7976214D01*
X7099643Y-7676214D02*
X7128214Y-7676214D01*
X7156786Y-7690500D01*
X7171071Y-7704786D01*
X7185357Y-7733357D01*
X7199643Y-7790500D01*
X7199643Y-7861929D01*
X7185357Y-7919071D01*
X7171071Y-7947643D01*
X7156786Y-7961929D01*
X7128214Y-7976214D01*
X7099643Y-7976214D01*
X7071071Y-7961929D01*
X7056786Y-7947643D01*
X7042500Y-7919071D01*
X7028214Y-7861929D01*
X7028214Y-7790500D01*
X7042500Y-7733357D01*
X7056786Y-7704786D01*
X7071071Y-7690500D01*
X7099643Y-7676214D01*
X7385357Y-7676214D02*
X7413928Y-7676214D01*
X7442500Y-7690500D01*
X7456786Y-7704786D01*
X7471071Y-7733357D01*
X7485357Y-7790500D01*
X7485357Y-7861929D01*
X7471071Y-7919071D01*
X7456786Y-7947643D01*
X7442500Y-7961929D01*
X7413928Y-7976214D01*
X7385357Y-7976214D01*
X7356786Y-7961929D01*
X7342500Y-7947643D01*
X7328214Y-7919071D01*
X7313928Y-7861929D01*
X7313928Y-7790500D01*
X7328214Y-7733357D01*
X7342500Y-7704786D01*
X7356786Y-7690500D01*
X7385357Y-7676214D01*
X7613928Y-7976214D02*
X7613928Y-7776214D01*
X7613928Y-7804786D02*
X7628214Y-7790500D01*
X7656786Y-7776214D01*
X7699643Y-7776214D01*
X7728214Y-7790500D01*
X7742500Y-7819071D01*
X7742500Y-7976214D01*
X7742500Y-7819071D02*
X7756786Y-7790500D01*
X7785357Y-7776214D01*
X7828214Y-7776214D01*
X7856786Y-7790500D01*
X7871071Y-7819071D01*
X7871071Y-7976214D01*
X8013928Y-7976214D02*
X8013928Y-7776214D01*
X8013928Y-7804786D02*
X8028214Y-7790500D01*
X8056786Y-7776214D01*
X8099643Y-7776214D01*
X8128214Y-7790500D01*
X8142500Y-7819071D01*
X8142500Y-7976214D01*
X8142500Y-7819071D02*
X8156786Y-7790500D01*
X8185357Y-7776214D01*
X8228214Y-7776214D01*
X8256786Y-7790500D01*
X8271071Y-7819071D01*
X8271071Y-7976214D01*
X8856786Y-7661929D02*
X8599643Y-8047643D01*
X9242500Y-7676214D02*
X9271071Y-7676214D01*
X9299643Y-7690500D01*
X9313928Y-7704786D01*
X9328214Y-7733357D01*
X9342500Y-7790500D01*
X9342500Y-7861929D01*
X9328214Y-7919071D01*
X9313928Y-7947643D01*
X9299643Y-7961929D01*
X9271071Y-7976214D01*
X9242500Y-7976214D01*
X9213928Y-7961929D01*
X9199643Y-7947643D01*
X9185357Y-7919071D01*
X9171071Y-7861929D01*
X9171071Y-7790500D01*
X9185357Y-7733357D01*
X9199643Y-7704786D01*
X9213928Y-7690500D01*
X9242500Y-7676214D01*
X9471071Y-7947643D02*
X9485357Y-7961929D01*
X9471071Y-7976214D01*
X9456786Y-7961929D01*
X9471071Y-7947643D01*
X9471071Y-7976214D01*
X9671071Y-7676214D02*
X9699643Y-7676214D01*
X9728214Y-7690500D01*
X9742500Y-7704786D01*
X9756786Y-7733357D01*
X9771071Y-7790500D01*
X9771071Y-7861929D01*
X9756786Y-7919071D01*
X9742500Y-7947643D01*
X9728214Y-7961929D01*
X9699643Y-7976214D01*
X9671071Y-7976214D01*
X9642500Y-7961929D01*
X9628214Y-7947643D01*
X9613928Y-7919071D01*
X9599643Y-7861929D01*
X9599643Y-7790500D01*
X9613928Y-7733357D01*
X9628214Y-7704786D01*
X9642500Y-7690500D01*
X9671071Y-7676214D01*
X9871071Y-7676214D02*
X10056786Y-7676214D01*
X9956786Y-7790500D01*
X9999643Y-7790500D01*
X10028214Y-7804786D01*
X10042500Y-7819071D01*
X10056786Y-7847643D01*
X10056786Y-7919071D01*
X10042500Y-7947643D01*
X10028214Y-7961929D01*
X9999643Y-7976214D01*
X9913928Y-7976214D01*
X9885357Y-7961929D01*
X9871071Y-7947643D01*
X10199643Y-7976214D02*
X10256786Y-7976214D01*
X10285357Y-7961929D01*
X10299643Y-7947643D01*
X10328214Y-7904786D01*
X10342500Y-7847643D01*
X10342500Y-7733357D01*
X10328214Y-7704786D01*
X10313928Y-7690500D01*
X10285357Y-7676214D01*
X10228214Y-7676214D01*
X10199643Y-7690500D01*
X10185357Y-7704786D01*
X10171071Y-7733357D01*
X10171071Y-7804786D01*
X10185357Y-7833357D01*
X10199643Y-7847643D01*
X10228214Y-7861929D01*
X10285357Y-7861929D01*
X10313928Y-7847643D01*
X10328214Y-7833357D01*
X10342500Y-7804786D01*
X10456786Y-7676214D02*
X10456786Y-7733357D01*
X10571071Y-7676214D02*
X10571071Y-7733357D01*
X11013928Y-8090500D02*
X10999643Y-8076214D01*
X10971071Y-8033357D01*
X10956786Y-8004786D01*
X10942500Y-7961929D01*
X10928214Y-7890500D01*
X10928214Y-7833357D01*
X10942500Y-7761929D01*
X10956786Y-7719071D01*
X10971071Y-7690500D01*
X10999643Y-7647643D01*
X11013928Y-7633357D01*
X11256785Y-7776214D02*
X11256785Y-7976214D01*
X11185357Y-7661929D02*
X11113928Y-7876214D01*
X11299643Y-7876214D01*
X11642500Y-7976214D02*
X11642500Y-7676214D01*
X11771071Y-7976214D02*
X11771071Y-7819071D01*
X11756785Y-7790500D01*
X11728214Y-7776214D01*
X11685357Y-7776214D01*
X11656785Y-7790500D01*
X11642500Y-7804786D01*
X11956785Y-7976214D02*
X11928214Y-7961929D01*
X11913928Y-7947643D01*
X11899643Y-7919071D01*
X11899643Y-7833357D01*
X11913928Y-7804786D01*
X11928214Y-7790500D01*
X11956785Y-7776214D01*
X11999643Y-7776214D01*
X12028214Y-7790500D01*
X12042500Y-7804786D01*
X12056785Y-7833357D01*
X12056785Y-7919071D01*
X12042500Y-7947643D01*
X12028214Y-7961929D01*
X11999643Y-7976214D01*
X11956785Y-7976214D01*
X12228214Y-7976214D02*
X12199643Y-7961929D01*
X12185357Y-7933357D01*
X12185357Y-7676214D01*
X12456786Y-7961929D02*
X12428214Y-7976214D01*
X12371071Y-7976214D01*
X12342500Y-7961929D01*
X12328214Y-7933357D01*
X12328214Y-7819071D01*
X12342500Y-7790500D01*
X12371071Y-7776214D01*
X12428214Y-7776214D01*
X12456786Y-7790500D01*
X12471071Y-7819071D01*
X12471071Y-7847643D01*
X12328214Y-7876214D01*
X12585357Y-7961929D02*
X12613928Y-7976214D01*
X12671071Y-7976214D01*
X12699643Y-7961929D01*
X12713928Y-7933357D01*
X12713928Y-7919071D01*
X12699643Y-7890500D01*
X12671071Y-7876214D01*
X12628214Y-7876214D01*
X12599643Y-7861929D01*
X12585357Y-7833357D01*
X12585357Y-7819071D01*
X12599643Y-7790500D01*
X12628214Y-7776214D01*
X12671071Y-7776214D01*
X12699643Y-7790500D01*
X12813928Y-8090500D02*
X12828214Y-8076214D01*
X12856786Y-8033357D01*
X12871071Y-8004786D01*
X12885357Y-7961929D01*
X12899643Y-7890500D01*
X12899643Y-7833357D01*
X12885357Y-7761929D01*
X12871071Y-7719071D01*
X12856786Y-7690500D01*
X12828214Y-7647643D01*
X12813928Y-7633357D01*
X6257500Y-8151500D02*
X6257500Y-8321500D01*
X6172500Y-8236500D02*
X6342500Y-8236500D01*
X6771071Y-8372214D02*
X6599643Y-8372214D01*
X6685357Y-8372214D02*
X6685357Y-8072214D01*
X6656786Y-8115071D01*
X6628214Y-8143643D01*
X6599643Y-8157929D01*
X6899643Y-8343643D02*
X6913928Y-8357929D01*
X6899643Y-8372214D01*
X6885357Y-8357929D01*
X6899643Y-8343643D01*
X6899643Y-8372214D01*
X7013928Y-8072214D02*
X7213928Y-8072214D01*
X7085357Y-8372214D01*
X7385357Y-8072214D02*
X7413928Y-8072214D01*
X7442500Y-8086500D01*
X7456786Y-8100786D01*
X7471071Y-8129357D01*
X7485357Y-8186500D01*
X7485357Y-8257929D01*
X7471071Y-8315071D01*
X7456786Y-8343643D01*
X7442500Y-8357929D01*
X7413928Y-8372214D01*
X7385357Y-8372214D01*
X7356786Y-8357929D01*
X7342500Y-8343643D01*
X7328214Y-8315071D01*
X7313928Y-8257929D01*
X7313928Y-8186500D01*
X7328214Y-8129357D01*
X7342500Y-8100786D01*
X7356786Y-8086500D01*
X7385357Y-8072214D01*
X7613928Y-8372214D02*
X7613928Y-8172214D01*
X7613928Y-8200786D02*
X7628214Y-8186500D01*
X7656786Y-8172214D01*
X7699643Y-8172214D01*
X7728214Y-8186500D01*
X7742500Y-8215071D01*
X7742500Y-8372214D01*
X7742500Y-8215071D02*
X7756786Y-8186500D01*
X7785357Y-8172214D01*
X7828214Y-8172214D01*
X7856786Y-8186500D01*
X7871071Y-8215071D01*
X7871071Y-8372214D01*
X8013928Y-8372214D02*
X8013928Y-8172214D01*
X8013928Y-8200786D02*
X8028214Y-8186500D01*
X8056786Y-8172214D01*
X8099643Y-8172214D01*
X8128214Y-8186500D01*
X8142500Y-8215071D01*
X8142500Y-8372214D01*
X8142500Y-8215071D02*
X8156786Y-8186500D01*
X8185357Y-8172214D01*
X8228214Y-8172214D01*
X8256786Y-8186500D01*
X8271071Y-8215071D01*
X8271071Y-8372214D01*
X8856786Y-8057929D02*
X8599643Y-8443643D01*
X9242500Y-8072214D02*
X9271071Y-8072214D01*
X9299643Y-8086500D01*
X9313928Y-8100786D01*
X9328214Y-8129357D01*
X9342500Y-8186500D01*
X9342500Y-8257929D01*
X9328214Y-8315071D01*
X9313928Y-8343643D01*
X9299643Y-8357929D01*
X9271071Y-8372214D01*
X9242500Y-8372214D01*
X9213928Y-8357929D01*
X9199643Y-8343643D01*
X9185357Y-8315071D01*
X9171071Y-8257929D01*
X9171071Y-8186500D01*
X9185357Y-8129357D01*
X9199643Y-8100786D01*
X9213928Y-8086500D01*
X9242500Y-8072214D01*
X9471071Y-8343643D02*
X9485357Y-8357929D01*
X9471071Y-8372214D01*
X9456786Y-8357929D01*
X9471071Y-8343643D01*
X9471071Y-8372214D01*
X9671071Y-8072214D02*
X9699643Y-8072214D01*
X9728214Y-8086500D01*
X9742500Y-8100786D01*
X9756786Y-8129357D01*
X9771071Y-8186500D01*
X9771071Y-8257929D01*
X9756786Y-8315071D01*
X9742500Y-8343643D01*
X9728214Y-8357929D01*
X9699643Y-8372214D01*
X9671071Y-8372214D01*
X9642500Y-8357929D01*
X9628214Y-8343643D01*
X9613928Y-8315071D01*
X9599643Y-8257929D01*
X9599643Y-8186500D01*
X9613928Y-8129357D01*
X9628214Y-8100786D01*
X9642500Y-8086500D01*
X9671071Y-8072214D01*
X10028214Y-8072214D02*
X9971071Y-8072214D01*
X9942500Y-8086500D01*
X9928214Y-8100786D01*
X9899643Y-8143643D01*
X9885357Y-8200786D01*
X9885357Y-8315071D01*
X9899643Y-8343643D01*
X9913928Y-8357929D01*
X9942500Y-8372214D01*
X9999643Y-8372214D01*
X10028214Y-8357929D01*
X10042500Y-8343643D01*
X10056786Y-8315071D01*
X10056786Y-8243643D01*
X10042500Y-8215071D01*
X10028214Y-8200786D01*
X9999643Y-8186500D01*
X9942500Y-8186500D01*
X9913928Y-8200786D01*
X9899643Y-8215071D01*
X9885357Y-8243643D01*
X10156786Y-8072214D02*
X10356786Y-8072214D01*
X10228214Y-8372214D01*
X10456786Y-8072214D02*
X10456786Y-8129357D01*
X10571071Y-8072214D02*
X10571071Y-8129357D01*
X11013928Y-8486500D02*
X10999643Y-8472214D01*
X10971071Y-8429357D01*
X10956786Y-8400786D01*
X10942500Y-8357929D01*
X10928214Y-8286500D01*
X10928214Y-8229357D01*
X10942500Y-8157929D01*
X10956786Y-8115071D01*
X10971071Y-8086500D01*
X10999643Y-8043643D01*
X11013928Y-8029357D01*
X11256785Y-8172214D02*
X11256785Y-8372214D01*
X11185357Y-8057929D02*
X11113928Y-8272214D01*
X11299643Y-8272214D01*
X11642500Y-8372214D02*
X11642500Y-8072214D01*
X11771071Y-8372214D02*
X11771071Y-8215071D01*
X11756785Y-8186500D01*
X11728214Y-8172214D01*
X11685357Y-8172214D01*
X11656785Y-8186500D01*
X11642500Y-8200786D01*
X11956785Y-8372214D02*
X11928214Y-8357929D01*
X11913928Y-8343643D01*
X11899643Y-8315071D01*
X11899643Y-8229357D01*
X11913928Y-8200786D01*
X11928214Y-8186500D01*
X11956785Y-8172214D01*
X11999643Y-8172214D01*
X12028214Y-8186500D01*
X12042500Y-8200786D01*
X12056785Y-8229357D01*
X12056785Y-8315071D01*
X12042500Y-8343643D01*
X12028214Y-8357929D01*
X11999643Y-8372214D01*
X11956785Y-8372214D01*
X12228214Y-8372214D02*
X12199643Y-8357929D01*
X12185357Y-8329357D01*
X12185357Y-8072214D01*
X12456786Y-8357929D02*
X12428214Y-8372214D01*
X12371071Y-8372214D01*
X12342500Y-8357929D01*
X12328214Y-8329357D01*
X12328214Y-8215071D01*
X12342500Y-8186500D01*
X12371071Y-8172214D01*
X12428214Y-8172214D01*
X12456786Y-8186500D01*
X12471071Y-8215071D01*
X12471071Y-8243643D01*
X12328214Y-8272214D01*
X12585357Y-8357929D02*
X12613928Y-8372214D01*
X12671071Y-8372214D01*
X12699643Y-8357929D01*
X12713928Y-8329357D01*
X12713928Y-8315071D01*
X12699643Y-8286500D01*
X12671071Y-8272214D01*
X12628214Y-8272214D01*
X12599643Y-8257929D01*
X12585357Y-8229357D01*
X12585357Y-8215071D01*
X12599643Y-8186500D01*
X12628214Y-8172214D01*
X12671071Y-8172214D01*
X12699643Y-8186500D01*
X12813928Y-8486500D02*
X12828214Y-8472214D01*
X12856786Y-8429357D01*
X12871071Y-8400786D01*
X12885357Y-8357929D01*
X12899643Y-8286500D01*
X12899643Y-8229357D01*
X12885357Y-8157929D01*
X12871071Y-8115071D01*
X12856786Y-8086500D01*
X12828214Y-8043643D01*
X12813928Y-8029357D01*
X13356786Y-8486500D02*
X13342500Y-8472214D01*
X13313928Y-8429357D01*
X13299643Y-8400786D01*
X13285357Y-8357929D01*
X13271071Y-8286500D01*
X13271071Y-8229357D01*
X13285357Y-8157929D01*
X13299643Y-8115071D01*
X13313928Y-8086500D01*
X13342500Y-8043643D01*
X13356786Y-8029357D01*
X13471071Y-8172214D02*
X13471071Y-8372214D01*
X13471071Y-8200786D02*
X13485357Y-8186500D01*
X13513928Y-8172214D01*
X13556786Y-8172214D01*
X13585357Y-8186500D01*
X13599643Y-8215071D01*
X13599643Y-8372214D01*
X13785357Y-8372214D02*
X13756786Y-8357929D01*
X13742500Y-8343643D01*
X13728214Y-8315071D01*
X13728214Y-8229357D01*
X13742500Y-8200786D01*
X13756786Y-8186500D01*
X13785357Y-8172214D01*
X13828214Y-8172214D01*
X13856786Y-8186500D01*
X13871071Y-8200786D01*
X13885357Y-8229357D01*
X13885357Y-8315071D01*
X13871071Y-8343643D01*
X13856786Y-8357929D01*
X13828214Y-8372214D01*
X13785357Y-8372214D01*
X13971071Y-8172214D02*
X14085357Y-8172214D01*
X14013928Y-8072214D02*
X14013928Y-8329357D01*
X14028214Y-8357929D01*
X14056786Y-8372214D01*
X14085357Y-8372214D01*
X14413928Y-8172214D02*
X14413928Y-8472214D01*
X14413928Y-8186500D02*
X14442500Y-8172214D01*
X14499643Y-8172214D01*
X14528214Y-8186500D01*
X14542500Y-8200786D01*
X14556786Y-8229357D01*
X14556786Y-8315071D01*
X14542500Y-8343643D01*
X14528214Y-8357929D01*
X14499643Y-8372214D01*
X14442500Y-8372214D01*
X14413928Y-8357929D01*
X14728214Y-8372214D02*
X14699643Y-8357929D01*
X14685357Y-8329357D01*
X14685357Y-8072214D01*
X14971071Y-8372214D02*
X14971071Y-8215071D01*
X14956786Y-8186500D01*
X14928214Y-8172214D01*
X14871071Y-8172214D01*
X14842500Y-8186500D01*
X14971071Y-8357929D02*
X14942500Y-8372214D01*
X14871071Y-8372214D01*
X14842500Y-8357929D01*
X14828214Y-8329357D01*
X14828214Y-8300786D01*
X14842500Y-8272214D01*
X14871071Y-8257929D01*
X14942500Y-8257929D01*
X14971071Y-8243643D01*
X15071071Y-8172214D02*
X15185357Y-8172214D01*
X15113929Y-8072214D02*
X15113929Y-8329357D01*
X15128214Y-8357929D01*
X15156786Y-8372214D01*
X15185357Y-8372214D01*
X15399643Y-8357929D02*
X15371071Y-8372214D01*
X15313929Y-8372214D01*
X15285357Y-8357929D01*
X15271071Y-8329357D01*
X15271071Y-8215071D01*
X15285357Y-8186500D01*
X15313929Y-8172214D01*
X15371071Y-8172214D01*
X15399643Y-8186500D01*
X15413929Y-8215071D01*
X15413929Y-8243643D01*
X15271071Y-8272214D01*
X15671071Y-8372214D02*
X15671071Y-8072214D01*
X15671071Y-8357929D02*
X15642500Y-8372214D01*
X15585357Y-8372214D01*
X15556786Y-8357929D01*
X15542500Y-8343643D01*
X15528214Y-8315071D01*
X15528214Y-8229357D01*
X15542500Y-8200786D01*
X15556786Y-8186500D01*
X15585357Y-8172214D01*
X15642500Y-8172214D01*
X15671071Y-8186500D01*
X15785357Y-8486500D02*
X15799643Y-8472214D01*
X15828214Y-8429357D01*
X15842500Y-8400786D01*
X15856786Y-8357929D01*
X15871071Y-8286500D01*
X15871071Y-8229357D01*
X15856786Y-8157929D01*
X15842500Y-8115071D01*
X15828214Y-8086500D01*
X15799643Y-8043643D01*
X15785357Y-8029357D01*
M02*
